%TF.GenerationSoftware,KiCad,Pcbnew,8.0.7*%
%TF.CreationDate,2025-11-12T22:50:05-06:00*%
%TF.ProjectId,EnergyMonitoringSystem,456e6572-6779-44d6-9f6e-69746f72696e,rev?*%
%TF.SameCoordinates,PX1c9c380PY91e9840*%
%TF.FileFunction,Legend,Bot*%
%TF.FilePolarity,Positive*%
%FSLAX46Y46*%
G04 Gerber Fmt 4.6, Leading zero omitted, Abs format (unit mm)*
G04 Created by KiCad (PCBNEW 8.0.7) date 2025-11-12 22:50:05*
%MOMM*%
%LPD*%
G01*
G04 APERTURE LIST*
G04 Aperture macros list*
%AMRoundRect*
0 Rectangle with rounded corners*
0 $1 Rounding radius*
0 $2 $3 $4 $5 $6 $7 $8 $9 X,Y pos of 4 corners*
0 Add a 4 corners polygon primitive as box body*
4,1,4,$2,$3,$4,$5,$6,$7,$8,$9,$2,$3,0*
0 Add four circle primitives for the rounded corners*
1,1,$1+$1,$2,$3*
1,1,$1+$1,$4,$5*
1,1,$1+$1,$6,$7*
1,1,$1+$1,$8,$9*
0 Add four rect primitives between the rounded corners*
20,1,$1+$1,$2,$3,$4,$5,0*
20,1,$1+$1,$4,$5,$6,$7,0*
20,1,$1+$1,$6,$7,$8,$9,0*
20,1,$1+$1,$8,$9,$2,$3,0*%
G04 Aperture macros list end*
%ADD10C,0.150000*%
%ADD11C,0.254000*%
%ADD12C,0.508000*%
%ADD13C,0.120000*%
%ADD14C,0.200000*%
%ADD15R,1.700000X1.700000*%
%ADD16O,1.700000X1.700000*%
%ADD17C,6.400000*%
%ADD18C,3.250000*%
%ADD19C,1.500000*%
%ADD20C,2.500000*%
%ADD21C,1.650000*%
%ADD22R,2.600000X2.600000*%
%ADD23C,2.600000*%
%ADD24C,1.143000*%
%ADD25R,1.800000X1.800000*%
%ADD26C,1.800000*%
%ADD27C,0.650000*%
%ADD28O,1.000000X2.100000*%
%ADD29O,1.000000X1.800000*%
%ADD30RoundRect,0.135000X0.135000X0.185000X-0.135000X0.185000X-0.135000X-0.185000X0.135000X-0.185000X0*%
%ADD31RoundRect,0.140000X0.170000X-0.140000X0.170000X0.140000X-0.170000X0.140000X-0.170000X-0.140000X0*%
%ADD32RoundRect,0.140000X-0.170000X0.140000X-0.170000X-0.140000X0.170000X-0.140000X0.170000X0.140000X0*%
%ADD33R,0.500000X1.100000*%
%ADD34RoundRect,0.140000X0.140000X0.170000X-0.140000X0.170000X-0.140000X-0.170000X0.140000X-0.170000X0*%
%ADD35RoundRect,0.140000X-0.140000X-0.170000X0.140000X-0.170000X0.140000X0.170000X-0.140000X0.170000X0*%
%ADD36C,2.000000*%
%ADD37RoundRect,0.135000X-0.185000X0.135000X-0.185000X-0.135000X0.185000X-0.135000X0.185000X0.135000X0*%
%ADD38RoundRect,0.200000X0.275000X-0.200000X0.275000X0.200000X-0.275000X0.200000X-0.275000X-0.200000X0*%
%ADD39RoundRect,0.135000X-0.135000X-0.185000X0.135000X-0.185000X0.135000X0.185000X-0.135000X0.185000X0*%
%ADD40RoundRect,0.225000X0.250000X-0.225000X0.250000X0.225000X-0.250000X0.225000X-0.250000X-0.225000X0*%
%ADD41RoundRect,0.135000X0.185000X-0.135000X0.185000X0.135000X-0.185000X0.135000X-0.185000X-0.135000X0*%
%ADD42RoundRect,0.200000X-0.275000X0.200000X-0.275000X-0.200000X0.275000X-0.200000X0.275000X0.200000X0*%
G04 APERTURE END LIST*
D10*
X161619047Y109715181D02*
X161952380Y110191372D01*
X162190475Y109715181D02*
X162190475Y110715181D01*
X162190475Y110715181D02*
X161809523Y110715181D01*
X161809523Y110715181D02*
X161714285Y110667562D01*
X161714285Y110667562D02*
X161666666Y110619943D01*
X161666666Y110619943D02*
X161619047Y110524705D01*
X161619047Y110524705D02*
X161619047Y110381848D01*
X161619047Y110381848D02*
X161666666Y110286610D01*
X161666666Y110286610D02*
X161714285Y110238991D01*
X161714285Y110238991D02*
X161809523Y110191372D01*
X161809523Y110191372D02*
X162190475Y110191372D01*
X161047618Y110286610D02*
X161142856Y110334229D01*
X161142856Y110334229D02*
X161190475Y110381848D01*
X161190475Y110381848D02*
X161238094Y110477086D01*
X161238094Y110477086D02*
X161238094Y110524705D01*
X161238094Y110524705D02*
X161190475Y110619943D01*
X161190475Y110619943D02*
X161142856Y110667562D01*
X161142856Y110667562D02*
X161047618Y110715181D01*
X161047618Y110715181D02*
X160857142Y110715181D01*
X160857142Y110715181D02*
X160761904Y110667562D01*
X160761904Y110667562D02*
X160714285Y110619943D01*
X160714285Y110619943D02*
X160666666Y110524705D01*
X160666666Y110524705D02*
X160666666Y110477086D01*
X160666666Y110477086D02*
X160714285Y110381848D01*
X160714285Y110381848D02*
X160761904Y110334229D01*
X160761904Y110334229D02*
X160857142Y110286610D01*
X160857142Y110286610D02*
X161047618Y110286610D01*
X161047618Y110286610D02*
X161142856Y110238991D01*
X161142856Y110238991D02*
X161190475Y110191372D01*
X161190475Y110191372D02*
X161238094Y110096134D01*
X161238094Y110096134D02*
X161238094Y109905658D01*
X161238094Y109905658D02*
X161190475Y109810420D01*
X161190475Y109810420D02*
X161142856Y109762800D01*
X161142856Y109762800D02*
X161047618Y109715181D01*
X161047618Y109715181D02*
X160857142Y109715181D01*
X160857142Y109715181D02*
X160761904Y109762800D01*
X160761904Y109762800D02*
X160714285Y109810420D01*
X160714285Y109810420D02*
X160666666Y109905658D01*
X160666666Y109905658D02*
X160666666Y110096134D01*
X160666666Y110096134D02*
X160714285Y110191372D01*
X160714285Y110191372D02*
X160761904Y110238991D01*
X160761904Y110238991D02*
X160857142Y110286610D01*
X159714285Y109715181D02*
X160285713Y109715181D01*
X159999999Y109715181D02*
X159999999Y110715181D01*
X159999999Y110715181D02*
X160095237Y110572324D01*
X160095237Y110572324D02*
X160190475Y110477086D01*
X160190475Y110477086D02*
X160285713Y110429467D01*
X158857142Y110715181D02*
X159047618Y110715181D01*
X159047618Y110715181D02*
X159142856Y110667562D01*
X159142856Y110667562D02*
X159190475Y110619943D01*
X159190475Y110619943D02*
X159285713Y110477086D01*
X159285713Y110477086D02*
X159333332Y110286610D01*
X159333332Y110286610D02*
X159333332Y109905658D01*
X159333332Y109905658D02*
X159285713Y109810420D01*
X159285713Y109810420D02*
X159238094Y109762800D01*
X159238094Y109762800D02*
X159142856Y109715181D01*
X159142856Y109715181D02*
X158952380Y109715181D01*
X158952380Y109715181D02*
X158857142Y109762800D01*
X158857142Y109762800D02*
X158809523Y109810420D01*
X158809523Y109810420D02*
X158761904Y109905658D01*
X158761904Y109905658D02*
X158761904Y110143753D01*
X158761904Y110143753D02*
X158809523Y110238991D01*
X158809523Y110238991D02*
X158857142Y110286610D01*
X158857142Y110286610D02*
X158952380Y110334229D01*
X158952380Y110334229D02*
X159142856Y110334229D01*
X159142856Y110334229D02*
X159238094Y110286610D01*
X159238094Y110286610D02*
X159285713Y110238991D01*
X159285713Y110238991D02*
X159333332Y110143753D01*
X151359580Y42619048D02*
X151407200Y42666667D01*
X151407200Y42666667D02*
X151454819Y42809524D01*
X151454819Y42809524D02*
X151454819Y42904762D01*
X151454819Y42904762D02*
X151407200Y43047619D01*
X151407200Y43047619D02*
X151311961Y43142857D01*
X151311961Y43142857D02*
X151216723Y43190476D01*
X151216723Y43190476D02*
X151026247Y43238095D01*
X151026247Y43238095D02*
X150883390Y43238095D01*
X150883390Y43238095D02*
X150692914Y43190476D01*
X150692914Y43190476D02*
X150597676Y43142857D01*
X150597676Y43142857D02*
X150502438Y43047619D01*
X150502438Y43047619D02*
X150454819Y42904762D01*
X150454819Y42904762D02*
X150454819Y42809524D01*
X150454819Y42809524D02*
X150502438Y42666667D01*
X150502438Y42666667D02*
X150550057Y42619048D01*
X150788152Y41761905D02*
X151454819Y41761905D01*
X150407200Y42000000D02*
X151121485Y42238095D01*
X151121485Y42238095D02*
X151121485Y41619048D01*
X150454819Y41333333D02*
X150454819Y40714286D01*
X150454819Y40714286D02*
X150835771Y41047619D01*
X150835771Y41047619D02*
X150835771Y40904762D01*
X150835771Y40904762D02*
X150883390Y40809524D01*
X150883390Y40809524D02*
X150931009Y40761905D01*
X150931009Y40761905D02*
X151026247Y40714286D01*
X151026247Y40714286D02*
X151264342Y40714286D01*
X151264342Y40714286D02*
X151359580Y40761905D01*
X151359580Y40761905D02*
X151407200Y40809524D01*
X151407200Y40809524D02*
X151454819Y40904762D01*
X151454819Y40904762D02*
X151454819Y41190476D01*
X151454819Y41190476D02*
X151407200Y41285714D01*
X151407200Y41285714D02*
X151359580Y41333333D01*
X150788152Y39857143D02*
X151454819Y39857143D01*
X150407200Y40095238D02*
X151121485Y40333333D01*
X151121485Y40333333D02*
X151121485Y39714286D01*
X91699580Y52119048D02*
X91747200Y52166667D01*
X91747200Y52166667D02*
X91794819Y52309524D01*
X91794819Y52309524D02*
X91794819Y52404762D01*
X91794819Y52404762D02*
X91747200Y52547619D01*
X91747200Y52547619D02*
X91651961Y52642857D01*
X91651961Y52642857D02*
X91556723Y52690476D01*
X91556723Y52690476D02*
X91366247Y52738095D01*
X91366247Y52738095D02*
X91223390Y52738095D01*
X91223390Y52738095D02*
X91032914Y52690476D01*
X91032914Y52690476D02*
X90937676Y52642857D01*
X90937676Y52642857D02*
X90842438Y52547619D01*
X90842438Y52547619D02*
X90794819Y52404762D01*
X90794819Y52404762D02*
X90794819Y52309524D01*
X90794819Y52309524D02*
X90842438Y52166667D01*
X90842438Y52166667D02*
X90890057Y52119048D01*
X91794819Y51642857D02*
X91794819Y51452381D01*
X91794819Y51452381D02*
X91747200Y51357143D01*
X91747200Y51357143D02*
X91699580Y51309524D01*
X91699580Y51309524D02*
X91556723Y51214286D01*
X91556723Y51214286D02*
X91366247Y51166667D01*
X91366247Y51166667D02*
X90985295Y51166667D01*
X90985295Y51166667D02*
X90890057Y51214286D01*
X90890057Y51214286D02*
X90842438Y51261905D01*
X90842438Y51261905D02*
X90794819Y51357143D01*
X90794819Y51357143D02*
X90794819Y51547619D01*
X90794819Y51547619D02*
X90842438Y51642857D01*
X90842438Y51642857D02*
X90890057Y51690476D01*
X90890057Y51690476D02*
X90985295Y51738095D01*
X90985295Y51738095D02*
X91223390Y51738095D01*
X91223390Y51738095D02*
X91318628Y51690476D01*
X91318628Y51690476D02*
X91366247Y51642857D01*
X91366247Y51642857D02*
X91413866Y51547619D01*
X91413866Y51547619D02*
X91413866Y51357143D01*
X91413866Y51357143D02*
X91366247Y51261905D01*
X91366247Y51261905D02*
X91318628Y51214286D01*
X91318628Y51214286D02*
X91223390Y51166667D01*
X90794819Y50547619D02*
X90794819Y50452381D01*
X90794819Y50452381D02*
X90842438Y50357143D01*
X90842438Y50357143D02*
X90890057Y50309524D01*
X90890057Y50309524D02*
X90985295Y50261905D01*
X90985295Y50261905D02*
X91175771Y50214286D01*
X91175771Y50214286D02*
X91413866Y50214286D01*
X91413866Y50214286D02*
X91604342Y50261905D01*
X91604342Y50261905D02*
X91699580Y50309524D01*
X91699580Y50309524D02*
X91747200Y50357143D01*
X91747200Y50357143D02*
X91794819Y50452381D01*
X91794819Y50452381D02*
X91794819Y50547619D01*
X91794819Y50547619D02*
X91747200Y50642857D01*
X91747200Y50642857D02*
X91699580Y50690476D01*
X91699580Y50690476D02*
X91604342Y50738095D01*
X91604342Y50738095D02*
X91413866Y50785714D01*
X91413866Y50785714D02*
X91175771Y50785714D01*
X91175771Y50785714D02*
X90985295Y50738095D01*
X90985295Y50738095D02*
X90890057Y50690476D01*
X90890057Y50690476D02*
X90842438Y50642857D01*
X90842438Y50642857D02*
X90794819Y50547619D01*
X90794819Y49357143D02*
X90794819Y49547619D01*
X90794819Y49547619D02*
X90842438Y49642857D01*
X90842438Y49642857D02*
X90890057Y49690476D01*
X90890057Y49690476D02*
X91032914Y49785714D01*
X91032914Y49785714D02*
X91223390Y49833333D01*
X91223390Y49833333D02*
X91604342Y49833333D01*
X91604342Y49833333D02*
X91699580Y49785714D01*
X91699580Y49785714D02*
X91747200Y49738095D01*
X91747200Y49738095D02*
X91794819Y49642857D01*
X91794819Y49642857D02*
X91794819Y49452381D01*
X91794819Y49452381D02*
X91747200Y49357143D01*
X91747200Y49357143D02*
X91699580Y49309524D01*
X91699580Y49309524D02*
X91604342Y49261905D01*
X91604342Y49261905D02*
X91366247Y49261905D01*
X91366247Y49261905D02*
X91271009Y49309524D01*
X91271009Y49309524D02*
X91223390Y49357143D01*
X91223390Y49357143D02*
X91175771Y49452381D01*
X91175771Y49452381D02*
X91175771Y49642857D01*
X91175771Y49642857D02*
X91223390Y49738095D01*
X91223390Y49738095D02*
X91271009Y49785714D01*
X91271009Y49785714D02*
X91366247Y49833333D01*
D11*
X165824318Y33396906D02*
X164554318Y33396906D01*
X164554318Y33396906D02*
X164554318Y33094525D01*
X164554318Y33094525D02*
X164614794Y32913096D01*
X164614794Y32913096D02*
X164735746Y32792144D01*
X164735746Y32792144D02*
X164856699Y32731667D01*
X164856699Y32731667D02*
X165098603Y32671191D01*
X165098603Y32671191D02*
X165280032Y32671191D01*
X165280032Y32671191D02*
X165521937Y32731667D01*
X165521937Y32731667D02*
X165642889Y32792144D01*
X165642889Y32792144D02*
X165763842Y32913096D01*
X165763842Y32913096D02*
X165824318Y33094525D01*
X165824318Y33094525D02*
X165824318Y33396906D01*
X164977651Y31582620D02*
X165824318Y31582620D01*
X164493842Y31885001D02*
X165400984Y32187382D01*
X165400984Y32187382D02*
X165400984Y31401191D01*
X164554318Y30675477D02*
X164554318Y30554524D01*
X164554318Y30554524D02*
X164614794Y30433572D01*
X164614794Y30433572D02*
X164675270Y30373096D01*
X164675270Y30373096D02*
X164796222Y30312620D01*
X164796222Y30312620D02*
X165038127Y30252143D01*
X165038127Y30252143D02*
X165340508Y30252143D01*
X165340508Y30252143D02*
X165582413Y30312620D01*
X165582413Y30312620D02*
X165703365Y30373096D01*
X165703365Y30373096D02*
X165763842Y30433572D01*
X165763842Y30433572D02*
X165824318Y30554524D01*
X165824318Y30554524D02*
X165824318Y30675477D01*
X165824318Y30675477D02*
X165763842Y30796429D01*
X165763842Y30796429D02*
X165703365Y30856905D01*
X165703365Y30856905D02*
X165582413Y30917382D01*
X165582413Y30917382D02*
X165340508Y30977858D01*
X165340508Y30977858D02*
X165038127Y30977858D01*
X165038127Y30977858D02*
X164796222Y30917382D01*
X164796222Y30917382D02*
X164675270Y30856905D01*
X164675270Y30856905D02*
X164614794Y30796429D01*
X164614794Y30796429D02*
X164554318Y30675477D01*
X164554318Y29828810D02*
X164554318Y29042619D01*
X164554318Y29042619D02*
X165038127Y29465953D01*
X165038127Y29465953D02*
X165038127Y29284524D01*
X165038127Y29284524D02*
X165098603Y29163572D01*
X165098603Y29163572D02*
X165159080Y29103096D01*
X165159080Y29103096D02*
X165280032Y29042619D01*
X165280032Y29042619D02*
X165582413Y29042619D01*
X165582413Y29042619D02*
X165703365Y29103096D01*
X165703365Y29103096D02*
X165763842Y29163572D01*
X165763842Y29163572D02*
X165824318Y29284524D01*
X165824318Y29284524D02*
X165824318Y29647381D01*
X165824318Y29647381D02*
X165763842Y29768334D01*
X165763842Y29768334D02*
X165703365Y29828810D01*
D10*
X118119047Y100800420D02*
X118166666Y100752800D01*
X118166666Y100752800D02*
X118309523Y100705181D01*
X118309523Y100705181D02*
X118404761Y100705181D01*
X118404761Y100705181D02*
X118547618Y100752800D01*
X118547618Y100752800D02*
X118642856Y100848039D01*
X118642856Y100848039D02*
X118690475Y100943277D01*
X118690475Y100943277D02*
X118738094Y101133753D01*
X118738094Y101133753D02*
X118738094Y101276610D01*
X118738094Y101276610D02*
X118690475Y101467086D01*
X118690475Y101467086D02*
X118642856Y101562324D01*
X118642856Y101562324D02*
X118547618Y101657562D01*
X118547618Y101657562D02*
X118404761Y101705181D01*
X118404761Y101705181D02*
X118309523Y101705181D01*
X118309523Y101705181D02*
X118166666Y101657562D01*
X118166666Y101657562D02*
X118119047Y101609943D01*
X117547618Y101276610D02*
X117642856Y101324229D01*
X117642856Y101324229D02*
X117690475Y101371848D01*
X117690475Y101371848D02*
X117738094Y101467086D01*
X117738094Y101467086D02*
X117738094Y101514705D01*
X117738094Y101514705D02*
X117690475Y101609943D01*
X117690475Y101609943D02*
X117642856Y101657562D01*
X117642856Y101657562D02*
X117547618Y101705181D01*
X117547618Y101705181D02*
X117357142Y101705181D01*
X117357142Y101705181D02*
X117261904Y101657562D01*
X117261904Y101657562D02*
X117214285Y101609943D01*
X117214285Y101609943D02*
X117166666Y101514705D01*
X117166666Y101514705D02*
X117166666Y101467086D01*
X117166666Y101467086D02*
X117214285Y101371848D01*
X117214285Y101371848D02*
X117261904Y101324229D01*
X117261904Y101324229D02*
X117357142Y101276610D01*
X117357142Y101276610D02*
X117547618Y101276610D01*
X117547618Y101276610D02*
X117642856Y101228991D01*
X117642856Y101228991D02*
X117690475Y101181372D01*
X117690475Y101181372D02*
X117738094Y101086134D01*
X117738094Y101086134D02*
X117738094Y100895658D01*
X117738094Y100895658D02*
X117690475Y100800420D01*
X117690475Y100800420D02*
X117642856Y100752800D01*
X117642856Y100752800D02*
X117547618Y100705181D01*
X117547618Y100705181D02*
X117357142Y100705181D01*
X117357142Y100705181D02*
X117261904Y100752800D01*
X117261904Y100752800D02*
X117214285Y100800420D01*
X117214285Y100800420D02*
X117166666Y100895658D01*
X117166666Y100895658D02*
X117166666Y101086134D01*
X117166666Y101086134D02*
X117214285Y101181372D01*
X117214285Y101181372D02*
X117261904Y101228991D01*
X117261904Y101228991D02*
X117357142Y101276610D01*
X116547618Y101705181D02*
X116452380Y101705181D01*
X116452380Y101705181D02*
X116357142Y101657562D01*
X116357142Y101657562D02*
X116309523Y101609943D01*
X116309523Y101609943D02*
X116261904Y101514705D01*
X116261904Y101514705D02*
X116214285Y101324229D01*
X116214285Y101324229D02*
X116214285Y101086134D01*
X116214285Y101086134D02*
X116261904Y100895658D01*
X116261904Y100895658D02*
X116309523Y100800420D01*
X116309523Y100800420D02*
X116357142Y100752800D01*
X116357142Y100752800D02*
X116452380Y100705181D01*
X116452380Y100705181D02*
X116547618Y100705181D01*
X116547618Y100705181D02*
X116642856Y100752800D01*
X116642856Y100752800D02*
X116690475Y100800420D01*
X116690475Y100800420D02*
X116738094Y100895658D01*
X116738094Y100895658D02*
X116785713Y101086134D01*
X116785713Y101086134D02*
X116785713Y101324229D01*
X116785713Y101324229D02*
X116738094Y101514705D01*
X116738094Y101514705D02*
X116690475Y101609943D01*
X116690475Y101609943D02*
X116642856Y101657562D01*
X116642856Y101657562D02*
X116547618Y101705181D01*
X115357142Y101371848D02*
X115357142Y100705181D01*
X115595237Y101752800D02*
X115833332Y101038515D01*
X115833332Y101038515D02*
X115214285Y101038515D01*
X126099047Y100480420D02*
X126146666Y100432800D01*
X126146666Y100432800D02*
X126289523Y100385181D01*
X126289523Y100385181D02*
X126384761Y100385181D01*
X126384761Y100385181D02*
X126527618Y100432800D01*
X126527618Y100432800D02*
X126622856Y100528039D01*
X126622856Y100528039D02*
X126670475Y100623277D01*
X126670475Y100623277D02*
X126718094Y100813753D01*
X126718094Y100813753D02*
X126718094Y100956610D01*
X126718094Y100956610D02*
X126670475Y101147086D01*
X126670475Y101147086D02*
X126622856Y101242324D01*
X126622856Y101242324D02*
X126527618Y101337562D01*
X126527618Y101337562D02*
X126384761Y101385181D01*
X126384761Y101385181D02*
X126289523Y101385181D01*
X126289523Y101385181D02*
X126146666Y101337562D01*
X126146666Y101337562D02*
X126099047Y101289943D01*
X125527618Y100956610D02*
X125622856Y101004229D01*
X125622856Y101004229D02*
X125670475Y101051848D01*
X125670475Y101051848D02*
X125718094Y101147086D01*
X125718094Y101147086D02*
X125718094Y101194705D01*
X125718094Y101194705D02*
X125670475Y101289943D01*
X125670475Y101289943D02*
X125622856Y101337562D01*
X125622856Y101337562D02*
X125527618Y101385181D01*
X125527618Y101385181D02*
X125337142Y101385181D01*
X125337142Y101385181D02*
X125241904Y101337562D01*
X125241904Y101337562D02*
X125194285Y101289943D01*
X125194285Y101289943D02*
X125146666Y101194705D01*
X125146666Y101194705D02*
X125146666Y101147086D01*
X125146666Y101147086D02*
X125194285Y101051848D01*
X125194285Y101051848D02*
X125241904Y101004229D01*
X125241904Y101004229D02*
X125337142Y100956610D01*
X125337142Y100956610D02*
X125527618Y100956610D01*
X125527618Y100956610D02*
X125622856Y100908991D01*
X125622856Y100908991D02*
X125670475Y100861372D01*
X125670475Y100861372D02*
X125718094Y100766134D01*
X125718094Y100766134D02*
X125718094Y100575658D01*
X125718094Y100575658D02*
X125670475Y100480420D01*
X125670475Y100480420D02*
X125622856Y100432800D01*
X125622856Y100432800D02*
X125527618Y100385181D01*
X125527618Y100385181D02*
X125337142Y100385181D01*
X125337142Y100385181D02*
X125241904Y100432800D01*
X125241904Y100432800D02*
X125194285Y100480420D01*
X125194285Y100480420D02*
X125146666Y100575658D01*
X125146666Y100575658D02*
X125146666Y100766134D01*
X125146666Y100766134D02*
X125194285Y100861372D01*
X125194285Y100861372D02*
X125241904Y100908991D01*
X125241904Y100908991D02*
X125337142Y100956610D01*
X124527618Y101385181D02*
X124432380Y101385181D01*
X124432380Y101385181D02*
X124337142Y101337562D01*
X124337142Y101337562D02*
X124289523Y101289943D01*
X124289523Y101289943D02*
X124241904Y101194705D01*
X124241904Y101194705D02*
X124194285Y101004229D01*
X124194285Y101004229D02*
X124194285Y100766134D01*
X124194285Y100766134D02*
X124241904Y100575658D01*
X124241904Y100575658D02*
X124289523Y100480420D01*
X124289523Y100480420D02*
X124337142Y100432800D01*
X124337142Y100432800D02*
X124432380Y100385181D01*
X124432380Y100385181D02*
X124527618Y100385181D01*
X124527618Y100385181D02*
X124622856Y100432800D01*
X124622856Y100432800D02*
X124670475Y100480420D01*
X124670475Y100480420D02*
X124718094Y100575658D01*
X124718094Y100575658D02*
X124765713Y100766134D01*
X124765713Y100766134D02*
X124765713Y101004229D01*
X124765713Y101004229D02*
X124718094Y101194705D01*
X124718094Y101194705D02*
X124670475Y101289943D01*
X124670475Y101289943D02*
X124622856Y101337562D01*
X124622856Y101337562D02*
X124527618Y101385181D01*
X123860951Y101385181D02*
X123241904Y101385181D01*
X123241904Y101385181D02*
X123575237Y101004229D01*
X123575237Y101004229D02*
X123432380Y101004229D01*
X123432380Y101004229D02*
X123337142Y100956610D01*
X123337142Y100956610D02*
X123289523Y100908991D01*
X123289523Y100908991D02*
X123241904Y100813753D01*
X123241904Y100813753D02*
X123241904Y100575658D01*
X123241904Y100575658D02*
X123289523Y100480420D01*
X123289523Y100480420D02*
X123337142Y100432800D01*
X123337142Y100432800D02*
X123432380Y100385181D01*
X123432380Y100385181D02*
X123718094Y100385181D01*
X123718094Y100385181D02*
X123813332Y100432800D01*
X123813332Y100432800D02*
X123860951Y100480420D01*
X190607142Y112068991D02*
X190940475Y112068991D01*
X190940475Y111545181D02*
X190940475Y112545181D01*
X190940475Y112545181D02*
X190464285Y112545181D01*
X190083332Y111545181D02*
X190083332Y112545181D01*
X190083332Y112545181D02*
X189749999Y111830896D01*
X189749999Y111830896D02*
X189416666Y112545181D01*
X189416666Y112545181D02*
X189416666Y111545181D01*
X188988094Y112449943D02*
X188940475Y112497562D01*
X188940475Y112497562D02*
X188845237Y112545181D01*
X188845237Y112545181D02*
X188607142Y112545181D01*
X188607142Y112545181D02*
X188511904Y112497562D01*
X188511904Y112497562D02*
X188464285Y112449943D01*
X188464285Y112449943D02*
X188416666Y112354705D01*
X188416666Y112354705D02*
X188416666Y112259467D01*
X188416666Y112259467D02*
X188464285Y112116610D01*
X188464285Y112116610D02*
X189035713Y111545181D01*
X189035713Y111545181D02*
X188416666Y111545181D01*
X187797618Y112545181D02*
X187702380Y112545181D01*
X187702380Y112545181D02*
X187607142Y112497562D01*
X187607142Y112497562D02*
X187559523Y112449943D01*
X187559523Y112449943D02*
X187511904Y112354705D01*
X187511904Y112354705D02*
X187464285Y112164229D01*
X187464285Y112164229D02*
X187464285Y111926134D01*
X187464285Y111926134D02*
X187511904Y111735658D01*
X187511904Y111735658D02*
X187559523Y111640420D01*
X187559523Y111640420D02*
X187607142Y111592800D01*
X187607142Y111592800D02*
X187702380Y111545181D01*
X187702380Y111545181D02*
X187797618Y111545181D01*
X187797618Y111545181D02*
X187892856Y111592800D01*
X187892856Y111592800D02*
X187940475Y111640420D01*
X187940475Y111640420D02*
X187988094Y111735658D01*
X187988094Y111735658D02*
X188035713Y111926134D01*
X188035713Y111926134D02*
X188035713Y112164229D01*
X188035713Y112164229D02*
X187988094Y112354705D01*
X187988094Y112354705D02*
X187940475Y112449943D01*
X187940475Y112449943D02*
X187892856Y112497562D01*
X187892856Y112497562D02*
X187797618Y112545181D01*
X186559523Y112545181D02*
X187035713Y112545181D01*
X187035713Y112545181D02*
X187083332Y112068991D01*
X187083332Y112068991D02*
X187035713Y112116610D01*
X187035713Y112116610D02*
X186940475Y112164229D01*
X186940475Y112164229D02*
X186702380Y112164229D01*
X186702380Y112164229D02*
X186607142Y112116610D01*
X186607142Y112116610D02*
X186559523Y112068991D01*
X186559523Y112068991D02*
X186511904Y111973753D01*
X186511904Y111973753D02*
X186511904Y111735658D01*
X186511904Y111735658D02*
X186559523Y111640420D01*
X186559523Y111640420D02*
X186607142Y111592800D01*
X186607142Y111592800D02*
X186702380Y111545181D01*
X186702380Y111545181D02*
X186940475Y111545181D01*
X186940475Y111545181D02*
X187035713Y111592800D01*
X187035713Y111592800D02*
X187083332Y111640420D01*
X95609580Y52619048D02*
X95657200Y52666667D01*
X95657200Y52666667D02*
X95704819Y52809524D01*
X95704819Y52809524D02*
X95704819Y52904762D01*
X95704819Y52904762D02*
X95657200Y53047619D01*
X95657200Y53047619D02*
X95561961Y53142857D01*
X95561961Y53142857D02*
X95466723Y53190476D01*
X95466723Y53190476D02*
X95276247Y53238095D01*
X95276247Y53238095D02*
X95133390Y53238095D01*
X95133390Y53238095D02*
X94942914Y53190476D01*
X94942914Y53190476D02*
X94847676Y53142857D01*
X94847676Y53142857D02*
X94752438Y53047619D01*
X94752438Y53047619D02*
X94704819Y52904762D01*
X94704819Y52904762D02*
X94704819Y52809524D01*
X94704819Y52809524D02*
X94752438Y52666667D01*
X94752438Y52666667D02*
X94800057Y52619048D01*
X95704819Y52142857D02*
X95704819Y51952381D01*
X95704819Y51952381D02*
X95657200Y51857143D01*
X95657200Y51857143D02*
X95609580Y51809524D01*
X95609580Y51809524D02*
X95466723Y51714286D01*
X95466723Y51714286D02*
X95276247Y51666667D01*
X95276247Y51666667D02*
X94895295Y51666667D01*
X94895295Y51666667D02*
X94800057Y51714286D01*
X94800057Y51714286D02*
X94752438Y51761905D01*
X94752438Y51761905D02*
X94704819Y51857143D01*
X94704819Y51857143D02*
X94704819Y52047619D01*
X94704819Y52047619D02*
X94752438Y52142857D01*
X94752438Y52142857D02*
X94800057Y52190476D01*
X94800057Y52190476D02*
X94895295Y52238095D01*
X94895295Y52238095D02*
X95133390Y52238095D01*
X95133390Y52238095D02*
X95228628Y52190476D01*
X95228628Y52190476D02*
X95276247Y52142857D01*
X95276247Y52142857D02*
X95323866Y52047619D01*
X95323866Y52047619D02*
X95323866Y51857143D01*
X95323866Y51857143D02*
X95276247Y51761905D01*
X95276247Y51761905D02*
X95228628Y51714286D01*
X95228628Y51714286D02*
X95133390Y51666667D01*
X94704819Y51047619D02*
X94704819Y50952381D01*
X94704819Y50952381D02*
X94752438Y50857143D01*
X94752438Y50857143D02*
X94800057Y50809524D01*
X94800057Y50809524D02*
X94895295Y50761905D01*
X94895295Y50761905D02*
X95085771Y50714286D01*
X95085771Y50714286D02*
X95323866Y50714286D01*
X95323866Y50714286D02*
X95514342Y50761905D01*
X95514342Y50761905D02*
X95609580Y50809524D01*
X95609580Y50809524D02*
X95657200Y50857143D01*
X95657200Y50857143D02*
X95704819Y50952381D01*
X95704819Y50952381D02*
X95704819Y51047619D01*
X95704819Y51047619D02*
X95657200Y51142857D01*
X95657200Y51142857D02*
X95609580Y51190476D01*
X95609580Y51190476D02*
X95514342Y51238095D01*
X95514342Y51238095D02*
X95323866Y51285714D01*
X95323866Y51285714D02*
X95085771Y51285714D01*
X95085771Y51285714D02*
X94895295Y51238095D01*
X94895295Y51238095D02*
X94800057Y51190476D01*
X94800057Y51190476D02*
X94752438Y51142857D01*
X94752438Y51142857D02*
X94704819Y51047619D01*
X94704819Y49809524D02*
X94704819Y50285714D01*
X94704819Y50285714D02*
X95181009Y50333333D01*
X95181009Y50333333D02*
X95133390Y50285714D01*
X95133390Y50285714D02*
X95085771Y50190476D01*
X95085771Y50190476D02*
X95085771Y49952381D01*
X95085771Y49952381D02*
X95133390Y49857143D01*
X95133390Y49857143D02*
X95181009Y49809524D01*
X95181009Y49809524D02*
X95276247Y49761905D01*
X95276247Y49761905D02*
X95514342Y49761905D01*
X95514342Y49761905D02*
X95609580Y49809524D01*
X95609580Y49809524D02*
X95657200Y49857143D01*
X95657200Y49857143D02*
X95704819Y49952381D01*
X95704819Y49952381D02*
X95704819Y50190476D01*
X95704819Y50190476D02*
X95657200Y50285714D01*
X95657200Y50285714D02*
X95609580Y50333333D01*
X103784819Y47294048D02*
X103308628Y47627381D01*
X103784819Y47865476D02*
X102784819Y47865476D01*
X102784819Y47865476D02*
X102784819Y47484524D01*
X102784819Y47484524D02*
X102832438Y47389286D01*
X102832438Y47389286D02*
X102880057Y47341667D01*
X102880057Y47341667D02*
X102975295Y47294048D01*
X102975295Y47294048D02*
X103118152Y47294048D01*
X103118152Y47294048D02*
X103213390Y47341667D01*
X103213390Y47341667D02*
X103261009Y47389286D01*
X103261009Y47389286D02*
X103308628Y47484524D01*
X103308628Y47484524D02*
X103308628Y47865476D01*
X103784819Y46817857D02*
X103784819Y46627381D01*
X103784819Y46627381D02*
X103737200Y46532143D01*
X103737200Y46532143D02*
X103689580Y46484524D01*
X103689580Y46484524D02*
X103546723Y46389286D01*
X103546723Y46389286D02*
X103356247Y46341667D01*
X103356247Y46341667D02*
X102975295Y46341667D01*
X102975295Y46341667D02*
X102880057Y46389286D01*
X102880057Y46389286D02*
X102832438Y46436905D01*
X102832438Y46436905D02*
X102784819Y46532143D01*
X102784819Y46532143D02*
X102784819Y46722619D01*
X102784819Y46722619D02*
X102832438Y46817857D01*
X102832438Y46817857D02*
X102880057Y46865476D01*
X102880057Y46865476D02*
X102975295Y46913095D01*
X102975295Y46913095D02*
X103213390Y46913095D01*
X103213390Y46913095D02*
X103308628Y46865476D01*
X103308628Y46865476D02*
X103356247Y46817857D01*
X103356247Y46817857D02*
X103403866Y46722619D01*
X103403866Y46722619D02*
X103403866Y46532143D01*
X103403866Y46532143D02*
X103356247Y46436905D01*
X103356247Y46436905D02*
X103308628Y46389286D01*
X103308628Y46389286D02*
X103213390Y46341667D01*
X102784819Y45722619D02*
X102784819Y45627381D01*
X102784819Y45627381D02*
X102832438Y45532143D01*
X102832438Y45532143D02*
X102880057Y45484524D01*
X102880057Y45484524D02*
X102975295Y45436905D01*
X102975295Y45436905D02*
X103165771Y45389286D01*
X103165771Y45389286D02*
X103403866Y45389286D01*
X103403866Y45389286D02*
X103594342Y45436905D01*
X103594342Y45436905D02*
X103689580Y45484524D01*
X103689580Y45484524D02*
X103737200Y45532143D01*
X103737200Y45532143D02*
X103784819Y45627381D01*
X103784819Y45627381D02*
X103784819Y45722619D01*
X103784819Y45722619D02*
X103737200Y45817857D01*
X103737200Y45817857D02*
X103689580Y45865476D01*
X103689580Y45865476D02*
X103594342Y45913095D01*
X103594342Y45913095D02*
X103403866Y45960714D01*
X103403866Y45960714D02*
X103165771Y45960714D01*
X103165771Y45960714D02*
X102975295Y45913095D01*
X102975295Y45913095D02*
X102880057Y45865476D01*
X102880057Y45865476D02*
X102832438Y45817857D01*
X102832438Y45817857D02*
X102784819Y45722619D01*
X103784819Y44913095D02*
X103784819Y44722619D01*
X103784819Y44722619D02*
X103737200Y44627381D01*
X103737200Y44627381D02*
X103689580Y44579762D01*
X103689580Y44579762D02*
X103546723Y44484524D01*
X103546723Y44484524D02*
X103356247Y44436905D01*
X103356247Y44436905D02*
X102975295Y44436905D01*
X102975295Y44436905D02*
X102880057Y44484524D01*
X102880057Y44484524D02*
X102832438Y44532143D01*
X102832438Y44532143D02*
X102784819Y44627381D01*
X102784819Y44627381D02*
X102784819Y44817857D01*
X102784819Y44817857D02*
X102832438Y44913095D01*
X102832438Y44913095D02*
X102880057Y44960714D01*
X102880057Y44960714D02*
X102975295Y45008333D01*
X102975295Y45008333D02*
X103213390Y45008333D01*
X103213390Y45008333D02*
X103308628Y44960714D01*
X103308628Y44960714D02*
X103356247Y44913095D01*
X103356247Y44913095D02*
X103403866Y44817857D01*
X103403866Y44817857D02*
X103403866Y44627381D01*
X103403866Y44627381D02*
X103356247Y44532143D01*
X103356247Y44532143D02*
X103308628Y44484524D01*
X103308628Y44484524D02*
X103213390Y44436905D01*
X124699580Y96849048D02*
X124747200Y96896667D01*
X124747200Y96896667D02*
X124794819Y97039524D01*
X124794819Y97039524D02*
X124794819Y97134762D01*
X124794819Y97134762D02*
X124747200Y97277619D01*
X124747200Y97277619D02*
X124651961Y97372857D01*
X124651961Y97372857D02*
X124556723Y97420476D01*
X124556723Y97420476D02*
X124366247Y97468095D01*
X124366247Y97468095D02*
X124223390Y97468095D01*
X124223390Y97468095D02*
X124032914Y97420476D01*
X124032914Y97420476D02*
X123937676Y97372857D01*
X123937676Y97372857D02*
X123842438Y97277619D01*
X123842438Y97277619D02*
X123794819Y97134762D01*
X123794819Y97134762D02*
X123794819Y97039524D01*
X123794819Y97039524D02*
X123842438Y96896667D01*
X123842438Y96896667D02*
X123890057Y96849048D01*
X124223390Y96277619D02*
X124175771Y96372857D01*
X124175771Y96372857D02*
X124128152Y96420476D01*
X124128152Y96420476D02*
X124032914Y96468095D01*
X124032914Y96468095D02*
X123985295Y96468095D01*
X123985295Y96468095D02*
X123890057Y96420476D01*
X123890057Y96420476D02*
X123842438Y96372857D01*
X123842438Y96372857D02*
X123794819Y96277619D01*
X123794819Y96277619D02*
X123794819Y96087143D01*
X123794819Y96087143D02*
X123842438Y95991905D01*
X123842438Y95991905D02*
X123890057Y95944286D01*
X123890057Y95944286D02*
X123985295Y95896667D01*
X123985295Y95896667D02*
X124032914Y95896667D01*
X124032914Y95896667D02*
X124128152Y95944286D01*
X124128152Y95944286D02*
X124175771Y95991905D01*
X124175771Y95991905D02*
X124223390Y96087143D01*
X124223390Y96087143D02*
X124223390Y96277619D01*
X124223390Y96277619D02*
X124271009Y96372857D01*
X124271009Y96372857D02*
X124318628Y96420476D01*
X124318628Y96420476D02*
X124413866Y96468095D01*
X124413866Y96468095D02*
X124604342Y96468095D01*
X124604342Y96468095D02*
X124699580Y96420476D01*
X124699580Y96420476D02*
X124747200Y96372857D01*
X124747200Y96372857D02*
X124794819Y96277619D01*
X124794819Y96277619D02*
X124794819Y96087143D01*
X124794819Y96087143D02*
X124747200Y95991905D01*
X124747200Y95991905D02*
X124699580Y95944286D01*
X124699580Y95944286D02*
X124604342Y95896667D01*
X124604342Y95896667D02*
X124413866Y95896667D01*
X124413866Y95896667D02*
X124318628Y95944286D01*
X124318628Y95944286D02*
X124271009Y95991905D01*
X124271009Y95991905D02*
X124223390Y96087143D01*
X123794819Y95277619D02*
X123794819Y95182381D01*
X123794819Y95182381D02*
X123842438Y95087143D01*
X123842438Y95087143D02*
X123890057Y95039524D01*
X123890057Y95039524D02*
X123985295Y94991905D01*
X123985295Y94991905D02*
X124175771Y94944286D01*
X124175771Y94944286D02*
X124413866Y94944286D01*
X124413866Y94944286D02*
X124604342Y94991905D01*
X124604342Y94991905D02*
X124699580Y95039524D01*
X124699580Y95039524D02*
X124747200Y95087143D01*
X124747200Y95087143D02*
X124794819Y95182381D01*
X124794819Y95182381D02*
X124794819Y95277619D01*
X124794819Y95277619D02*
X124747200Y95372857D01*
X124747200Y95372857D02*
X124699580Y95420476D01*
X124699580Y95420476D02*
X124604342Y95468095D01*
X124604342Y95468095D02*
X124413866Y95515714D01*
X124413866Y95515714D02*
X124175771Y95515714D01*
X124175771Y95515714D02*
X123985295Y95468095D01*
X123985295Y95468095D02*
X123890057Y95420476D01*
X123890057Y95420476D02*
X123842438Y95372857D01*
X123842438Y95372857D02*
X123794819Y95277619D01*
X124223390Y94372857D02*
X124175771Y94468095D01*
X124175771Y94468095D02*
X124128152Y94515714D01*
X124128152Y94515714D02*
X124032914Y94563333D01*
X124032914Y94563333D02*
X123985295Y94563333D01*
X123985295Y94563333D02*
X123890057Y94515714D01*
X123890057Y94515714D02*
X123842438Y94468095D01*
X123842438Y94468095D02*
X123794819Y94372857D01*
X123794819Y94372857D02*
X123794819Y94182381D01*
X123794819Y94182381D02*
X123842438Y94087143D01*
X123842438Y94087143D02*
X123890057Y94039524D01*
X123890057Y94039524D02*
X123985295Y93991905D01*
X123985295Y93991905D02*
X124032914Y93991905D01*
X124032914Y93991905D02*
X124128152Y94039524D01*
X124128152Y94039524D02*
X124175771Y94087143D01*
X124175771Y94087143D02*
X124223390Y94182381D01*
X124223390Y94182381D02*
X124223390Y94372857D01*
X124223390Y94372857D02*
X124271009Y94468095D01*
X124271009Y94468095D02*
X124318628Y94515714D01*
X124318628Y94515714D02*
X124413866Y94563333D01*
X124413866Y94563333D02*
X124604342Y94563333D01*
X124604342Y94563333D02*
X124699580Y94515714D01*
X124699580Y94515714D02*
X124747200Y94468095D01*
X124747200Y94468095D02*
X124794819Y94372857D01*
X124794819Y94372857D02*
X124794819Y94182381D01*
X124794819Y94182381D02*
X124747200Y94087143D01*
X124747200Y94087143D02*
X124699580Y94039524D01*
X124699580Y94039524D02*
X124604342Y93991905D01*
X124604342Y93991905D02*
X124413866Y93991905D01*
X124413866Y93991905D02*
X124318628Y94039524D01*
X124318628Y94039524D02*
X124271009Y94087143D01*
X124271009Y94087143D02*
X124223390Y94182381D01*
X140704819Y105869048D02*
X140228628Y106202381D01*
X140704819Y106440476D02*
X139704819Y106440476D01*
X139704819Y106440476D02*
X139704819Y106059524D01*
X139704819Y106059524D02*
X139752438Y105964286D01*
X139752438Y105964286D02*
X139800057Y105916667D01*
X139800057Y105916667D02*
X139895295Y105869048D01*
X139895295Y105869048D02*
X140038152Y105869048D01*
X140038152Y105869048D02*
X140133390Y105916667D01*
X140133390Y105916667D02*
X140181009Y105964286D01*
X140181009Y105964286D02*
X140228628Y106059524D01*
X140228628Y106059524D02*
X140228628Y106440476D01*
X140133390Y105297619D02*
X140085771Y105392857D01*
X140085771Y105392857D02*
X140038152Y105440476D01*
X140038152Y105440476D02*
X139942914Y105488095D01*
X139942914Y105488095D02*
X139895295Y105488095D01*
X139895295Y105488095D02*
X139800057Y105440476D01*
X139800057Y105440476D02*
X139752438Y105392857D01*
X139752438Y105392857D02*
X139704819Y105297619D01*
X139704819Y105297619D02*
X139704819Y105107143D01*
X139704819Y105107143D02*
X139752438Y105011905D01*
X139752438Y105011905D02*
X139800057Y104964286D01*
X139800057Y104964286D02*
X139895295Y104916667D01*
X139895295Y104916667D02*
X139942914Y104916667D01*
X139942914Y104916667D02*
X140038152Y104964286D01*
X140038152Y104964286D02*
X140085771Y105011905D01*
X140085771Y105011905D02*
X140133390Y105107143D01*
X140133390Y105107143D02*
X140133390Y105297619D01*
X140133390Y105297619D02*
X140181009Y105392857D01*
X140181009Y105392857D02*
X140228628Y105440476D01*
X140228628Y105440476D02*
X140323866Y105488095D01*
X140323866Y105488095D02*
X140514342Y105488095D01*
X140514342Y105488095D02*
X140609580Y105440476D01*
X140609580Y105440476D02*
X140657200Y105392857D01*
X140657200Y105392857D02*
X140704819Y105297619D01*
X140704819Y105297619D02*
X140704819Y105107143D01*
X140704819Y105107143D02*
X140657200Y105011905D01*
X140657200Y105011905D02*
X140609580Y104964286D01*
X140609580Y104964286D02*
X140514342Y104916667D01*
X140514342Y104916667D02*
X140323866Y104916667D01*
X140323866Y104916667D02*
X140228628Y104964286D01*
X140228628Y104964286D02*
X140181009Y105011905D01*
X140181009Y105011905D02*
X140133390Y105107143D01*
X140704819Y103964286D02*
X140704819Y104535714D01*
X140704819Y104250000D02*
X139704819Y104250000D01*
X139704819Y104250000D02*
X139847676Y104345238D01*
X139847676Y104345238D02*
X139942914Y104440476D01*
X139942914Y104440476D02*
X139990533Y104535714D01*
X140133390Y103392857D02*
X140085771Y103488095D01*
X140085771Y103488095D02*
X140038152Y103535714D01*
X140038152Y103535714D02*
X139942914Y103583333D01*
X139942914Y103583333D02*
X139895295Y103583333D01*
X139895295Y103583333D02*
X139800057Y103535714D01*
X139800057Y103535714D02*
X139752438Y103488095D01*
X139752438Y103488095D02*
X139704819Y103392857D01*
X139704819Y103392857D02*
X139704819Y103202381D01*
X139704819Y103202381D02*
X139752438Y103107143D01*
X139752438Y103107143D02*
X139800057Y103059524D01*
X139800057Y103059524D02*
X139895295Y103011905D01*
X139895295Y103011905D02*
X139942914Y103011905D01*
X139942914Y103011905D02*
X140038152Y103059524D01*
X140038152Y103059524D02*
X140085771Y103107143D01*
X140085771Y103107143D02*
X140133390Y103202381D01*
X140133390Y103202381D02*
X140133390Y103392857D01*
X140133390Y103392857D02*
X140181009Y103488095D01*
X140181009Y103488095D02*
X140228628Y103535714D01*
X140228628Y103535714D02*
X140323866Y103583333D01*
X140323866Y103583333D02*
X140514342Y103583333D01*
X140514342Y103583333D02*
X140609580Y103535714D01*
X140609580Y103535714D02*
X140657200Y103488095D01*
X140657200Y103488095D02*
X140704819Y103392857D01*
X140704819Y103392857D02*
X140704819Y103202381D01*
X140704819Y103202381D02*
X140657200Y103107143D01*
X140657200Y103107143D02*
X140609580Y103059524D01*
X140609580Y103059524D02*
X140514342Y103011905D01*
X140514342Y103011905D02*
X140323866Y103011905D01*
X140323866Y103011905D02*
X140228628Y103059524D01*
X140228628Y103059524D02*
X140181009Y103107143D01*
X140181009Y103107143D02*
X140133390Y103202381D01*
X149619047Y101800420D02*
X149666666Y101752800D01*
X149666666Y101752800D02*
X149809523Y101705181D01*
X149809523Y101705181D02*
X149904761Y101705181D01*
X149904761Y101705181D02*
X150047618Y101752800D01*
X150047618Y101752800D02*
X150142856Y101848039D01*
X150142856Y101848039D02*
X150190475Y101943277D01*
X150190475Y101943277D02*
X150238094Y102133753D01*
X150238094Y102133753D02*
X150238094Y102276610D01*
X150238094Y102276610D02*
X150190475Y102467086D01*
X150190475Y102467086D02*
X150142856Y102562324D01*
X150142856Y102562324D02*
X150047618Y102657562D01*
X150047618Y102657562D02*
X149904761Y102705181D01*
X149904761Y102705181D02*
X149809523Y102705181D01*
X149809523Y102705181D02*
X149666666Y102657562D01*
X149666666Y102657562D02*
X149619047Y102609943D01*
X149047618Y102276610D02*
X149142856Y102324229D01*
X149142856Y102324229D02*
X149190475Y102371848D01*
X149190475Y102371848D02*
X149238094Y102467086D01*
X149238094Y102467086D02*
X149238094Y102514705D01*
X149238094Y102514705D02*
X149190475Y102609943D01*
X149190475Y102609943D02*
X149142856Y102657562D01*
X149142856Y102657562D02*
X149047618Y102705181D01*
X149047618Y102705181D02*
X148857142Y102705181D01*
X148857142Y102705181D02*
X148761904Y102657562D01*
X148761904Y102657562D02*
X148714285Y102609943D01*
X148714285Y102609943D02*
X148666666Y102514705D01*
X148666666Y102514705D02*
X148666666Y102467086D01*
X148666666Y102467086D02*
X148714285Y102371848D01*
X148714285Y102371848D02*
X148761904Y102324229D01*
X148761904Y102324229D02*
X148857142Y102276610D01*
X148857142Y102276610D02*
X149047618Y102276610D01*
X149047618Y102276610D02*
X149142856Y102228991D01*
X149142856Y102228991D02*
X149190475Y102181372D01*
X149190475Y102181372D02*
X149238094Y102086134D01*
X149238094Y102086134D02*
X149238094Y101895658D01*
X149238094Y101895658D02*
X149190475Y101800420D01*
X149190475Y101800420D02*
X149142856Y101752800D01*
X149142856Y101752800D02*
X149047618Y101705181D01*
X149047618Y101705181D02*
X148857142Y101705181D01*
X148857142Y101705181D02*
X148761904Y101752800D01*
X148761904Y101752800D02*
X148714285Y101800420D01*
X148714285Y101800420D02*
X148666666Y101895658D01*
X148666666Y101895658D02*
X148666666Y102086134D01*
X148666666Y102086134D02*
X148714285Y102181372D01*
X148714285Y102181372D02*
X148761904Y102228991D01*
X148761904Y102228991D02*
X148857142Y102276610D01*
X147714285Y101705181D02*
X148285713Y101705181D01*
X147999999Y101705181D02*
X147999999Y102705181D01*
X147999999Y102705181D02*
X148095237Y102562324D01*
X148095237Y102562324D02*
X148190475Y102467086D01*
X148190475Y102467086D02*
X148285713Y102419467D01*
X147095237Y102705181D02*
X146999999Y102705181D01*
X146999999Y102705181D02*
X146904761Y102657562D01*
X146904761Y102657562D02*
X146857142Y102609943D01*
X146857142Y102609943D02*
X146809523Y102514705D01*
X146809523Y102514705D02*
X146761904Y102324229D01*
X146761904Y102324229D02*
X146761904Y102086134D01*
X146761904Y102086134D02*
X146809523Y101895658D01*
X146809523Y101895658D02*
X146857142Y101800420D01*
X146857142Y101800420D02*
X146904761Y101752800D01*
X146904761Y101752800D02*
X146999999Y101705181D01*
X146999999Y101705181D02*
X147095237Y101705181D01*
X147095237Y101705181D02*
X147190475Y101752800D01*
X147190475Y101752800D02*
X147238094Y101800420D01*
X147238094Y101800420D02*
X147285713Y101895658D01*
X147285713Y101895658D02*
X147333332Y102086134D01*
X147333332Y102086134D02*
X147333332Y102324229D01*
X147333332Y102324229D02*
X147285713Y102514705D01*
X147285713Y102514705D02*
X147238094Y102609943D01*
X147238094Y102609943D02*
X147190475Y102657562D01*
X147190475Y102657562D02*
X147095237Y102705181D01*
X90609580Y47599048D02*
X90657200Y47646667D01*
X90657200Y47646667D02*
X90704819Y47789524D01*
X90704819Y47789524D02*
X90704819Y47884762D01*
X90704819Y47884762D02*
X90657200Y48027619D01*
X90657200Y48027619D02*
X90561961Y48122857D01*
X90561961Y48122857D02*
X90466723Y48170476D01*
X90466723Y48170476D02*
X90276247Y48218095D01*
X90276247Y48218095D02*
X90133390Y48218095D01*
X90133390Y48218095D02*
X89942914Y48170476D01*
X89942914Y48170476D02*
X89847676Y48122857D01*
X89847676Y48122857D02*
X89752438Y48027619D01*
X89752438Y48027619D02*
X89704819Y47884762D01*
X89704819Y47884762D02*
X89704819Y47789524D01*
X89704819Y47789524D02*
X89752438Y47646667D01*
X89752438Y47646667D02*
X89800057Y47599048D01*
X90704819Y47122857D02*
X90704819Y46932381D01*
X90704819Y46932381D02*
X90657200Y46837143D01*
X90657200Y46837143D02*
X90609580Y46789524D01*
X90609580Y46789524D02*
X90466723Y46694286D01*
X90466723Y46694286D02*
X90276247Y46646667D01*
X90276247Y46646667D02*
X89895295Y46646667D01*
X89895295Y46646667D02*
X89800057Y46694286D01*
X89800057Y46694286D02*
X89752438Y46741905D01*
X89752438Y46741905D02*
X89704819Y46837143D01*
X89704819Y46837143D02*
X89704819Y47027619D01*
X89704819Y47027619D02*
X89752438Y47122857D01*
X89752438Y47122857D02*
X89800057Y47170476D01*
X89800057Y47170476D02*
X89895295Y47218095D01*
X89895295Y47218095D02*
X90133390Y47218095D01*
X90133390Y47218095D02*
X90228628Y47170476D01*
X90228628Y47170476D02*
X90276247Y47122857D01*
X90276247Y47122857D02*
X90323866Y47027619D01*
X90323866Y47027619D02*
X90323866Y46837143D01*
X90323866Y46837143D02*
X90276247Y46741905D01*
X90276247Y46741905D02*
X90228628Y46694286D01*
X90228628Y46694286D02*
X90133390Y46646667D01*
X89704819Y46027619D02*
X89704819Y45932381D01*
X89704819Y45932381D02*
X89752438Y45837143D01*
X89752438Y45837143D02*
X89800057Y45789524D01*
X89800057Y45789524D02*
X89895295Y45741905D01*
X89895295Y45741905D02*
X90085771Y45694286D01*
X90085771Y45694286D02*
X90323866Y45694286D01*
X90323866Y45694286D02*
X90514342Y45741905D01*
X90514342Y45741905D02*
X90609580Y45789524D01*
X90609580Y45789524D02*
X90657200Y45837143D01*
X90657200Y45837143D02*
X90704819Y45932381D01*
X90704819Y45932381D02*
X90704819Y46027619D01*
X90704819Y46027619D02*
X90657200Y46122857D01*
X90657200Y46122857D02*
X90609580Y46170476D01*
X90609580Y46170476D02*
X90514342Y46218095D01*
X90514342Y46218095D02*
X90323866Y46265714D01*
X90323866Y46265714D02*
X90085771Y46265714D01*
X90085771Y46265714D02*
X89895295Y46218095D01*
X89895295Y46218095D02*
X89800057Y46170476D01*
X89800057Y46170476D02*
X89752438Y46122857D01*
X89752438Y46122857D02*
X89704819Y46027619D01*
X89800057Y45313333D02*
X89752438Y45265714D01*
X89752438Y45265714D02*
X89704819Y45170476D01*
X89704819Y45170476D02*
X89704819Y44932381D01*
X89704819Y44932381D02*
X89752438Y44837143D01*
X89752438Y44837143D02*
X89800057Y44789524D01*
X89800057Y44789524D02*
X89895295Y44741905D01*
X89895295Y44741905D02*
X89990533Y44741905D01*
X89990533Y44741905D02*
X90133390Y44789524D01*
X90133390Y44789524D02*
X90704819Y45360952D01*
X90704819Y45360952D02*
X90704819Y44741905D01*
X107884819Y47044048D02*
X107408628Y47377381D01*
X107884819Y47615476D02*
X106884819Y47615476D01*
X106884819Y47615476D02*
X106884819Y47234524D01*
X106884819Y47234524D02*
X106932438Y47139286D01*
X106932438Y47139286D02*
X106980057Y47091667D01*
X106980057Y47091667D02*
X107075295Y47044048D01*
X107075295Y47044048D02*
X107218152Y47044048D01*
X107218152Y47044048D02*
X107313390Y47091667D01*
X107313390Y47091667D02*
X107361009Y47139286D01*
X107361009Y47139286D02*
X107408628Y47234524D01*
X107408628Y47234524D02*
X107408628Y47615476D01*
X107884819Y46567857D02*
X107884819Y46377381D01*
X107884819Y46377381D02*
X107837200Y46282143D01*
X107837200Y46282143D02*
X107789580Y46234524D01*
X107789580Y46234524D02*
X107646723Y46139286D01*
X107646723Y46139286D02*
X107456247Y46091667D01*
X107456247Y46091667D02*
X107075295Y46091667D01*
X107075295Y46091667D02*
X106980057Y46139286D01*
X106980057Y46139286D02*
X106932438Y46186905D01*
X106932438Y46186905D02*
X106884819Y46282143D01*
X106884819Y46282143D02*
X106884819Y46472619D01*
X106884819Y46472619D02*
X106932438Y46567857D01*
X106932438Y46567857D02*
X106980057Y46615476D01*
X106980057Y46615476D02*
X107075295Y46663095D01*
X107075295Y46663095D02*
X107313390Y46663095D01*
X107313390Y46663095D02*
X107408628Y46615476D01*
X107408628Y46615476D02*
X107456247Y46567857D01*
X107456247Y46567857D02*
X107503866Y46472619D01*
X107503866Y46472619D02*
X107503866Y46282143D01*
X107503866Y46282143D02*
X107456247Y46186905D01*
X107456247Y46186905D02*
X107408628Y46139286D01*
X107408628Y46139286D02*
X107313390Y46091667D01*
X106980057Y45710714D02*
X106932438Y45663095D01*
X106932438Y45663095D02*
X106884819Y45567857D01*
X106884819Y45567857D02*
X106884819Y45329762D01*
X106884819Y45329762D02*
X106932438Y45234524D01*
X106932438Y45234524D02*
X106980057Y45186905D01*
X106980057Y45186905D02*
X107075295Y45139286D01*
X107075295Y45139286D02*
X107170533Y45139286D01*
X107170533Y45139286D02*
X107313390Y45186905D01*
X107313390Y45186905D02*
X107884819Y45758333D01*
X107884819Y45758333D02*
X107884819Y45139286D01*
X106980057Y44758333D02*
X106932438Y44710714D01*
X106932438Y44710714D02*
X106884819Y44615476D01*
X106884819Y44615476D02*
X106884819Y44377381D01*
X106884819Y44377381D02*
X106932438Y44282143D01*
X106932438Y44282143D02*
X106980057Y44234524D01*
X106980057Y44234524D02*
X107075295Y44186905D01*
X107075295Y44186905D02*
X107170533Y44186905D01*
X107170533Y44186905D02*
X107313390Y44234524D01*
X107313390Y44234524D02*
X107884819Y44805952D01*
X107884819Y44805952D02*
X107884819Y44186905D01*
X149619047Y31795181D02*
X149952380Y32271372D01*
X150190475Y31795181D02*
X150190475Y32795181D01*
X150190475Y32795181D02*
X149809523Y32795181D01*
X149809523Y32795181D02*
X149714285Y32747562D01*
X149714285Y32747562D02*
X149666666Y32699943D01*
X149666666Y32699943D02*
X149619047Y32604705D01*
X149619047Y32604705D02*
X149619047Y32461848D01*
X149619047Y32461848D02*
X149666666Y32366610D01*
X149666666Y32366610D02*
X149714285Y32318991D01*
X149714285Y32318991D02*
X149809523Y32271372D01*
X149809523Y32271372D02*
X150190475Y32271372D01*
X148761904Y32461848D02*
X148761904Y31795181D01*
X148999999Y32842800D02*
X149238094Y32128515D01*
X149238094Y32128515D02*
X148619047Y32128515D01*
X148047618Y32795181D02*
X147952380Y32795181D01*
X147952380Y32795181D02*
X147857142Y32747562D01*
X147857142Y32747562D02*
X147809523Y32699943D01*
X147809523Y32699943D02*
X147761904Y32604705D01*
X147761904Y32604705D02*
X147714285Y32414229D01*
X147714285Y32414229D02*
X147714285Y32176134D01*
X147714285Y32176134D02*
X147761904Y31985658D01*
X147761904Y31985658D02*
X147809523Y31890420D01*
X147809523Y31890420D02*
X147857142Y31842800D01*
X147857142Y31842800D02*
X147952380Y31795181D01*
X147952380Y31795181D02*
X148047618Y31795181D01*
X148047618Y31795181D02*
X148142856Y31842800D01*
X148142856Y31842800D02*
X148190475Y31890420D01*
X148190475Y31890420D02*
X148238094Y31985658D01*
X148238094Y31985658D02*
X148285713Y32176134D01*
X148285713Y32176134D02*
X148285713Y32414229D01*
X148285713Y32414229D02*
X148238094Y32604705D01*
X148238094Y32604705D02*
X148190475Y32699943D01*
X148190475Y32699943D02*
X148142856Y32747562D01*
X148142856Y32747562D02*
X148047618Y32795181D01*
X147238094Y31795181D02*
X147047618Y31795181D01*
X147047618Y31795181D02*
X146952380Y31842800D01*
X146952380Y31842800D02*
X146904761Y31890420D01*
X146904761Y31890420D02*
X146809523Y32033277D01*
X146809523Y32033277D02*
X146761904Y32223753D01*
X146761904Y32223753D02*
X146761904Y32604705D01*
X146761904Y32604705D02*
X146809523Y32699943D01*
X146809523Y32699943D02*
X146857142Y32747562D01*
X146857142Y32747562D02*
X146952380Y32795181D01*
X146952380Y32795181D02*
X147142856Y32795181D01*
X147142856Y32795181D02*
X147238094Y32747562D01*
X147238094Y32747562D02*
X147285713Y32699943D01*
X147285713Y32699943D02*
X147333332Y32604705D01*
X147333332Y32604705D02*
X147333332Y32366610D01*
X147333332Y32366610D02*
X147285713Y32271372D01*
X147285713Y32271372D02*
X147238094Y32223753D01*
X147238094Y32223753D02*
X147142856Y32176134D01*
X147142856Y32176134D02*
X146952380Y32176134D01*
X146952380Y32176134D02*
X146857142Y32223753D01*
X146857142Y32223753D02*
X146809523Y32271372D01*
X146809523Y32271372D02*
X146761904Y32366610D01*
X122789580Y104344048D02*
X122837200Y104391667D01*
X122837200Y104391667D02*
X122884819Y104534524D01*
X122884819Y104534524D02*
X122884819Y104629762D01*
X122884819Y104629762D02*
X122837200Y104772619D01*
X122837200Y104772619D02*
X122741961Y104867857D01*
X122741961Y104867857D02*
X122646723Y104915476D01*
X122646723Y104915476D02*
X122456247Y104963095D01*
X122456247Y104963095D02*
X122313390Y104963095D01*
X122313390Y104963095D02*
X122122914Y104915476D01*
X122122914Y104915476D02*
X122027676Y104867857D01*
X122027676Y104867857D02*
X121932438Y104772619D01*
X121932438Y104772619D02*
X121884819Y104629762D01*
X121884819Y104629762D02*
X121884819Y104534524D01*
X121884819Y104534524D02*
X121932438Y104391667D01*
X121932438Y104391667D02*
X121980057Y104344048D01*
X122313390Y103772619D02*
X122265771Y103867857D01*
X122265771Y103867857D02*
X122218152Y103915476D01*
X122218152Y103915476D02*
X122122914Y103963095D01*
X122122914Y103963095D02*
X122075295Y103963095D01*
X122075295Y103963095D02*
X121980057Y103915476D01*
X121980057Y103915476D02*
X121932438Y103867857D01*
X121932438Y103867857D02*
X121884819Y103772619D01*
X121884819Y103772619D02*
X121884819Y103582143D01*
X121884819Y103582143D02*
X121932438Y103486905D01*
X121932438Y103486905D02*
X121980057Y103439286D01*
X121980057Y103439286D02*
X122075295Y103391667D01*
X122075295Y103391667D02*
X122122914Y103391667D01*
X122122914Y103391667D02*
X122218152Y103439286D01*
X122218152Y103439286D02*
X122265771Y103486905D01*
X122265771Y103486905D02*
X122313390Y103582143D01*
X122313390Y103582143D02*
X122313390Y103772619D01*
X122313390Y103772619D02*
X122361009Y103867857D01*
X122361009Y103867857D02*
X122408628Y103915476D01*
X122408628Y103915476D02*
X122503866Y103963095D01*
X122503866Y103963095D02*
X122694342Y103963095D01*
X122694342Y103963095D02*
X122789580Y103915476D01*
X122789580Y103915476D02*
X122837200Y103867857D01*
X122837200Y103867857D02*
X122884819Y103772619D01*
X122884819Y103772619D02*
X122884819Y103582143D01*
X122884819Y103582143D02*
X122837200Y103486905D01*
X122837200Y103486905D02*
X122789580Y103439286D01*
X122789580Y103439286D02*
X122694342Y103391667D01*
X122694342Y103391667D02*
X122503866Y103391667D01*
X122503866Y103391667D02*
X122408628Y103439286D01*
X122408628Y103439286D02*
X122361009Y103486905D01*
X122361009Y103486905D02*
X122313390Y103582143D01*
X121884819Y102772619D02*
X121884819Y102677381D01*
X121884819Y102677381D02*
X121932438Y102582143D01*
X121932438Y102582143D02*
X121980057Y102534524D01*
X121980057Y102534524D02*
X122075295Y102486905D01*
X122075295Y102486905D02*
X122265771Y102439286D01*
X122265771Y102439286D02*
X122503866Y102439286D01*
X122503866Y102439286D02*
X122694342Y102486905D01*
X122694342Y102486905D02*
X122789580Y102534524D01*
X122789580Y102534524D02*
X122837200Y102582143D01*
X122837200Y102582143D02*
X122884819Y102677381D01*
X122884819Y102677381D02*
X122884819Y102772619D01*
X122884819Y102772619D02*
X122837200Y102867857D01*
X122837200Y102867857D02*
X122789580Y102915476D01*
X122789580Y102915476D02*
X122694342Y102963095D01*
X122694342Y102963095D02*
X122503866Y103010714D01*
X122503866Y103010714D02*
X122265771Y103010714D01*
X122265771Y103010714D02*
X122075295Y102963095D01*
X122075295Y102963095D02*
X121980057Y102915476D01*
X121980057Y102915476D02*
X121932438Y102867857D01*
X121932438Y102867857D02*
X121884819Y102772619D01*
X121884819Y101534524D02*
X121884819Y102010714D01*
X121884819Y102010714D02*
X122361009Y102058333D01*
X122361009Y102058333D02*
X122313390Y102010714D01*
X122313390Y102010714D02*
X122265771Y101915476D01*
X122265771Y101915476D02*
X122265771Y101677381D01*
X122265771Y101677381D02*
X122313390Y101582143D01*
X122313390Y101582143D02*
X122361009Y101534524D01*
X122361009Y101534524D02*
X122456247Y101486905D01*
X122456247Y101486905D02*
X122694342Y101486905D01*
X122694342Y101486905D02*
X122789580Y101534524D01*
X122789580Y101534524D02*
X122837200Y101582143D01*
X122837200Y101582143D02*
X122884819Y101677381D01*
X122884819Y101677381D02*
X122884819Y101915476D01*
X122884819Y101915476D02*
X122837200Y102010714D01*
X122837200Y102010714D02*
X122789580Y102058333D01*
X13107142Y7068991D02*
X13440475Y7068991D01*
X13440475Y6545181D02*
X13440475Y7545181D01*
X13440475Y7545181D02*
X12964285Y7545181D01*
X12583332Y6545181D02*
X12583332Y7545181D01*
X12583332Y7545181D02*
X12249999Y6830896D01*
X12249999Y6830896D02*
X11916666Y7545181D01*
X11916666Y7545181D02*
X11916666Y6545181D01*
X11488094Y7449943D02*
X11440475Y7497562D01*
X11440475Y7497562D02*
X11345237Y7545181D01*
X11345237Y7545181D02*
X11107142Y7545181D01*
X11107142Y7545181D02*
X11011904Y7497562D01*
X11011904Y7497562D02*
X10964285Y7449943D01*
X10964285Y7449943D02*
X10916666Y7354705D01*
X10916666Y7354705D02*
X10916666Y7259467D01*
X10916666Y7259467D02*
X10964285Y7116610D01*
X10964285Y7116610D02*
X11535713Y6545181D01*
X11535713Y6545181D02*
X10916666Y6545181D01*
X10297618Y7545181D02*
X10202380Y7545181D01*
X10202380Y7545181D02*
X10107142Y7497562D01*
X10107142Y7497562D02*
X10059523Y7449943D01*
X10059523Y7449943D02*
X10011904Y7354705D01*
X10011904Y7354705D02*
X9964285Y7164229D01*
X9964285Y7164229D02*
X9964285Y6926134D01*
X9964285Y6926134D02*
X10011904Y6735658D01*
X10011904Y6735658D02*
X10059523Y6640420D01*
X10059523Y6640420D02*
X10107142Y6592800D01*
X10107142Y6592800D02*
X10202380Y6545181D01*
X10202380Y6545181D02*
X10297618Y6545181D01*
X10297618Y6545181D02*
X10392856Y6592800D01*
X10392856Y6592800D02*
X10440475Y6640420D01*
X10440475Y6640420D02*
X10488094Y6735658D01*
X10488094Y6735658D02*
X10535713Y6926134D01*
X10535713Y6926134D02*
X10535713Y7164229D01*
X10535713Y7164229D02*
X10488094Y7354705D01*
X10488094Y7354705D02*
X10440475Y7449943D01*
X10440475Y7449943D02*
X10392856Y7497562D01*
X10392856Y7497562D02*
X10297618Y7545181D01*
X9107142Y7545181D02*
X9297618Y7545181D01*
X9297618Y7545181D02*
X9392856Y7497562D01*
X9392856Y7497562D02*
X9440475Y7449943D01*
X9440475Y7449943D02*
X9535713Y7307086D01*
X9535713Y7307086D02*
X9583332Y7116610D01*
X9583332Y7116610D02*
X9583332Y6735658D01*
X9583332Y6735658D02*
X9535713Y6640420D01*
X9535713Y6640420D02*
X9488094Y6592800D01*
X9488094Y6592800D02*
X9392856Y6545181D01*
X9392856Y6545181D02*
X9202380Y6545181D01*
X9202380Y6545181D02*
X9107142Y6592800D01*
X9107142Y6592800D02*
X9059523Y6640420D01*
X9059523Y6640420D02*
X9011904Y6735658D01*
X9011904Y6735658D02*
X9011904Y6973753D01*
X9011904Y6973753D02*
X9059523Y7068991D01*
X9059523Y7068991D02*
X9107142Y7116610D01*
X9107142Y7116610D02*
X9202380Y7164229D01*
X9202380Y7164229D02*
X9392856Y7164229D01*
X9392856Y7164229D02*
X9488094Y7116610D01*
X9488094Y7116610D02*
X9535713Y7068991D01*
X9535713Y7068991D02*
X9583332Y6973753D01*
X95119047Y46800420D02*
X95166666Y46752800D01*
X95166666Y46752800D02*
X95309523Y46705181D01*
X95309523Y46705181D02*
X95404761Y46705181D01*
X95404761Y46705181D02*
X95547618Y46752800D01*
X95547618Y46752800D02*
X95642856Y46848039D01*
X95642856Y46848039D02*
X95690475Y46943277D01*
X95690475Y46943277D02*
X95738094Y47133753D01*
X95738094Y47133753D02*
X95738094Y47276610D01*
X95738094Y47276610D02*
X95690475Y47467086D01*
X95690475Y47467086D02*
X95642856Y47562324D01*
X95642856Y47562324D02*
X95547618Y47657562D01*
X95547618Y47657562D02*
X95404761Y47705181D01*
X95404761Y47705181D02*
X95309523Y47705181D01*
X95309523Y47705181D02*
X95166666Y47657562D01*
X95166666Y47657562D02*
X95119047Y47609943D01*
X94642856Y46705181D02*
X94452380Y46705181D01*
X94452380Y46705181D02*
X94357142Y46752800D01*
X94357142Y46752800D02*
X94309523Y46800420D01*
X94309523Y46800420D02*
X94214285Y46943277D01*
X94214285Y46943277D02*
X94166666Y47133753D01*
X94166666Y47133753D02*
X94166666Y47514705D01*
X94166666Y47514705D02*
X94214285Y47609943D01*
X94214285Y47609943D02*
X94261904Y47657562D01*
X94261904Y47657562D02*
X94357142Y47705181D01*
X94357142Y47705181D02*
X94547618Y47705181D01*
X94547618Y47705181D02*
X94642856Y47657562D01*
X94642856Y47657562D02*
X94690475Y47609943D01*
X94690475Y47609943D02*
X94738094Y47514705D01*
X94738094Y47514705D02*
X94738094Y47276610D01*
X94738094Y47276610D02*
X94690475Y47181372D01*
X94690475Y47181372D02*
X94642856Y47133753D01*
X94642856Y47133753D02*
X94547618Y47086134D01*
X94547618Y47086134D02*
X94357142Y47086134D01*
X94357142Y47086134D02*
X94261904Y47133753D01*
X94261904Y47133753D02*
X94214285Y47181372D01*
X94214285Y47181372D02*
X94166666Y47276610D01*
X93547618Y47705181D02*
X93452380Y47705181D01*
X93452380Y47705181D02*
X93357142Y47657562D01*
X93357142Y47657562D02*
X93309523Y47609943D01*
X93309523Y47609943D02*
X93261904Y47514705D01*
X93261904Y47514705D02*
X93214285Y47324229D01*
X93214285Y47324229D02*
X93214285Y47086134D01*
X93214285Y47086134D02*
X93261904Y46895658D01*
X93261904Y46895658D02*
X93309523Y46800420D01*
X93309523Y46800420D02*
X93357142Y46752800D01*
X93357142Y46752800D02*
X93452380Y46705181D01*
X93452380Y46705181D02*
X93547618Y46705181D01*
X93547618Y46705181D02*
X93642856Y46752800D01*
X93642856Y46752800D02*
X93690475Y46800420D01*
X93690475Y46800420D02*
X93738094Y46895658D01*
X93738094Y46895658D02*
X93785713Y47086134D01*
X93785713Y47086134D02*
X93785713Y47324229D01*
X93785713Y47324229D02*
X93738094Y47514705D01*
X93738094Y47514705D02*
X93690475Y47609943D01*
X93690475Y47609943D02*
X93642856Y47657562D01*
X93642856Y47657562D02*
X93547618Y47705181D01*
X92880951Y47705181D02*
X92261904Y47705181D01*
X92261904Y47705181D02*
X92595237Y47324229D01*
X92595237Y47324229D02*
X92452380Y47324229D01*
X92452380Y47324229D02*
X92357142Y47276610D01*
X92357142Y47276610D02*
X92309523Y47228991D01*
X92309523Y47228991D02*
X92261904Y47133753D01*
X92261904Y47133753D02*
X92261904Y46895658D01*
X92261904Y46895658D02*
X92309523Y46800420D01*
X92309523Y46800420D02*
X92357142Y46752800D01*
X92357142Y46752800D02*
X92452380Y46705181D01*
X92452380Y46705181D02*
X92738094Y46705181D01*
X92738094Y46705181D02*
X92833332Y46752800D01*
X92833332Y46752800D02*
X92880951Y46800420D01*
D11*
X152324318Y29146906D02*
X151054318Y29146906D01*
X151054318Y29146906D02*
X151054318Y28844525D01*
X151054318Y28844525D02*
X151114794Y28663096D01*
X151114794Y28663096D02*
X151235746Y28542144D01*
X151235746Y28542144D02*
X151356699Y28481667D01*
X151356699Y28481667D02*
X151598603Y28421191D01*
X151598603Y28421191D02*
X151780032Y28421191D01*
X151780032Y28421191D02*
X152021937Y28481667D01*
X152021937Y28481667D02*
X152142889Y28542144D01*
X152142889Y28542144D02*
X152263842Y28663096D01*
X152263842Y28663096D02*
X152324318Y28844525D01*
X152324318Y28844525D02*
X152324318Y29146906D01*
X151477651Y27332620D02*
X152324318Y27332620D01*
X150993842Y27635001D02*
X151900984Y27937382D01*
X151900984Y27937382D02*
X151900984Y27151191D01*
X151054318Y26425477D02*
X151054318Y26304524D01*
X151054318Y26304524D02*
X151114794Y26183572D01*
X151114794Y26183572D02*
X151175270Y26123096D01*
X151175270Y26123096D02*
X151296222Y26062620D01*
X151296222Y26062620D02*
X151538127Y26002143D01*
X151538127Y26002143D02*
X151840508Y26002143D01*
X151840508Y26002143D02*
X152082413Y26062620D01*
X152082413Y26062620D02*
X152203365Y26123096D01*
X152203365Y26123096D02*
X152263842Y26183572D01*
X152263842Y26183572D02*
X152324318Y26304524D01*
X152324318Y26304524D02*
X152324318Y26425477D01*
X152324318Y26425477D02*
X152263842Y26546429D01*
X152263842Y26546429D02*
X152203365Y26606905D01*
X152203365Y26606905D02*
X152082413Y26667382D01*
X152082413Y26667382D02*
X151840508Y26727858D01*
X151840508Y26727858D02*
X151538127Y26727858D01*
X151538127Y26727858D02*
X151296222Y26667382D01*
X151296222Y26667382D02*
X151175270Y26606905D01*
X151175270Y26606905D02*
X151114794Y26546429D01*
X151114794Y26546429D02*
X151054318Y26425477D01*
X151477651Y24913572D02*
X152324318Y24913572D01*
X150993842Y25215953D02*
X151900984Y25518334D01*
X151900984Y25518334D02*
X151900984Y24732143D01*
D10*
X150124819Y107619048D02*
X149648628Y107952381D01*
X150124819Y108190476D02*
X149124819Y108190476D01*
X149124819Y108190476D02*
X149124819Y107809524D01*
X149124819Y107809524D02*
X149172438Y107714286D01*
X149172438Y107714286D02*
X149220057Y107666667D01*
X149220057Y107666667D02*
X149315295Y107619048D01*
X149315295Y107619048D02*
X149458152Y107619048D01*
X149458152Y107619048D02*
X149553390Y107666667D01*
X149553390Y107666667D02*
X149601009Y107714286D01*
X149601009Y107714286D02*
X149648628Y107809524D01*
X149648628Y107809524D02*
X149648628Y108190476D01*
X149553390Y107047619D02*
X149505771Y107142857D01*
X149505771Y107142857D02*
X149458152Y107190476D01*
X149458152Y107190476D02*
X149362914Y107238095D01*
X149362914Y107238095D02*
X149315295Y107238095D01*
X149315295Y107238095D02*
X149220057Y107190476D01*
X149220057Y107190476D02*
X149172438Y107142857D01*
X149172438Y107142857D02*
X149124819Y107047619D01*
X149124819Y107047619D02*
X149124819Y106857143D01*
X149124819Y106857143D02*
X149172438Y106761905D01*
X149172438Y106761905D02*
X149220057Y106714286D01*
X149220057Y106714286D02*
X149315295Y106666667D01*
X149315295Y106666667D02*
X149362914Y106666667D01*
X149362914Y106666667D02*
X149458152Y106714286D01*
X149458152Y106714286D02*
X149505771Y106761905D01*
X149505771Y106761905D02*
X149553390Y106857143D01*
X149553390Y106857143D02*
X149553390Y107047619D01*
X149553390Y107047619D02*
X149601009Y107142857D01*
X149601009Y107142857D02*
X149648628Y107190476D01*
X149648628Y107190476D02*
X149743866Y107238095D01*
X149743866Y107238095D02*
X149934342Y107238095D01*
X149934342Y107238095D02*
X150029580Y107190476D01*
X150029580Y107190476D02*
X150077200Y107142857D01*
X150077200Y107142857D02*
X150124819Y107047619D01*
X150124819Y107047619D02*
X150124819Y106857143D01*
X150124819Y106857143D02*
X150077200Y106761905D01*
X150077200Y106761905D02*
X150029580Y106714286D01*
X150029580Y106714286D02*
X149934342Y106666667D01*
X149934342Y106666667D02*
X149743866Y106666667D01*
X149743866Y106666667D02*
X149648628Y106714286D01*
X149648628Y106714286D02*
X149601009Y106761905D01*
X149601009Y106761905D02*
X149553390Y106857143D01*
X150124819Y105714286D02*
X150124819Y106285714D01*
X150124819Y106000000D02*
X149124819Y106000000D01*
X149124819Y106000000D02*
X149267676Y106095238D01*
X149267676Y106095238D02*
X149362914Y106190476D01*
X149362914Y106190476D02*
X149410533Y106285714D01*
X149124819Y105380952D02*
X149124819Y104714286D01*
X149124819Y104714286D02*
X150124819Y105142857D01*
X118519580Y98619048D02*
X118567200Y98666667D01*
X118567200Y98666667D02*
X118614819Y98809524D01*
X118614819Y98809524D02*
X118614819Y98904762D01*
X118614819Y98904762D02*
X118567200Y99047619D01*
X118567200Y99047619D02*
X118471961Y99142857D01*
X118471961Y99142857D02*
X118376723Y99190476D01*
X118376723Y99190476D02*
X118186247Y99238095D01*
X118186247Y99238095D02*
X118043390Y99238095D01*
X118043390Y99238095D02*
X117852914Y99190476D01*
X117852914Y99190476D02*
X117757676Y99142857D01*
X117757676Y99142857D02*
X117662438Y99047619D01*
X117662438Y99047619D02*
X117614819Y98904762D01*
X117614819Y98904762D02*
X117614819Y98809524D01*
X117614819Y98809524D02*
X117662438Y98666667D01*
X117662438Y98666667D02*
X117710057Y98619048D01*
X118043390Y98047619D02*
X117995771Y98142857D01*
X117995771Y98142857D02*
X117948152Y98190476D01*
X117948152Y98190476D02*
X117852914Y98238095D01*
X117852914Y98238095D02*
X117805295Y98238095D01*
X117805295Y98238095D02*
X117710057Y98190476D01*
X117710057Y98190476D02*
X117662438Y98142857D01*
X117662438Y98142857D02*
X117614819Y98047619D01*
X117614819Y98047619D02*
X117614819Y97857143D01*
X117614819Y97857143D02*
X117662438Y97761905D01*
X117662438Y97761905D02*
X117710057Y97714286D01*
X117710057Y97714286D02*
X117805295Y97666667D01*
X117805295Y97666667D02*
X117852914Y97666667D01*
X117852914Y97666667D02*
X117948152Y97714286D01*
X117948152Y97714286D02*
X117995771Y97761905D01*
X117995771Y97761905D02*
X118043390Y97857143D01*
X118043390Y97857143D02*
X118043390Y98047619D01*
X118043390Y98047619D02*
X118091009Y98142857D01*
X118091009Y98142857D02*
X118138628Y98190476D01*
X118138628Y98190476D02*
X118233866Y98238095D01*
X118233866Y98238095D02*
X118424342Y98238095D01*
X118424342Y98238095D02*
X118519580Y98190476D01*
X118519580Y98190476D02*
X118567200Y98142857D01*
X118567200Y98142857D02*
X118614819Y98047619D01*
X118614819Y98047619D02*
X118614819Y97857143D01*
X118614819Y97857143D02*
X118567200Y97761905D01*
X118567200Y97761905D02*
X118519580Y97714286D01*
X118519580Y97714286D02*
X118424342Y97666667D01*
X118424342Y97666667D02*
X118233866Y97666667D01*
X118233866Y97666667D02*
X118138628Y97714286D01*
X118138628Y97714286D02*
X118091009Y97761905D01*
X118091009Y97761905D02*
X118043390Y97857143D01*
X117614819Y97047619D02*
X117614819Y96952381D01*
X117614819Y96952381D02*
X117662438Y96857143D01*
X117662438Y96857143D02*
X117710057Y96809524D01*
X117710057Y96809524D02*
X117805295Y96761905D01*
X117805295Y96761905D02*
X117995771Y96714286D01*
X117995771Y96714286D02*
X118233866Y96714286D01*
X118233866Y96714286D02*
X118424342Y96761905D01*
X118424342Y96761905D02*
X118519580Y96809524D01*
X118519580Y96809524D02*
X118567200Y96857143D01*
X118567200Y96857143D02*
X118614819Y96952381D01*
X118614819Y96952381D02*
X118614819Y97047619D01*
X118614819Y97047619D02*
X118567200Y97142857D01*
X118567200Y97142857D02*
X118519580Y97190476D01*
X118519580Y97190476D02*
X118424342Y97238095D01*
X118424342Y97238095D02*
X118233866Y97285714D01*
X118233866Y97285714D02*
X117995771Y97285714D01*
X117995771Y97285714D02*
X117805295Y97238095D01*
X117805295Y97238095D02*
X117710057Y97190476D01*
X117710057Y97190476D02*
X117662438Y97142857D01*
X117662438Y97142857D02*
X117614819Y97047619D01*
X117614819Y96380952D02*
X117614819Y95714286D01*
X117614819Y95714286D02*
X118614819Y96142857D01*
X142179580Y99619048D02*
X142227200Y99666667D01*
X142227200Y99666667D02*
X142274819Y99809524D01*
X142274819Y99809524D02*
X142274819Y99904762D01*
X142274819Y99904762D02*
X142227200Y100047619D01*
X142227200Y100047619D02*
X142131961Y100142857D01*
X142131961Y100142857D02*
X142036723Y100190476D01*
X142036723Y100190476D02*
X141846247Y100238095D01*
X141846247Y100238095D02*
X141703390Y100238095D01*
X141703390Y100238095D02*
X141512914Y100190476D01*
X141512914Y100190476D02*
X141417676Y100142857D01*
X141417676Y100142857D02*
X141322438Y100047619D01*
X141322438Y100047619D02*
X141274819Y99904762D01*
X141274819Y99904762D02*
X141274819Y99809524D01*
X141274819Y99809524D02*
X141322438Y99666667D01*
X141322438Y99666667D02*
X141370057Y99619048D01*
X141703390Y99047619D02*
X141655771Y99142857D01*
X141655771Y99142857D02*
X141608152Y99190476D01*
X141608152Y99190476D02*
X141512914Y99238095D01*
X141512914Y99238095D02*
X141465295Y99238095D01*
X141465295Y99238095D02*
X141370057Y99190476D01*
X141370057Y99190476D02*
X141322438Y99142857D01*
X141322438Y99142857D02*
X141274819Y99047619D01*
X141274819Y99047619D02*
X141274819Y98857143D01*
X141274819Y98857143D02*
X141322438Y98761905D01*
X141322438Y98761905D02*
X141370057Y98714286D01*
X141370057Y98714286D02*
X141465295Y98666667D01*
X141465295Y98666667D02*
X141512914Y98666667D01*
X141512914Y98666667D02*
X141608152Y98714286D01*
X141608152Y98714286D02*
X141655771Y98761905D01*
X141655771Y98761905D02*
X141703390Y98857143D01*
X141703390Y98857143D02*
X141703390Y99047619D01*
X141703390Y99047619D02*
X141751009Y99142857D01*
X141751009Y99142857D02*
X141798628Y99190476D01*
X141798628Y99190476D02*
X141893866Y99238095D01*
X141893866Y99238095D02*
X142084342Y99238095D01*
X142084342Y99238095D02*
X142179580Y99190476D01*
X142179580Y99190476D02*
X142227200Y99142857D01*
X142227200Y99142857D02*
X142274819Y99047619D01*
X142274819Y99047619D02*
X142274819Y98857143D01*
X142274819Y98857143D02*
X142227200Y98761905D01*
X142227200Y98761905D02*
X142179580Y98714286D01*
X142179580Y98714286D02*
X142084342Y98666667D01*
X142084342Y98666667D02*
X141893866Y98666667D01*
X141893866Y98666667D02*
X141798628Y98714286D01*
X141798628Y98714286D02*
X141751009Y98761905D01*
X141751009Y98761905D02*
X141703390Y98857143D01*
X142274819Y97714286D02*
X142274819Y98285714D01*
X142274819Y98000000D02*
X141274819Y98000000D01*
X141274819Y98000000D02*
X141417676Y98095238D01*
X141417676Y98095238D02*
X141512914Y98190476D01*
X141512914Y98190476D02*
X141560533Y98285714D01*
X141370057Y97333333D02*
X141322438Y97285714D01*
X141322438Y97285714D02*
X141274819Y97190476D01*
X141274819Y97190476D02*
X141274819Y96952381D01*
X141274819Y96952381D02*
X141322438Y96857143D01*
X141322438Y96857143D02*
X141370057Y96809524D01*
X141370057Y96809524D02*
X141465295Y96761905D01*
X141465295Y96761905D02*
X141560533Y96761905D01*
X141560533Y96761905D02*
X141703390Y96809524D01*
X141703390Y96809524D02*
X142274819Y97380952D01*
X142274819Y97380952D02*
X142274819Y96761905D01*
X197019580Y92599048D02*
X197067200Y92646667D01*
X197067200Y92646667D02*
X197114819Y92789524D01*
X197114819Y92789524D02*
X197114819Y92884762D01*
X197114819Y92884762D02*
X197067200Y93027619D01*
X197067200Y93027619D02*
X196971961Y93122857D01*
X196971961Y93122857D02*
X196876723Y93170476D01*
X196876723Y93170476D02*
X196686247Y93218095D01*
X196686247Y93218095D02*
X196543390Y93218095D01*
X196543390Y93218095D02*
X196352914Y93170476D01*
X196352914Y93170476D02*
X196257676Y93122857D01*
X196257676Y93122857D02*
X196162438Y93027619D01*
X196162438Y93027619D02*
X196114819Y92884762D01*
X196114819Y92884762D02*
X196114819Y92789524D01*
X196114819Y92789524D02*
X196162438Y92646667D01*
X196162438Y92646667D02*
X196210057Y92599048D01*
X196114819Y91694286D02*
X196114819Y92170476D01*
X196114819Y92170476D02*
X196591009Y92218095D01*
X196591009Y92218095D02*
X196543390Y92170476D01*
X196543390Y92170476D02*
X196495771Y92075238D01*
X196495771Y92075238D02*
X196495771Y91837143D01*
X196495771Y91837143D02*
X196543390Y91741905D01*
X196543390Y91741905D02*
X196591009Y91694286D01*
X196591009Y91694286D02*
X196686247Y91646667D01*
X196686247Y91646667D02*
X196924342Y91646667D01*
X196924342Y91646667D02*
X197019580Y91694286D01*
X197019580Y91694286D02*
X197067200Y91741905D01*
X197067200Y91741905D02*
X197114819Y91837143D01*
X197114819Y91837143D02*
X197114819Y92075238D01*
X197114819Y92075238D02*
X197067200Y92170476D01*
X197067200Y92170476D02*
X197019580Y92218095D01*
X196114819Y91027619D02*
X196114819Y90932381D01*
X196114819Y90932381D02*
X196162438Y90837143D01*
X196162438Y90837143D02*
X196210057Y90789524D01*
X196210057Y90789524D02*
X196305295Y90741905D01*
X196305295Y90741905D02*
X196495771Y90694286D01*
X196495771Y90694286D02*
X196733866Y90694286D01*
X196733866Y90694286D02*
X196924342Y90741905D01*
X196924342Y90741905D02*
X197019580Y90789524D01*
X197019580Y90789524D02*
X197067200Y90837143D01*
X197067200Y90837143D02*
X197114819Y90932381D01*
X197114819Y90932381D02*
X197114819Y91027619D01*
X197114819Y91027619D02*
X197067200Y91122857D01*
X197067200Y91122857D02*
X197019580Y91170476D01*
X197019580Y91170476D02*
X196924342Y91218095D01*
X196924342Y91218095D02*
X196733866Y91265714D01*
X196733866Y91265714D02*
X196495771Y91265714D01*
X196495771Y91265714D02*
X196305295Y91218095D01*
X196305295Y91218095D02*
X196210057Y91170476D01*
X196210057Y91170476D02*
X196162438Y91122857D01*
X196162438Y91122857D02*
X196114819Y91027619D01*
X196114819Y89789524D02*
X196114819Y90265714D01*
X196114819Y90265714D02*
X196591009Y90313333D01*
X196591009Y90313333D02*
X196543390Y90265714D01*
X196543390Y90265714D02*
X196495771Y90170476D01*
X196495771Y90170476D02*
X196495771Y89932381D01*
X196495771Y89932381D02*
X196543390Y89837143D01*
X196543390Y89837143D02*
X196591009Y89789524D01*
X196591009Y89789524D02*
X196686247Y89741905D01*
X196686247Y89741905D02*
X196924342Y89741905D01*
X196924342Y89741905D02*
X197019580Y89789524D01*
X197019580Y89789524D02*
X197067200Y89837143D01*
X197067200Y89837143D02*
X197114819Y89932381D01*
X197114819Y89932381D02*
X197114819Y90170476D01*
X197114819Y90170476D02*
X197067200Y90265714D01*
X197067200Y90265714D02*
X197019580Y90313333D01*
D11*
X156146905Y41925682D02*
X156146905Y43195682D01*
X156146905Y43195682D02*
X155844524Y43195682D01*
X155844524Y43195682D02*
X155663095Y43135206D01*
X155663095Y43135206D02*
X155542143Y43014254D01*
X155542143Y43014254D02*
X155481666Y42893301D01*
X155481666Y42893301D02*
X155421190Y42651397D01*
X155421190Y42651397D02*
X155421190Y42469968D01*
X155421190Y42469968D02*
X155481666Y42228063D01*
X155481666Y42228063D02*
X155542143Y42107111D01*
X155542143Y42107111D02*
X155663095Y41986158D01*
X155663095Y41986158D02*
X155844524Y41925682D01*
X155844524Y41925682D02*
X156146905Y41925682D01*
X154332619Y42772349D02*
X154332619Y41925682D01*
X154635000Y43256158D02*
X154937381Y42349016D01*
X154937381Y42349016D02*
X154151190Y42349016D01*
X153425476Y43195682D02*
X153304523Y43195682D01*
X153304523Y43195682D02*
X153183571Y43135206D01*
X153183571Y43135206D02*
X153123095Y43074730D01*
X153123095Y43074730D02*
X153062619Y42953778D01*
X153062619Y42953778D02*
X153002142Y42711873D01*
X153002142Y42711873D02*
X153002142Y42409492D01*
X153002142Y42409492D02*
X153062619Y42167587D01*
X153062619Y42167587D02*
X153123095Y42046635D01*
X153123095Y42046635D02*
X153183571Y41986158D01*
X153183571Y41986158D02*
X153304523Y41925682D01*
X153304523Y41925682D02*
X153425476Y41925682D01*
X153425476Y41925682D02*
X153546428Y41986158D01*
X153546428Y41986158D02*
X153606904Y42046635D01*
X153606904Y42046635D02*
X153667381Y42167587D01*
X153667381Y42167587D02*
X153727857Y42409492D01*
X153727857Y42409492D02*
X153727857Y42711873D01*
X153727857Y42711873D02*
X153667381Y42953778D01*
X153667381Y42953778D02*
X153606904Y43074730D01*
X153606904Y43074730D02*
X153546428Y43135206D01*
X153546428Y43135206D02*
X153425476Y43195682D01*
X152276428Y42651397D02*
X152397380Y42711873D01*
X152397380Y42711873D02*
X152457857Y42772349D01*
X152457857Y42772349D02*
X152518333Y42893301D01*
X152518333Y42893301D02*
X152518333Y42953778D01*
X152518333Y42953778D02*
X152457857Y43074730D01*
X152457857Y43074730D02*
X152397380Y43135206D01*
X152397380Y43135206D02*
X152276428Y43195682D01*
X152276428Y43195682D02*
X152034523Y43195682D01*
X152034523Y43195682D02*
X151913571Y43135206D01*
X151913571Y43135206D02*
X151853095Y43074730D01*
X151853095Y43074730D02*
X151792618Y42953778D01*
X151792618Y42953778D02*
X151792618Y42893301D01*
X151792618Y42893301D02*
X151853095Y42772349D01*
X151853095Y42772349D02*
X151913571Y42711873D01*
X151913571Y42711873D02*
X152034523Y42651397D01*
X152034523Y42651397D02*
X152276428Y42651397D01*
X152276428Y42651397D02*
X152397380Y42590920D01*
X152397380Y42590920D02*
X152457857Y42530444D01*
X152457857Y42530444D02*
X152518333Y42409492D01*
X152518333Y42409492D02*
X152518333Y42167587D01*
X152518333Y42167587D02*
X152457857Y42046635D01*
X152457857Y42046635D02*
X152397380Y41986158D01*
X152397380Y41986158D02*
X152276428Y41925682D01*
X152276428Y41925682D02*
X152034523Y41925682D01*
X152034523Y41925682D02*
X151913571Y41986158D01*
X151913571Y41986158D02*
X151853095Y42046635D01*
X151853095Y42046635D02*
X151792618Y42167587D01*
X151792618Y42167587D02*
X151792618Y42409492D01*
X151792618Y42409492D02*
X151853095Y42530444D01*
X151853095Y42530444D02*
X151913571Y42590920D01*
X151913571Y42590920D02*
X152034523Y42651397D01*
D10*
X86359580Y47579048D02*
X86407200Y47626667D01*
X86407200Y47626667D02*
X86454819Y47769524D01*
X86454819Y47769524D02*
X86454819Y47864762D01*
X86454819Y47864762D02*
X86407200Y48007619D01*
X86407200Y48007619D02*
X86311961Y48102857D01*
X86311961Y48102857D02*
X86216723Y48150476D01*
X86216723Y48150476D02*
X86026247Y48198095D01*
X86026247Y48198095D02*
X85883390Y48198095D01*
X85883390Y48198095D02*
X85692914Y48150476D01*
X85692914Y48150476D02*
X85597676Y48102857D01*
X85597676Y48102857D02*
X85502438Y48007619D01*
X85502438Y48007619D02*
X85454819Y47864762D01*
X85454819Y47864762D02*
X85454819Y47769524D01*
X85454819Y47769524D02*
X85502438Y47626667D01*
X85502438Y47626667D02*
X85550057Y47579048D01*
X86454819Y47102857D02*
X86454819Y46912381D01*
X86454819Y46912381D02*
X86407200Y46817143D01*
X86407200Y46817143D02*
X86359580Y46769524D01*
X86359580Y46769524D02*
X86216723Y46674286D01*
X86216723Y46674286D02*
X86026247Y46626667D01*
X86026247Y46626667D02*
X85645295Y46626667D01*
X85645295Y46626667D02*
X85550057Y46674286D01*
X85550057Y46674286D02*
X85502438Y46721905D01*
X85502438Y46721905D02*
X85454819Y46817143D01*
X85454819Y46817143D02*
X85454819Y47007619D01*
X85454819Y47007619D02*
X85502438Y47102857D01*
X85502438Y47102857D02*
X85550057Y47150476D01*
X85550057Y47150476D02*
X85645295Y47198095D01*
X85645295Y47198095D02*
X85883390Y47198095D01*
X85883390Y47198095D02*
X85978628Y47150476D01*
X85978628Y47150476D02*
X86026247Y47102857D01*
X86026247Y47102857D02*
X86073866Y47007619D01*
X86073866Y47007619D02*
X86073866Y46817143D01*
X86073866Y46817143D02*
X86026247Y46721905D01*
X86026247Y46721905D02*
X85978628Y46674286D01*
X85978628Y46674286D02*
X85883390Y46626667D01*
X85454819Y46007619D02*
X85454819Y45912381D01*
X85454819Y45912381D02*
X85502438Y45817143D01*
X85502438Y45817143D02*
X85550057Y45769524D01*
X85550057Y45769524D02*
X85645295Y45721905D01*
X85645295Y45721905D02*
X85835771Y45674286D01*
X85835771Y45674286D02*
X86073866Y45674286D01*
X86073866Y45674286D02*
X86264342Y45721905D01*
X86264342Y45721905D02*
X86359580Y45769524D01*
X86359580Y45769524D02*
X86407200Y45817143D01*
X86407200Y45817143D02*
X86454819Y45912381D01*
X86454819Y45912381D02*
X86454819Y46007619D01*
X86454819Y46007619D02*
X86407200Y46102857D01*
X86407200Y46102857D02*
X86359580Y46150476D01*
X86359580Y46150476D02*
X86264342Y46198095D01*
X86264342Y46198095D02*
X86073866Y46245714D01*
X86073866Y46245714D02*
X85835771Y46245714D01*
X85835771Y46245714D02*
X85645295Y46198095D01*
X85645295Y46198095D02*
X85550057Y46150476D01*
X85550057Y46150476D02*
X85502438Y46102857D01*
X85502438Y46102857D02*
X85454819Y46007619D01*
X86454819Y44721905D02*
X86454819Y45293333D01*
X86454819Y45007619D02*
X85454819Y45007619D01*
X85454819Y45007619D02*
X85597676Y45102857D01*
X85597676Y45102857D02*
X85692914Y45198095D01*
X85692914Y45198095D02*
X85740533Y45293333D01*
X152619047Y34545181D02*
X152952380Y35021372D01*
X153190475Y34545181D02*
X153190475Y35545181D01*
X153190475Y35545181D02*
X152809523Y35545181D01*
X152809523Y35545181D02*
X152714285Y35497562D01*
X152714285Y35497562D02*
X152666666Y35449943D01*
X152666666Y35449943D02*
X152619047Y35354705D01*
X152619047Y35354705D02*
X152619047Y35211848D01*
X152619047Y35211848D02*
X152666666Y35116610D01*
X152666666Y35116610D02*
X152714285Y35068991D01*
X152714285Y35068991D02*
X152809523Y35021372D01*
X152809523Y35021372D02*
X153190475Y35021372D01*
X151761904Y35211848D02*
X151761904Y34545181D01*
X151999999Y35592800D02*
X152238094Y34878515D01*
X152238094Y34878515D02*
X151619047Y34878515D01*
X150714285Y34545181D02*
X151285713Y34545181D01*
X150999999Y34545181D02*
X150999999Y35545181D01*
X150999999Y35545181D02*
X151095237Y35402324D01*
X151095237Y35402324D02*
X151190475Y35307086D01*
X151190475Y35307086D02*
X151285713Y35259467D01*
X149761904Y34545181D02*
X150333332Y34545181D01*
X150047618Y34545181D02*
X150047618Y35545181D01*
X150047618Y35545181D02*
X150142856Y35402324D01*
X150142856Y35402324D02*
X150238094Y35307086D01*
X150238094Y35307086D02*
X150333332Y35259467D01*
D11*
X159824318Y41546906D02*
X158554318Y41546906D01*
X158554318Y41546906D02*
X158554318Y41244525D01*
X158554318Y41244525D02*
X158614794Y41063096D01*
X158614794Y41063096D02*
X158735746Y40942144D01*
X158735746Y40942144D02*
X158856699Y40881667D01*
X158856699Y40881667D02*
X159098603Y40821191D01*
X159098603Y40821191D02*
X159280032Y40821191D01*
X159280032Y40821191D02*
X159521937Y40881667D01*
X159521937Y40881667D02*
X159642889Y40942144D01*
X159642889Y40942144D02*
X159763842Y41063096D01*
X159763842Y41063096D02*
X159824318Y41244525D01*
X159824318Y41244525D02*
X159824318Y41546906D01*
X158977651Y39732620D02*
X159824318Y39732620D01*
X158493842Y40035001D02*
X159400984Y40337382D01*
X159400984Y40337382D02*
X159400984Y39551191D01*
X158554318Y38825477D02*
X158554318Y38704524D01*
X158554318Y38704524D02*
X158614794Y38583572D01*
X158614794Y38583572D02*
X158675270Y38523096D01*
X158675270Y38523096D02*
X158796222Y38462620D01*
X158796222Y38462620D02*
X159038127Y38402143D01*
X159038127Y38402143D02*
X159340508Y38402143D01*
X159340508Y38402143D02*
X159582413Y38462620D01*
X159582413Y38462620D02*
X159703365Y38523096D01*
X159703365Y38523096D02*
X159763842Y38583572D01*
X159763842Y38583572D02*
X159824318Y38704524D01*
X159824318Y38704524D02*
X159824318Y38825477D01*
X159824318Y38825477D02*
X159763842Y38946429D01*
X159763842Y38946429D02*
X159703365Y39006905D01*
X159703365Y39006905D02*
X159582413Y39067382D01*
X159582413Y39067382D02*
X159340508Y39127858D01*
X159340508Y39127858D02*
X159038127Y39127858D01*
X159038127Y39127858D02*
X158796222Y39067382D01*
X158796222Y39067382D02*
X158675270Y39006905D01*
X158675270Y39006905D02*
X158614794Y38946429D01*
X158614794Y38946429D02*
X158554318Y38825477D01*
X158554318Y37313572D02*
X158554318Y37555477D01*
X158554318Y37555477D02*
X158614794Y37676429D01*
X158614794Y37676429D02*
X158675270Y37736905D01*
X158675270Y37736905D02*
X158856699Y37857858D01*
X158856699Y37857858D02*
X159098603Y37918334D01*
X159098603Y37918334D02*
X159582413Y37918334D01*
X159582413Y37918334D02*
X159703365Y37857858D01*
X159703365Y37857858D02*
X159763842Y37797381D01*
X159763842Y37797381D02*
X159824318Y37676429D01*
X159824318Y37676429D02*
X159824318Y37434524D01*
X159824318Y37434524D02*
X159763842Y37313572D01*
X159763842Y37313572D02*
X159703365Y37253096D01*
X159703365Y37253096D02*
X159582413Y37192619D01*
X159582413Y37192619D02*
X159280032Y37192619D01*
X159280032Y37192619D02*
X159159080Y37253096D01*
X159159080Y37253096D02*
X159098603Y37313572D01*
X159098603Y37313572D02*
X159038127Y37434524D01*
X159038127Y37434524D02*
X159038127Y37676429D01*
X159038127Y37676429D02*
X159098603Y37797381D01*
X159098603Y37797381D02*
X159159080Y37857858D01*
X159159080Y37857858D02*
X159280032Y37918334D01*
D10*
X95119047Y42890420D02*
X95166666Y42842800D01*
X95166666Y42842800D02*
X95309523Y42795181D01*
X95309523Y42795181D02*
X95404761Y42795181D01*
X95404761Y42795181D02*
X95547618Y42842800D01*
X95547618Y42842800D02*
X95642856Y42938039D01*
X95642856Y42938039D02*
X95690475Y43033277D01*
X95690475Y43033277D02*
X95738094Y43223753D01*
X95738094Y43223753D02*
X95738094Y43366610D01*
X95738094Y43366610D02*
X95690475Y43557086D01*
X95690475Y43557086D02*
X95642856Y43652324D01*
X95642856Y43652324D02*
X95547618Y43747562D01*
X95547618Y43747562D02*
X95404761Y43795181D01*
X95404761Y43795181D02*
X95309523Y43795181D01*
X95309523Y43795181D02*
X95166666Y43747562D01*
X95166666Y43747562D02*
X95119047Y43699943D01*
X94642856Y42795181D02*
X94452380Y42795181D01*
X94452380Y42795181D02*
X94357142Y42842800D01*
X94357142Y42842800D02*
X94309523Y42890420D01*
X94309523Y42890420D02*
X94214285Y43033277D01*
X94214285Y43033277D02*
X94166666Y43223753D01*
X94166666Y43223753D02*
X94166666Y43604705D01*
X94166666Y43604705D02*
X94214285Y43699943D01*
X94214285Y43699943D02*
X94261904Y43747562D01*
X94261904Y43747562D02*
X94357142Y43795181D01*
X94357142Y43795181D02*
X94547618Y43795181D01*
X94547618Y43795181D02*
X94642856Y43747562D01*
X94642856Y43747562D02*
X94690475Y43699943D01*
X94690475Y43699943D02*
X94738094Y43604705D01*
X94738094Y43604705D02*
X94738094Y43366610D01*
X94738094Y43366610D02*
X94690475Y43271372D01*
X94690475Y43271372D02*
X94642856Y43223753D01*
X94642856Y43223753D02*
X94547618Y43176134D01*
X94547618Y43176134D02*
X94357142Y43176134D01*
X94357142Y43176134D02*
X94261904Y43223753D01*
X94261904Y43223753D02*
X94214285Y43271372D01*
X94214285Y43271372D02*
X94166666Y43366610D01*
X93547618Y43795181D02*
X93452380Y43795181D01*
X93452380Y43795181D02*
X93357142Y43747562D01*
X93357142Y43747562D02*
X93309523Y43699943D01*
X93309523Y43699943D02*
X93261904Y43604705D01*
X93261904Y43604705D02*
X93214285Y43414229D01*
X93214285Y43414229D02*
X93214285Y43176134D01*
X93214285Y43176134D02*
X93261904Y42985658D01*
X93261904Y42985658D02*
X93309523Y42890420D01*
X93309523Y42890420D02*
X93357142Y42842800D01*
X93357142Y42842800D02*
X93452380Y42795181D01*
X93452380Y42795181D02*
X93547618Y42795181D01*
X93547618Y42795181D02*
X93642856Y42842800D01*
X93642856Y42842800D02*
X93690475Y42890420D01*
X93690475Y42890420D02*
X93738094Y42985658D01*
X93738094Y42985658D02*
X93785713Y43176134D01*
X93785713Y43176134D02*
X93785713Y43414229D01*
X93785713Y43414229D02*
X93738094Y43604705D01*
X93738094Y43604705D02*
X93690475Y43699943D01*
X93690475Y43699943D02*
X93642856Y43747562D01*
X93642856Y43747562D02*
X93547618Y43795181D01*
X92357142Y43461848D02*
X92357142Y42795181D01*
X92595237Y43842800D02*
X92833332Y43128515D01*
X92833332Y43128515D02*
X92214285Y43128515D01*
D11*
X159824318Y29396906D02*
X158554318Y29396906D01*
X158554318Y29396906D02*
X158554318Y29094525D01*
X158554318Y29094525D02*
X158614794Y28913096D01*
X158614794Y28913096D02*
X158735746Y28792144D01*
X158735746Y28792144D02*
X158856699Y28731667D01*
X158856699Y28731667D02*
X159098603Y28671191D01*
X159098603Y28671191D02*
X159280032Y28671191D01*
X159280032Y28671191D02*
X159521937Y28731667D01*
X159521937Y28731667D02*
X159642889Y28792144D01*
X159642889Y28792144D02*
X159763842Y28913096D01*
X159763842Y28913096D02*
X159824318Y29094525D01*
X159824318Y29094525D02*
X159824318Y29396906D01*
X158977651Y27582620D02*
X159824318Y27582620D01*
X158493842Y27885001D02*
X159400984Y28187382D01*
X159400984Y28187382D02*
X159400984Y27401191D01*
X158554318Y26675477D02*
X158554318Y26554524D01*
X158554318Y26554524D02*
X158614794Y26433572D01*
X158614794Y26433572D02*
X158675270Y26373096D01*
X158675270Y26373096D02*
X158796222Y26312620D01*
X158796222Y26312620D02*
X159038127Y26252143D01*
X159038127Y26252143D02*
X159340508Y26252143D01*
X159340508Y26252143D02*
X159582413Y26312620D01*
X159582413Y26312620D02*
X159703365Y26373096D01*
X159703365Y26373096D02*
X159763842Y26433572D01*
X159763842Y26433572D02*
X159824318Y26554524D01*
X159824318Y26554524D02*
X159824318Y26675477D01*
X159824318Y26675477D02*
X159763842Y26796429D01*
X159763842Y26796429D02*
X159703365Y26856905D01*
X159703365Y26856905D02*
X159582413Y26917382D01*
X159582413Y26917382D02*
X159340508Y26977858D01*
X159340508Y26977858D02*
X159038127Y26977858D01*
X159038127Y26977858D02*
X158796222Y26917382D01*
X158796222Y26917382D02*
X158675270Y26856905D01*
X158675270Y26856905D02*
X158614794Y26796429D01*
X158614794Y26796429D02*
X158554318Y26675477D01*
X158554318Y25103096D02*
X158554318Y25707858D01*
X158554318Y25707858D02*
X159159080Y25768334D01*
X159159080Y25768334D02*
X159098603Y25707858D01*
X159098603Y25707858D02*
X159038127Y25586905D01*
X159038127Y25586905D02*
X159038127Y25284524D01*
X159038127Y25284524D02*
X159098603Y25163572D01*
X159098603Y25163572D02*
X159159080Y25103096D01*
X159159080Y25103096D02*
X159280032Y25042619D01*
X159280032Y25042619D02*
X159582413Y25042619D01*
X159582413Y25042619D02*
X159703365Y25103096D01*
X159703365Y25103096D02*
X159763842Y25163572D01*
X159763842Y25163572D02*
X159824318Y25284524D01*
X159824318Y25284524D02*
X159824318Y25586905D01*
X159824318Y25586905D02*
X159763842Y25707858D01*
X159763842Y25707858D02*
X159703365Y25768334D01*
D10*
X149619047Y30545181D02*
X149952380Y31021372D01*
X150190475Y30545181D02*
X150190475Y31545181D01*
X150190475Y31545181D02*
X149809523Y31545181D01*
X149809523Y31545181D02*
X149714285Y31497562D01*
X149714285Y31497562D02*
X149666666Y31449943D01*
X149666666Y31449943D02*
X149619047Y31354705D01*
X149619047Y31354705D02*
X149619047Y31211848D01*
X149619047Y31211848D02*
X149666666Y31116610D01*
X149666666Y31116610D02*
X149714285Y31068991D01*
X149714285Y31068991D02*
X149809523Y31021372D01*
X149809523Y31021372D02*
X150190475Y31021372D01*
X148761904Y31211848D02*
X148761904Y30545181D01*
X148999999Y31592800D02*
X149238094Y30878515D01*
X149238094Y30878515D02*
X148619047Y30878515D01*
X148047618Y31545181D02*
X147952380Y31545181D01*
X147952380Y31545181D02*
X147857142Y31497562D01*
X147857142Y31497562D02*
X147809523Y31449943D01*
X147809523Y31449943D02*
X147761904Y31354705D01*
X147761904Y31354705D02*
X147714285Y31164229D01*
X147714285Y31164229D02*
X147714285Y30926134D01*
X147714285Y30926134D02*
X147761904Y30735658D01*
X147761904Y30735658D02*
X147809523Y30640420D01*
X147809523Y30640420D02*
X147857142Y30592800D01*
X147857142Y30592800D02*
X147952380Y30545181D01*
X147952380Y30545181D02*
X148047618Y30545181D01*
X148047618Y30545181D02*
X148142856Y30592800D01*
X148142856Y30592800D02*
X148190475Y30640420D01*
X148190475Y30640420D02*
X148238094Y30735658D01*
X148238094Y30735658D02*
X148285713Y30926134D01*
X148285713Y30926134D02*
X148285713Y31164229D01*
X148285713Y31164229D02*
X148238094Y31354705D01*
X148238094Y31354705D02*
X148190475Y31449943D01*
X148190475Y31449943D02*
X148142856Y31497562D01*
X148142856Y31497562D02*
X148047618Y31545181D01*
X147142856Y31116610D02*
X147238094Y31164229D01*
X147238094Y31164229D02*
X147285713Y31211848D01*
X147285713Y31211848D02*
X147333332Y31307086D01*
X147333332Y31307086D02*
X147333332Y31354705D01*
X147333332Y31354705D02*
X147285713Y31449943D01*
X147285713Y31449943D02*
X147238094Y31497562D01*
X147238094Y31497562D02*
X147142856Y31545181D01*
X147142856Y31545181D02*
X146952380Y31545181D01*
X146952380Y31545181D02*
X146857142Y31497562D01*
X146857142Y31497562D02*
X146809523Y31449943D01*
X146809523Y31449943D02*
X146761904Y31354705D01*
X146761904Y31354705D02*
X146761904Y31307086D01*
X146761904Y31307086D02*
X146809523Y31211848D01*
X146809523Y31211848D02*
X146857142Y31164229D01*
X146857142Y31164229D02*
X146952380Y31116610D01*
X146952380Y31116610D02*
X147142856Y31116610D01*
X147142856Y31116610D02*
X147238094Y31068991D01*
X147238094Y31068991D02*
X147285713Y31021372D01*
X147285713Y31021372D02*
X147333332Y30926134D01*
X147333332Y30926134D02*
X147333332Y30735658D01*
X147333332Y30735658D02*
X147285713Y30640420D01*
X147285713Y30640420D02*
X147238094Y30592800D01*
X147238094Y30592800D02*
X147142856Y30545181D01*
X147142856Y30545181D02*
X146952380Y30545181D01*
X146952380Y30545181D02*
X146857142Y30592800D01*
X146857142Y30592800D02*
X146809523Y30640420D01*
X146809523Y30640420D02*
X146761904Y30735658D01*
X146761904Y30735658D02*
X146761904Y30926134D01*
X146761904Y30926134D02*
X146809523Y31021372D01*
X146809523Y31021372D02*
X146857142Y31068991D01*
X146857142Y31068991D02*
X146952380Y31116610D01*
X153774819Y112869048D02*
X153298628Y113202381D01*
X153774819Y113440476D02*
X152774819Y113440476D01*
X152774819Y113440476D02*
X152774819Y113059524D01*
X152774819Y113059524D02*
X152822438Y112964286D01*
X152822438Y112964286D02*
X152870057Y112916667D01*
X152870057Y112916667D02*
X152965295Y112869048D01*
X152965295Y112869048D02*
X153108152Y112869048D01*
X153108152Y112869048D02*
X153203390Y112916667D01*
X153203390Y112916667D02*
X153251009Y112964286D01*
X153251009Y112964286D02*
X153298628Y113059524D01*
X153298628Y113059524D02*
X153298628Y113440476D01*
X153203390Y112297619D02*
X153155771Y112392857D01*
X153155771Y112392857D02*
X153108152Y112440476D01*
X153108152Y112440476D02*
X153012914Y112488095D01*
X153012914Y112488095D02*
X152965295Y112488095D01*
X152965295Y112488095D02*
X152870057Y112440476D01*
X152870057Y112440476D02*
X152822438Y112392857D01*
X152822438Y112392857D02*
X152774819Y112297619D01*
X152774819Y112297619D02*
X152774819Y112107143D01*
X152774819Y112107143D02*
X152822438Y112011905D01*
X152822438Y112011905D02*
X152870057Y111964286D01*
X152870057Y111964286D02*
X152965295Y111916667D01*
X152965295Y111916667D02*
X153012914Y111916667D01*
X153012914Y111916667D02*
X153108152Y111964286D01*
X153108152Y111964286D02*
X153155771Y112011905D01*
X153155771Y112011905D02*
X153203390Y112107143D01*
X153203390Y112107143D02*
X153203390Y112297619D01*
X153203390Y112297619D02*
X153251009Y112392857D01*
X153251009Y112392857D02*
X153298628Y112440476D01*
X153298628Y112440476D02*
X153393866Y112488095D01*
X153393866Y112488095D02*
X153584342Y112488095D01*
X153584342Y112488095D02*
X153679580Y112440476D01*
X153679580Y112440476D02*
X153727200Y112392857D01*
X153727200Y112392857D02*
X153774819Y112297619D01*
X153774819Y112297619D02*
X153774819Y112107143D01*
X153774819Y112107143D02*
X153727200Y112011905D01*
X153727200Y112011905D02*
X153679580Y111964286D01*
X153679580Y111964286D02*
X153584342Y111916667D01*
X153584342Y111916667D02*
X153393866Y111916667D01*
X153393866Y111916667D02*
X153298628Y111964286D01*
X153298628Y111964286D02*
X153251009Y112011905D01*
X153251009Y112011905D02*
X153203390Y112107143D01*
X153774819Y110964286D02*
X153774819Y111535714D01*
X153774819Y111250000D02*
X152774819Y111250000D01*
X152774819Y111250000D02*
X152917676Y111345238D01*
X152917676Y111345238D02*
X153012914Y111440476D01*
X153012914Y111440476D02*
X153060533Y111535714D01*
X153774819Y110488095D02*
X153774819Y110297619D01*
X153774819Y110297619D02*
X153727200Y110202381D01*
X153727200Y110202381D02*
X153679580Y110154762D01*
X153679580Y110154762D02*
X153536723Y110059524D01*
X153536723Y110059524D02*
X153346247Y110011905D01*
X153346247Y110011905D02*
X152965295Y110011905D01*
X152965295Y110011905D02*
X152870057Y110059524D01*
X152870057Y110059524D02*
X152822438Y110107143D01*
X152822438Y110107143D02*
X152774819Y110202381D01*
X152774819Y110202381D02*
X152774819Y110392857D01*
X152774819Y110392857D02*
X152822438Y110488095D01*
X152822438Y110488095D02*
X152870057Y110535714D01*
X152870057Y110535714D02*
X152965295Y110583333D01*
X152965295Y110583333D02*
X153203390Y110583333D01*
X153203390Y110583333D02*
X153298628Y110535714D01*
X153298628Y110535714D02*
X153346247Y110488095D01*
X153346247Y110488095D02*
X153393866Y110392857D01*
X153393866Y110392857D02*
X153393866Y110202381D01*
X153393866Y110202381D02*
X153346247Y110107143D01*
X153346247Y110107143D02*
X153298628Y110059524D01*
X153298628Y110059524D02*
X153203390Y110011905D01*
X183709580Y62739048D02*
X183757200Y62786667D01*
X183757200Y62786667D02*
X183804819Y62929524D01*
X183804819Y62929524D02*
X183804819Y63024762D01*
X183804819Y63024762D02*
X183757200Y63167619D01*
X183757200Y63167619D02*
X183661961Y63262857D01*
X183661961Y63262857D02*
X183566723Y63310476D01*
X183566723Y63310476D02*
X183376247Y63358095D01*
X183376247Y63358095D02*
X183233390Y63358095D01*
X183233390Y63358095D02*
X183042914Y63310476D01*
X183042914Y63310476D02*
X182947676Y63262857D01*
X182947676Y63262857D02*
X182852438Y63167619D01*
X182852438Y63167619D02*
X182804819Y63024762D01*
X182804819Y63024762D02*
X182804819Y62929524D01*
X182804819Y62929524D02*
X182852438Y62786667D01*
X182852438Y62786667D02*
X182900057Y62739048D01*
X182804819Y61834286D02*
X182804819Y62310476D01*
X182804819Y62310476D02*
X183281009Y62358095D01*
X183281009Y62358095D02*
X183233390Y62310476D01*
X183233390Y62310476D02*
X183185771Y62215238D01*
X183185771Y62215238D02*
X183185771Y61977143D01*
X183185771Y61977143D02*
X183233390Y61881905D01*
X183233390Y61881905D02*
X183281009Y61834286D01*
X183281009Y61834286D02*
X183376247Y61786667D01*
X183376247Y61786667D02*
X183614342Y61786667D01*
X183614342Y61786667D02*
X183709580Y61834286D01*
X183709580Y61834286D02*
X183757200Y61881905D01*
X183757200Y61881905D02*
X183804819Y61977143D01*
X183804819Y61977143D02*
X183804819Y62215238D01*
X183804819Y62215238D02*
X183757200Y62310476D01*
X183757200Y62310476D02*
X183709580Y62358095D01*
X182804819Y61167619D02*
X182804819Y61072381D01*
X182804819Y61072381D02*
X182852438Y60977143D01*
X182852438Y60977143D02*
X182900057Y60929524D01*
X182900057Y60929524D02*
X182995295Y60881905D01*
X182995295Y60881905D02*
X183185771Y60834286D01*
X183185771Y60834286D02*
X183423866Y60834286D01*
X183423866Y60834286D02*
X183614342Y60881905D01*
X183614342Y60881905D02*
X183709580Y60929524D01*
X183709580Y60929524D02*
X183757200Y60977143D01*
X183757200Y60977143D02*
X183804819Y61072381D01*
X183804819Y61072381D02*
X183804819Y61167619D01*
X183804819Y61167619D02*
X183757200Y61262857D01*
X183757200Y61262857D02*
X183709580Y61310476D01*
X183709580Y61310476D02*
X183614342Y61358095D01*
X183614342Y61358095D02*
X183423866Y61405714D01*
X183423866Y61405714D02*
X183185771Y61405714D01*
X183185771Y61405714D02*
X182995295Y61358095D01*
X182995295Y61358095D02*
X182900057Y61310476D01*
X182900057Y61310476D02*
X182852438Y61262857D01*
X182852438Y61262857D02*
X182804819Y61167619D01*
X182804819Y59977143D02*
X182804819Y60167619D01*
X182804819Y60167619D02*
X182852438Y60262857D01*
X182852438Y60262857D02*
X182900057Y60310476D01*
X182900057Y60310476D02*
X183042914Y60405714D01*
X183042914Y60405714D02*
X183233390Y60453333D01*
X183233390Y60453333D02*
X183614342Y60453333D01*
X183614342Y60453333D02*
X183709580Y60405714D01*
X183709580Y60405714D02*
X183757200Y60358095D01*
X183757200Y60358095D02*
X183804819Y60262857D01*
X183804819Y60262857D02*
X183804819Y60072381D01*
X183804819Y60072381D02*
X183757200Y59977143D01*
X183757200Y59977143D02*
X183709580Y59929524D01*
X183709580Y59929524D02*
X183614342Y59881905D01*
X183614342Y59881905D02*
X183376247Y59881905D01*
X183376247Y59881905D02*
X183281009Y59929524D01*
X183281009Y59929524D02*
X183233390Y59977143D01*
X183233390Y59977143D02*
X183185771Y60072381D01*
X183185771Y60072381D02*
X183185771Y60262857D01*
X183185771Y60262857D02*
X183233390Y60358095D01*
X183233390Y60358095D02*
X183281009Y60405714D01*
X183281009Y60405714D02*
X183376247Y60453333D01*
X158019580Y97099048D02*
X158067200Y97146667D01*
X158067200Y97146667D02*
X158114819Y97289524D01*
X158114819Y97289524D02*
X158114819Y97384762D01*
X158114819Y97384762D02*
X158067200Y97527619D01*
X158067200Y97527619D02*
X157971961Y97622857D01*
X157971961Y97622857D02*
X157876723Y97670476D01*
X157876723Y97670476D02*
X157686247Y97718095D01*
X157686247Y97718095D02*
X157543390Y97718095D01*
X157543390Y97718095D02*
X157352914Y97670476D01*
X157352914Y97670476D02*
X157257676Y97622857D01*
X157257676Y97622857D02*
X157162438Y97527619D01*
X157162438Y97527619D02*
X157114819Y97384762D01*
X157114819Y97384762D02*
X157114819Y97289524D01*
X157114819Y97289524D02*
X157162438Y97146667D01*
X157162438Y97146667D02*
X157210057Y97099048D01*
X157543390Y96527619D02*
X157495771Y96622857D01*
X157495771Y96622857D02*
X157448152Y96670476D01*
X157448152Y96670476D02*
X157352914Y96718095D01*
X157352914Y96718095D02*
X157305295Y96718095D01*
X157305295Y96718095D02*
X157210057Y96670476D01*
X157210057Y96670476D02*
X157162438Y96622857D01*
X157162438Y96622857D02*
X157114819Y96527619D01*
X157114819Y96527619D02*
X157114819Y96337143D01*
X157114819Y96337143D02*
X157162438Y96241905D01*
X157162438Y96241905D02*
X157210057Y96194286D01*
X157210057Y96194286D02*
X157305295Y96146667D01*
X157305295Y96146667D02*
X157352914Y96146667D01*
X157352914Y96146667D02*
X157448152Y96194286D01*
X157448152Y96194286D02*
X157495771Y96241905D01*
X157495771Y96241905D02*
X157543390Y96337143D01*
X157543390Y96337143D02*
X157543390Y96527619D01*
X157543390Y96527619D02*
X157591009Y96622857D01*
X157591009Y96622857D02*
X157638628Y96670476D01*
X157638628Y96670476D02*
X157733866Y96718095D01*
X157733866Y96718095D02*
X157924342Y96718095D01*
X157924342Y96718095D02*
X158019580Y96670476D01*
X158019580Y96670476D02*
X158067200Y96622857D01*
X158067200Y96622857D02*
X158114819Y96527619D01*
X158114819Y96527619D02*
X158114819Y96337143D01*
X158114819Y96337143D02*
X158067200Y96241905D01*
X158067200Y96241905D02*
X158019580Y96194286D01*
X158019580Y96194286D02*
X157924342Y96146667D01*
X157924342Y96146667D02*
X157733866Y96146667D01*
X157733866Y96146667D02*
X157638628Y96194286D01*
X157638628Y96194286D02*
X157591009Y96241905D01*
X157591009Y96241905D02*
X157543390Y96337143D01*
X157114819Y95527619D02*
X157114819Y95432381D01*
X157114819Y95432381D02*
X157162438Y95337143D01*
X157162438Y95337143D02*
X157210057Y95289524D01*
X157210057Y95289524D02*
X157305295Y95241905D01*
X157305295Y95241905D02*
X157495771Y95194286D01*
X157495771Y95194286D02*
X157733866Y95194286D01*
X157733866Y95194286D02*
X157924342Y95241905D01*
X157924342Y95241905D02*
X158019580Y95289524D01*
X158019580Y95289524D02*
X158067200Y95337143D01*
X158067200Y95337143D02*
X158114819Y95432381D01*
X158114819Y95432381D02*
X158114819Y95527619D01*
X158114819Y95527619D02*
X158067200Y95622857D01*
X158067200Y95622857D02*
X158019580Y95670476D01*
X158019580Y95670476D02*
X157924342Y95718095D01*
X157924342Y95718095D02*
X157733866Y95765714D01*
X157733866Y95765714D02*
X157495771Y95765714D01*
X157495771Y95765714D02*
X157305295Y95718095D01*
X157305295Y95718095D02*
X157210057Y95670476D01*
X157210057Y95670476D02*
X157162438Y95622857D01*
X157162438Y95622857D02*
X157114819Y95527619D01*
X158114819Y94718095D02*
X158114819Y94527619D01*
X158114819Y94527619D02*
X158067200Y94432381D01*
X158067200Y94432381D02*
X158019580Y94384762D01*
X158019580Y94384762D02*
X157876723Y94289524D01*
X157876723Y94289524D02*
X157686247Y94241905D01*
X157686247Y94241905D02*
X157305295Y94241905D01*
X157305295Y94241905D02*
X157210057Y94289524D01*
X157210057Y94289524D02*
X157162438Y94337143D01*
X157162438Y94337143D02*
X157114819Y94432381D01*
X157114819Y94432381D02*
X157114819Y94622857D01*
X157114819Y94622857D02*
X157162438Y94718095D01*
X157162438Y94718095D02*
X157210057Y94765714D01*
X157210057Y94765714D02*
X157305295Y94813333D01*
X157305295Y94813333D02*
X157543390Y94813333D01*
X157543390Y94813333D02*
X157638628Y94765714D01*
X157638628Y94765714D02*
X157686247Y94718095D01*
X157686247Y94718095D02*
X157733866Y94622857D01*
X157733866Y94622857D02*
X157733866Y94432381D01*
X157733866Y94432381D02*
X157686247Y94337143D01*
X157686247Y94337143D02*
X157638628Y94289524D01*
X157638628Y94289524D02*
X157543390Y94241905D01*
X149619047Y33045181D02*
X149952380Y33521372D01*
X150190475Y33045181D02*
X150190475Y34045181D01*
X150190475Y34045181D02*
X149809523Y34045181D01*
X149809523Y34045181D02*
X149714285Y33997562D01*
X149714285Y33997562D02*
X149666666Y33949943D01*
X149666666Y33949943D02*
X149619047Y33854705D01*
X149619047Y33854705D02*
X149619047Y33711848D01*
X149619047Y33711848D02*
X149666666Y33616610D01*
X149666666Y33616610D02*
X149714285Y33568991D01*
X149714285Y33568991D02*
X149809523Y33521372D01*
X149809523Y33521372D02*
X150190475Y33521372D01*
X148761904Y33711848D02*
X148761904Y33045181D01*
X148999999Y34092800D02*
X149238094Y33378515D01*
X149238094Y33378515D02*
X148619047Y33378515D01*
X147714285Y33045181D02*
X148285713Y33045181D01*
X147999999Y33045181D02*
X147999999Y34045181D01*
X147999999Y34045181D02*
X148095237Y33902324D01*
X148095237Y33902324D02*
X148190475Y33807086D01*
X148190475Y33807086D02*
X148285713Y33759467D01*
X147095237Y34045181D02*
X146999999Y34045181D01*
X146999999Y34045181D02*
X146904761Y33997562D01*
X146904761Y33997562D02*
X146857142Y33949943D01*
X146857142Y33949943D02*
X146809523Y33854705D01*
X146809523Y33854705D02*
X146761904Y33664229D01*
X146761904Y33664229D02*
X146761904Y33426134D01*
X146761904Y33426134D02*
X146809523Y33235658D01*
X146809523Y33235658D02*
X146857142Y33140420D01*
X146857142Y33140420D02*
X146904761Y33092800D01*
X146904761Y33092800D02*
X146999999Y33045181D01*
X146999999Y33045181D02*
X147095237Y33045181D01*
X147095237Y33045181D02*
X147190475Y33092800D01*
X147190475Y33092800D02*
X147238094Y33140420D01*
X147238094Y33140420D02*
X147285713Y33235658D01*
X147285713Y33235658D02*
X147333332Y33426134D01*
X147333332Y33426134D02*
X147333332Y33664229D01*
X147333332Y33664229D02*
X147285713Y33854705D01*
X147285713Y33854705D02*
X147238094Y33949943D01*
X147238094Y33949943D02*
X147190475Y33997562D01*
X147190475Y33997562D02*
X147095237Y34045181D01*
X115109580Y98619048D02*
X115157200Y98666667D01*
X115157200Y98666667D02*
X115204819Y98809524D01*
X115204819Y98809524D02*
X115204819Y98904762D01*
X115204819Y98904762D02*
X115157200Y99047619D01*
X115157200Y99047619D02*
X115061961Y99142857D01*
X115061961Y99142857D02*
X114966723Y99190476D01*
X114966723Y99190476D02*
X114776247Y99238095D01*
X114776247Y99238095D02*
X114633390Y99238095D01*
X114633390Y99238095D02*
X114442914Y99190476D01*
X114442914Y99190476D02*
X114347676Y99142857D01*
X114347676Y99142857D02*
X114252438Y99047619D01*
X114252438Y99047619D02*
X114204819Y98904762D01*
X114204819Y98904762D02*
X114204819Y98809524D01*
X114204819Y98809524D02*
X114252438Y98666667D01*
X114252438Y98666667D02*
X114300057Y98619048D01*
X114633390Y98047619D02*
X114585771Y98142857D01*
X114585771Y98142857D02*
X114538152Y98190476D01*
X114538152Y98190476D02*
X114442914Y98238095D01*
X114442914Y98238095D02*
X114395295Y98238095D01*
X114395295Y98238095D02*
X114300057Y98190476D01*
X114300057Y98190476D02*
X114252438Y98142857D01*
X114252438Y98142857D02*
X114204819Y98047619D01*
X114204819Y98047619D02*
X114204819Y97857143D01*
X114204819Y97857143D02*
X114252438Y97761905D01*
X114252438Y97761905D02*
X114300057Y97714286D01*
X114300057Y97714286D02*
X114395295Y97666667D01*
X114395295Y97666667D02*
X114442914Y97666667D01*
X114442914Y97666667D02*
X114538152Y97714286D01*
X114538152Y97714286D02*
X114585771Y97761905D01*
X114585771Y97761905D02*
X114633390Y97857143D01*
X114633390Y97857143D02*
X114633390Y98047619D01*
X114633390Y98047619D02*
X114681009Y98142857D01*
X114681009Y98142857D02*
X114728628Y98190476D01*
X114728628Y98190476D02*
X114823866Y98238095D01*
X114823866Y98238095D02*
X115014342Y98238095D01*
X115014342Y98238095D02*
X115109580Y98190476D01*
X115109580Y98190476D02*
X115157200Y98142857D01*
X115157200Y98142857D02*
X115204819Y98047619D01*
X115204819Y98047619D02*
X115204819Y97857143D01*
X115204819Y97857143D02*
X115157200Y97761905D01*
X115157200Y97761905D02*
X115109580Y97714286D01*
X115109580Y97714286D02*
X115014342Y97666667D01*
X115014342Y97666667D02*
X114823866Y97666667D01*
X114823866Y97666667D02*
X114728628Y97714286D01*
X114728628Y97714286D02*
X114681009Y97761905D01*
X114681009Y97761905D02*
X114633390Y97857143D01*
X114204819Y97047619D02*
X114204819Y96952381D01*
X114204819Y96952381D02*
X114252438Y96857143D01*
X114252438Y96857143D02*
X114300057Y96809524D01*
X114300057Y96809524D02*
X114395295Y96761905D01*
X114395295Y96761905D02*
X114585771Y96714286D01*
X114585771Y96714286D02*
X114823866Y96714286D01*
X114823866Y96714286D02*
X115014342Y96761905D01*
X115014342Y96761905D02*
X115109580Y96809524D01*
X115109580Y96809524D02*
X115157200Y96857143D01*
X115157200Y96857143D02*
X115204819Y96952381D01*
X115204819Y96952381D02*
X115204819Y97047619D01*
X115204819Y97047619D02*
X115157200Y97142857D01*
X115157200Y97142857D02*
X115109580Y97190476D01*
X115109580Y97190476D02*
X115014342Y97238095D01*
X115014342Y97238095D02*
X114823866Y97285714D01*
X114823866Y97285714D02*
X114585771Y97285714D01*
X114585771Y97285714D02*
X114395295Y97238095D01*
X114395295Y97238095D02*
X114300057Y97190476D01*
X114300057Y97190476D02*
X114252438Y97142857D01*
X114252438Y97142857D02*
X114204819Y97047619D01*
X114204819Y95857143D02*
X114204819Y96047619D01*
X114204819Y96047619D02*
X114252438Y96142857D01*
X114252438Y96142857D02*
X114300057Y96190476D01*
X114300057Y96190476D02*
X114442914Y96285714D01*
X114442914Y96285714D02*
X114633390Y96333333D01*
X114633390Y96333333D02*
X115014342Y96333333D01*
X115014342Y96333333D02*
X115109580Y96285714D01*
X115109580Y96285714D02*
X115157200Y96238095D01*
X115157200Y96238095D02*
X115204819Y96142857D01*
X115204819Y96142857D02*
X115204819Y95952381D01*
X115204819Y95952381D02*
X115157200Y95857143D01*
X115157200Y95857143D02*
X115109580Y95809524D01*
X115109580Y95809524D02*
X115014342Y95761905D01*
X115014342Y95761905D02*
X114776247Y95761905D01*
X114776247Y95761905D02*
X114681009Y95809524D01*
X114681009Y95809524D02*
X114633390Y95857143D01*
X114633390Y95857143D02*
X114585771Y95952381D01*
X114585771Y95952381D02*
X114585771Y96142857D01*
X114585771Y96142857D02*
X114633390Y96238095D01*
X114633390Y96238095D02*
X114681009Y96285714D01*
X114681009Y96285714D02*
X114776247Y96333333D01*
X125024819Y68944048D02*
X124548628Y69277381D01*
X125024819Y69515476D02*
X124024819Y69515476D01*
X124024819Y69515476D02*
X124024819Y69134524D01*
X124024819Y69134524D02*
X124072438Y69039286D01*
X124072438Y69039286D02*
X124120057Y68991667D01*
X124120057Y68991667D02*
X124215295Y68944048D01*
X124215295Y68944048D02*
X124358152Y68944048D01*
X124358152Y68944048D02*
X124453390Y68991667D01*
X124453390Y68991667D02*
X124501009Y69039286D01*
X124501009Y69039286D02*
X124548628Y69134524D01*
X124548628Y69134524D02*
X124548628Y69515476D01*
X124358152Y68086905D02*
X125024819Y68086905D01*
X123977200Y68325000D02*
X124691485Y68563095D01*
X124691485Y68563095D02*
X124691485Y67944048D01*
X124024819Y67372619D02*
X124024819Y67277381D01*
X124024819Y67277381D02*
X124072438Y67182143D01*
X124072438Y67182143D02*
X124120057Y67134524D01*
X124120057Y67134524D02*
X124215295Y67086905D01*
X124215295Y67086905D02*
X124405771Y67039286D01*
X124405771Y67039286D02*
X124643866Y67039286D01*
X124643866Y67039286D02*
X124834342Y67086905D01*
X124834342Y67086905D02*
X124929580Y67134524D01*
X124929580Y67134524D02*
X124977200Y67182143D01*
X124977200Y67182143D02*
X125024819Y67277381D01*
X125024819Y67277381D02*
X125024819Y67372619D01*
X125024819Y67372619D02*
X124977200Y67467857D01*
X124977200Y67467857D02*
X124929580Y67515476D01*
X124929580Y67515476D02*
X124834342Y67563095D01*
X124834342Y67563095D02*
X124643866Y67610714D01*
X124643866Y67610714D02*
X124405771Y67610714D01*
X124405771Y67610714D02*
X124215295Y67563095D01*
X124215295Y67563095D02*
X124120057Y67515476D01*
X124120057Y67515476D02*
X124072438Y67467857D01*
X124072438Y67467857D02*
X124024819Y67372619D01*
X124024819Y66705952D02*
X124024819Y66086905D01*
X124024819Y66086905D02*
X124405771Y66420238D01*
X124405771Y66420238D02*
X124405771Y66277381D01*
X124405771Y66277381D02*
X124453390Y66182143D01*
X124453390Y66182143D02*
X124501009Y66134524D01*
X124501009Y66134524D02*
X124596247Y66086905D01*
X124596247Y66086905D02*
X124834342Y66086905D01*
X124834342Y66086905D02*
X124929580Y66134524D01*
X124929580Y66134524D02*
X124977200Y66182143D01*
X124977200Y66182143D02*
X125024819Y66277381D01*
X125024819Y66277381D02*
X125024819Y66563095D01*
X125024819Y66563095D02*
X124977200Y66658333D01*
X124977200Y66658333D02*
X124929580Y66705952D01*
X187409047Y59890420D02*
X187456666Y59842800D01*
X187456666Y59842800D02*
X187599523Y59795181D01*
X187599523Y59795181D02*
X187694761Y59795181D01*
X187694761Y59795181D02*
X187837618Y59842800D01*
X187837618Y59842800D02*
X187932856Y59938039D01*
X187932856Y59938039D02*
X187980475Y60033277D01*
X187980475Y60033277D02*
X188028094Y60223753D01*
X188028094Y60223753D02*
X188028094Y60366610D01*
X188028094Y60366610D02*
X187980475Y60557086D01*
X187980475Y60557086D02*
X187932856Y60652324D01*
X187932856Y60652324D02*
X187837618Y60747562D01*
X187837618Y60747562D02*
X187694761Y60795181D01*
X187694761Y60795181D02*
X187599523Y60795181D01*
X187599523Y60795181D02*
X187456666Y60747562D01*
X187456666Y60747562D02*
X187409047Y60699943D01*
X186504285Y60795181D02*
X186980475Y60795181D01*
X186980475Y60795181D02*
X187028094Y60318991D01*
X187028094Y60318991D02*
X186980475Y60366610D01*
X186980475Y60366610D02*
X186885237Y60414229D01*
X186885237Y60414229D02*
X186647142Y60414229D01*
X186647142Y60414229D02*
X186551904Y60366610D01*
X186551904Y60366610D02*
X186504285Y60318991D01*
X186504285Y60318991D02*
X186456666Y60223753D01*
X186456666Y60223753D02*
X186456666Y59985658D01*
X186456666Y59985658D02*
X186504285Y59890420D01*
X186504285Y59890420D02*
X186551904Y59842800D01*
X186551904Y59842800D02*
X186647142Y59795181D01*
X186647142Y59795181D02*
X186885237Y59795181D01*
X186885237Y59795181D02*
X186980475Y59842800D01*
X186980475Y59842800D02*
X187028094Y59890420D01*
X185837618Y60795181D02*
X185742380Y60795181D01*
X185742380Y60795181D02*
X185647142Y60747562D01*
X185647142Y60747562D02*
X185599523Y60699943D01*
X185599523Y60699943D02*
X185551904Y60604705D01*
X185551904Y60604705D02*
X185504285Y60414229D01*
X185504285Y60414229D02*
X185504285Y60176134D01*
X185504285Y60176134D02*
X185551904Y59985658D01*
X185551904Y59985658D02*
X185599523Y59890420D01*
X185599523Y59890420D02*
X185647142Y59842800D01*
X185647142Y59842800D02*
X185742380Y59795181D01*
X185742380Y59795181D02*
X185837618Y59795181D01*
X185837618Y59795181D02*
X185932856Y59842800D01*
X185932856Y59842800D02*
X185980475Y59890420D01*
X185980475Y59890420D02*
X186028094Y59985658D01*
X186028094Y59985658D02*
X186075713Y60176134D01*
X186075713Y60176134D02*
X186075713Y60414229D01*
X186075713Y60414229D02*
X186028094Y60604705D01*
X186028094Y60604705D02*
X185980475Y60699943D01*
X185980475Y60699943D02*
X185932856Y60747562D01*
X185932856Y60747562D02*
X185837618Y60795181D01*
X184647142Y60461848D02*
X184647142Y59795181D01*
X184885237Y60842800D02*
X185123332Y60128515D01*
X185123332Y60128515D02*
X184504285Y60128515D01*
X13107142Y112068991D02*
X13440475Y112068991D01*
X13440475Y111545181D02*
X13440475Y112545181D01*
X13440475Y112545181D02*
X12964285Y112545181D01*
X12583332Y111545181D02*
X12583332Y112545181D01*
X12583332Y112545181D02*
X12249999Y111830896D01*
X12249999Y111830896D02*
X11916666Y112545181D01*
X11916666Y112545181D02*
X11916666Y111545181D01*
X11488094Y112449943D02*
X11440475Y112497562D01*
X11440475Y112497562D02*
X11345237Y112545181D01*
X11345237Y112545181D02*
X11107142Y112545181D01*
X11107142Y112545181D02*
X11011904Y112497562D01*
X11011904Y112497562D02*
X10964285Y112449943D01*
X10964285Y112449943D02*
X10916666Y112354705D01*
X10916666Y112354705D02*
X10916666Y112259467D01*
X10916666Y112259467D02*
X10964285Y112116610D01*
X10964285Y112116610D02*
X11535713Y111545181D01*
X11535713Y111545181D02*
X10916666Y111545181D01*
X10297618Y112545181D02*
X10202380Y112545181D01*
X10202380Y112545181D02*
X10107142Y112497562D01*
X10107142Y112497562D02*
X10059523Y112449943D01*
X10059523Y112449943D02*
X10011904Y112354705D01*
X10011904Y112354705D02*
X9964285Y112164229D01*
X9964285Y112164229D02*
X9964285Y111926134D01*
X9964285Y111926134D02*
X10011904Y111735658D01*
X10011904Y111735658D02*
X10059523Y111640420D01*
X10059523Y111640420D02*
X10107142Y111592800D01*
X10107142Y111592800D02*
X10202380Y111545181D01*
X10202380Y111545181D02*
X10297618Y111545181D01*
X10297618Y111545181D02*
X10392856Y111592800D01*
X10392856Y111592800D02*
X10440475Y111640420D01*
X10440475Y111640420D02*
X10488094Y111735658D01*
X10488094Y111735658D02*
X10535713Y111926134D01*
X10535713Y111926134D02*
X10535713Y112164229D01*
X10535713Y112164229D02*
X10488094Y112354705D01*
X10488094Y112354705D02*
X10440475Y112449943D01*
X10440475Y112449943D02*
X10392856Y112497562D01*
X10392856Y112497562D02*
X10297618Y112545181D01*
X9107142Y112211848D02*
X9107142Y111545181D01*
X9345237Y112592800D02*
X9583332Y111878515D01*
X9583332Y111878515D02*
X8964285Y111878515D01*
D12*
%TO.C,J401*%
X161181000Y30670000D02*
G75*
G02*
X160419000Y30670000I-381000J0D01*
G01*
X160419000Y30670000D02*
G75*
G02*
X161181000Y30670000I381000J0D01*
G01*
%TO.C,J502*%
X114311000Y18000000D02*
G75*
G02*
X113549000Y18000000I-381000J0D01*
G01*
X113549000Y18000000D02*
G75*
G02*
X114311000Y18000000I381000J0D01*
G01*
D13*
%TO.C,R816*%
X160346359Y109380000D02*
X160653641Y109380000D01*
X160346359Y108620000D02*
X160653641Y108620000D01*
%TO.C,C434*%
X150640000Y38627836D02*
X150640000Y38412164D01*
X151360000Y38627836D02*
X151360000Y38412164D01*
%TO.C,C906*%
X92140000Y50892164D02*
X92140000Y51107836D01*
X92860000Y50892164D02*
X92860000Y51107836D01*
D14*
%TO.C,D403*%
X162375000Y30250000D02*
X162375000Y32800000D01*
X163625000Y30250000D02*
X163625000Y31950000D01*
D13*
%TO.C,C804*%
X116892164Y100360000D02*
X117107836Y100360000D01*
X116892164Y99640000D02*
X117107836Y99640000D01*
%TO.C,C803*%
X125087836Y102360000D02*
X124872164Y102360000D01*
X125087836Y101640000D02*
X124872164Y101640000D01*
%TO.C,C905*%
X93640000Y51392164D02*
X93640000Y51607836D01*
X94360000Y51392164D02*
X94360000Y51607836D01*
%TO.C,R909*%
X104120000Y46021359D02*
X104120000Y46328641D01*
X104880000Y46021359D02*
X104880000Y46328641D01*
%TO.C,C808*%
X125140000Y95622164D02*
X125140000Y95837836D01*
X125860000Y95622164D02*
X125860000Y95837836D01*
%TO.C,R818*%
X141477500Y104912258D02*
X141477500Y104437742D01*
X142522500Y104912258D02*
X142522500Y104437742D01*
%TO.C,C810*%
X148392164Y101360000D02*
X148607836Y101360000D01*
X148392164Y100640000D02*
X148607836Y100640000D01*
%TO.C,C902*%
X88390000Y46372164D02*
X88390000Y46587836D01*
X89110000Y46372164D02*
X89110000Y46587836D01*
%TO.C,R922*%
X105477500Y46162258D02*
X105477500Y45687742D01*
X106522500Y46162258D02*
X106522500Y45687742D01*
%TO.C,R409*%
X151653641Y32630000D02*
X151346359Y32630000D01*
X151653641Y31870000D02*
X151346359Y31870000D01*
%TO.C,C805*%
X120490000Y103365580D02*
X120490000Y103084420D01*
X121510000Y103365580D02*
X121510000Y103084420D01*
%TO.C,C903*%
X93892164Y46360000D02*
X94107836Y46360000D01*
X93892164Y45640000D02*
X94107836Y45640000D01*
D14*
%TO.C,D404*%
X153125000Y27950000D02*
X153125000Y26250000D01*
X154375000Y27950000D02*
X154375000Y25400000D01*
D13*
%TO.C,R817*%
X148120000Y106653641D02*
X148120000Y106346359D01*
X148880000Y106653641D02*
X148880000Y106346359D01*
%TO.C,C807*%
X116640000Y97607836D02*
X116640000Y97392164D01*
X117360000Y97607836D02*
X117360000Y97392164D01*
%TO.C,C812*%
X142620000Y98392164D02*
X142620000Y98607836D01*
X143340000Y98392164D02*
X143340000Y98607836D01*
%TO.C,C505*%
X195140000Y91587836D02*
X195140000Y91372164D01*
X195860000Y91587836D02*
X195860000Y91372164D01*
D14*
%TO.C,D408*%
X153125000Y38550000D02*
X153125000Y41100000D01*
X154375000Y38550000D02*
X154375000Y40250000D01*
D13*
%TO.C,C901*%
X86890000Y46352164D02*
X86890000Y46567836D01*
X87610000Y46352164D02*
X87610000Y46567836D01*
%TO.C,R411*%
X151653641Y36630000D02*
X151346359Y36630000D01*
X151653641Y35870000D02*
X151346359Y35870000D01*
D14*
%TO.C,D406*%
X156375000Y38550000D02*
X156375000Y41100000D01*
X157625000Y38550000D02*
X157625000Y40250000D01*
D13*
%TO.C,C904*%
X93892164Y44860000D02*
X94107836Y44860000D01*
X93892164Y44140000D02*
X94107836Y44140000D01*
D14*
%TO.C,D405*%
X156375000Y27950000D02*
X156375000Y26250000D01*
X157625000Y27950000D02*
X157625000Y25400000D01*
D13*
%TO.C,R408*%
X151653641Y31380000D02*
X151346359Y31380000D01*
X151653641Y30620000D02*
X151346359Y30620000D01*
%TO.C,R819*%
X154227500Y111512742D02*
X154227500Y111987258D01*
X155272500Y111512742D02*
X155272500Y111987258D01*
%TO.C,C506*%
X184390000Y63607836D02*
X184390000Y63392164D01*
X185110000Y63607836D02*
X185110000Y63392164D01*
%TO.C,C809*%
X156140000Y96087836D02*
X156140000Y95872164D01*
X156860000Y96087836D02*
X156860000Y95872164D01*
%TO.C,R410*%
X151653641Y34130000D02*
X151346359Y34130000D01*
X151653641Y33370000D02*
X151346359Y33370000D01*
%TO.C,C806*%
X115640000Y97607836D02*
X115640000Y97392164D01*
X116360000Y97607836D02*
X116360000Y97392164D01*
%TO.C,R403*%
X125477500Y67587742D02*
X125477500Y68062258D01*
X126522500Y67587742D02*
X126522500Y68062258D01*
%TO.C,C504*%
X184162164Y59110000D02*
X184377836Y59110000D01*
X184162164Y58390000D02*
X184377836Y58390000D01*
%TD*%
%LPC*%
D15*
%TO.C,J503*%
X191750000Y60210000D03*
D16*
X189210000Y60210000D03*
X191750000Y62750000D03*
X189210000Y62750000D03*
X191750000Y65290000D03*
X189210000Y65290000D03*
X191750000Y67830000D03*
X189210000Y67830000D03*
X191750000Y70370000D03*
X189210000Y70370000D03*
X191750000Y72910000D03*
X189210000Y72910000D03*
X191750000Y75450000D03*
X189210000Y75450000D03*
X191750000Y77990000D03*
X189210000Y77990000D03*
X191750000Y80530000D03*
X189210000Y80530000D03*
X191750000Y83070000D03*
X189210000Y83070000D03*
%TD*%
D17*
%TO.C,H203*%
X195000000Y5000000D03*
%TD*%
D18*
%TO.C,J801*%
X156540000Y104890000D03*
X145110000Y104890000D03*
D19*
X155270000Y98540000D03*
X154000000Y96000000D03*
X152730000Y98540000D03*
X151460000Y96000000D03*
X150190000Y98540000D03*
X148920000Y96000000D03*
X147650000Y98540000D03*
X146380000Y96000000D03*
D20*
X157555000Y101840000D03*
X144095000Y101840000D03*
D21*
X157450000Y108950000D03*
X154910000Y108950000D03*
X146740000Y108950000D03*
X144200000Y108950000D03*
%TD*%
D22*
%TO.C,J602*%
X5500000Y61000000D03*
D23*
X5500000Y55920000D03*
%TD*%
D17*
%TO.C,H201*%
X5000000Y110000000D03*
%TD*%
D22*
%TO.C,J604*%
X49920000Y5600000D03*
D23*
X55000000Y5600000D03*
%TD*%
D24*
%TO.C,J401*%
X158000000Y31170000D03*
X156730000Y31170000D03*
X158000000Y32440000D03*
X156730000Y32440000D03*
X158000000Y33710000D03*
X156730000Y33710000D03*
X158000000Y34980000D03*
X156730000Y34980000D03*
X158000000Y36250000D03*
X156730000Y36250000D03*
%TD*%
D17*
%TO.C,H204*%
X5000000Y5000000D03*
%TD*%
D25*
%TO.C,R601*%
X22000000Y98500000D03*
D26*
X20000000Y88500000D03*
%TD*%
D22*
%TO.C,J606*%
X83920000Y5600000D03*
D23*
X89000000Y5600000D03*
%TD*%
D17*
%TO.C,H202*%
X195000000Y110000000D03*
%TD*%
D22*
%TO.C,J701*%
X195000000Y25500000D03*
D23*
X195000000Y30580000D03*
X195000000Y35660000D03*
%TD*%
D25*
%TO.C,R603*%
X22000000Y42000000D03*
D26*
X20000000Y32000000D03*
%TD*%
D22*
%TO.C,J605*%
X66920000Y5600000D03*
D23*
X72000000Y5600000D03*
%TD*%
D22*
%TO.C,J601*%
X5500000Y93580000D03*
D23*
X5500000Y88500000D03*
%TD*%
D22*
%TO.C,J202*%
X79412500Y109725000D03*
D23*
X74332500Y109725000D03*
%TD*%
D25*
%TO.C,R602*%
X22000000Y70500000D03*
D26*
X20000000Y60500000D03*
%TD*%
D24*
%TO.C,J502*%
X114430000Y20800000D03*
X114430000Y22070000D03*
X115700000Y20800000D03*
X115700000Y22070000D03*
X116970000Y20800000D03*
X116970000Y22070000D03*
X118240000Y20800000D03*
X118240000Y22070000D03*
X119510000Y20800000D03*
X119510000Y22070000D03*
%TD*%
D27*
%TO.C,J201*%
X64802500Y107900000D03*
X59022500Y107900000D03*
D28*
X66232500Y107400000D03*
D29*
X66232500Y111580000D03*
D28*
X57592500Y107400000D03*
D29*
X57592500Y111580000D03*
%TD*%
D22*
%TO.C,J603*%
X5500000Y26000000D03*
D23*
X5500000Y20920000D03*
%TD*%
D30*
%TO.C,R816*%
X161010000Y109000000D03*
X159990000Y109000000D03*
%TD*%
D31*
%TO.C,C434*%
X151000000Y38040000D03*
X151000000Y39000000D03*
%TD*%
D32*
%TO.C,C906*%
X92500000Y51480000D03*
X92500000Y50520000D03*
%TD*%
D33*
%TO.C,D403*%
X163000000Y32250000D03*
X163000000Y29950000D03*
%TD*%
D34*
%TO.C,C804*%
X117480000Y100000000D03*
X116520000Y100000000D03*
%TD*%
D35*
%TO.C,C803*%
X124500000Y102000000D03*
X125460000Y102000000D03*
%TD*%
D36*
%TO.C,FM205*%
X188750000Y110000000D03*
%TD*%
D32*
%TO.C,C905*%
X94000000Y51980000D03*
X94000000Y51020000D03*
%TD*%
D37*
%TO.C,R909*%
X104500000Y46685000D03*
X104500000Y45665000D03*
%TD*%
D32*
%TO.C,C808*%
X125500000Y96210000D03*
X125500000Y95250000D03*
%TD*%
D38*
%TO.C,R818*%
X142000000Y103850000D03*
X142000000Y105500000D03*
%TD*%
D34*
%TO.C,C810*%
X148980000Y101000000D03*
X148020000Y101000000D03*
%TD*%
D32*
%TO.C,C902*%
X88750000Y46960000D03*
X88750000Y46000000D03*
%TD*%
D38*
%TO.C,R922*%
X106000000Y45100000D03*
X106000000Y46750000D03*
%TD*%
D39*
%TO.C,R409*%
X150990000Y32250000D03*
X152010000Y32250000D03*
%TD*%
D40*
%TO.C,C805*%
X121000000Y102450000D03*
X121000000Y104000000D03*
%TD*%
D36*
%TO.C,FM206*%
X11250000Y5000000D03*
%TD*%
D34*
%TO.C,C903*%
X94480000Y46000000D03*
X93520000Y46000000D03*
%TD*%
D33*
%TO.C,D404*%
X153750000Y25950000D03*
X153750000Y28250000D03*
%TD*%
D41*
%TO.C,R817*%
X148500000Y105990000D03*
X148500000Y107010000D03*
%TD*%
D31*
%TO.C,C807*%
X117000000Y97020000D03*
X117000000Y97980000D03*
%TD*%
D32*
%TO.C,C812*%
X142980000Y98980000D03*
X142980000Y98020000D03*
%TD*%
D31*
%TO.C,C505*%
X195500000Y91000000D03*
X195500000Y91960000D03*
%TD*%
D33*
%TO.C,D408*%
X153750000Y40550000D03*
X153750000Y38250000D03*
%TD*%
D32*
%TO.C,C901*%
X87250000Y46940000D03*
X87250000Y45980000D03*
%TD*%
D39*
%TO.C,R411*%
X150990000Y36250000D03*
X152010000Y36250000D03*
%TD*%
D33*
%TO.C,D406*%
X157000000Y40550000D03*
X157000000Y38250000D03*
%TD*%
D34*
%TO.C,C904*%
X94480000Y44500000D03*
X93520000Y44500000D03*
%TD*%
D33*
%TO.C,D405*%
X157000000Y25950000D03*
X157000000Y28250000D03*
%TD*%
D39*
%TO.C,R408*%
X150990000Y31000000D03*
X152010000Y31000000D03*
%TD*%
D42*
%TO.C,R819*%
X154750000Y112575000D03*
X154750000Y110925000D03*
%TD*%
D31*
%TO.C,C506*%
X184750000Y63020000D03*
X184750000Y63980000D03*
%TD*%
%TO.C,C809*%
X156500000Y95500000D03*
X156500000Y96460000D03*
%TD*%
D39*
%TO.C,R410*%
X150990000Y33750000D03*
X152010000Y33750000D03*
%TD*%
D31*
%TO.C,C806*%
X116000000Y97020000D03*
X116000000Y97980000D03*
%TD*%
D42*
%TO.C,R403*%
X126000000Y68650000D03*
X126000000Y67000000D03*
%TD*%
D34*
%TO.C,C504*%
X184750000Y58750000D03*
X183790000Y58750000D03*
%TD*%
D36*
%TO.C,FM204*%
X11250000Y110000000D03*
%TD*%
%LPD*%
M02*
