%TF.GenerationSoftware,KiCad,Pcbnew,8.0.7*%
%TF.CreationDate,2025-11-12T22:50:05-06:00*%
%TF.ProjectId,EnergyMonitoringSystem,456e6572-6779-44d6-9f6e-69746f72696e,rev?*%
%TF.SameCoordinates,PX1c9c380PY91e9840*%
%TF.FileFunction,Soldermask,Bot*%
%TF.FilePolarity,Negative*%
%FSLAX46Y46*%
G04 Gerber Fmt 4.6, Leading zero omitted, Abs format (unit mm)*
G04 Created by KiCad (PCBNEW 8.0.7) date 2025-11-12 22:50:05*
%MOMM*%
%LPD*%
G01*
G04 APERTURE LIST*
G04 Aperture macros list*
%AMRoundRect*
0 Rectangle with rounded corners*
0 $1 Rounding radius*
0 $2 $3 $4 $5 $6 $7 $8 $9 X,Y pos of 4 corners*
0 Add a 4 corners polygon primitive as box body*
4,1,4,$2,$3,$4,$5,$6,$7,$8,$9,$2,$3,0*
0 Add four circle primitives for the rounded corners*
1,1,$1+$1,$2,$3*
1,1,$1+$1,$4,$5*
1,1,$1+$1,$6,$7*
1,1,$1+$1,$8,$9*
0 Add four rect primitives between the rounded corners*
20,1,$1+$1,$2,$3,$4,$5,0*
20,1,$1+$1,$4,$5,$6,$7,0*
20,1,$1+$1,$6,$7,$8,$9,0*
20,1,$1+$1,$8,$9,$2,$3,0*%
G04 Aperture macros list end*
%ADD10R,1.700000X1.700000*%
%ADD11O,1.700000X1.700000*%
%ADD12C,6.400000*%
%ADD13C,3.250000*%
%ADD14C,1.500000*%
%ADD15C,2.500000*%
%ADD16C,1.650000*%
%ADD17R,2.600000X2.600000*%
%ADD18C,2.600000*%
%ADD19C,1.143000*%
%ADD20R,1.800000X1.800000*%
%ADD21C,1.800000*%
%ADD22C,0.650000*%
%ADD23O,1.000000X2.100000*%
%ADD24O,1.000000X1.800000*%
%ADD25RoundRect,0.135000X0.135000X0.185000X-0.135000X0.185000X-0.135000X-0.185000X0.135000X-0.185000X0*%
%ADD26RoundRect,0.140000X0.170000X-0.140000X0.170000X0.140000X-0.170000X0.140000X-0.170000X-0.140000X0*%
%ADD27RoundRect,0.140000X-0.170000X0.140000X-0.170000X-0.140000X0.170000X-0.140000X0.170000X0.140000X0*%
%ADD28R,0.500000X1.100000*%
%ADD29RoundRect,0.140000X0.140000X0.170000X-0.140000X0.170000X-0.140000X-0.170000X0.140000X-0.170000X0*%
%ADD30RoundRect,0.140000X-0.140000X-0.170000X0.140000X-0.170000X0.140000X0.170000X-0.140000X0.170000X0*%
%ADD31C,2.000000*%
%ADD32RoundRect,0.135000X-0.185000X0.135000X-0.185000X-0.135000X0.185000X-0.135000X0.185000X0.135000X0*%
%ADD33RoundRect,0.200000X0.275000X-0.200000X0.275000X0.200000X-0.275000X0.200000X-0.275000X-0.200000X0*%
%ADD34RoundRect,0.135000X-0.135000X-0.185000X0.135000X-0.185000X0.135000X0.185000X-0.135000X0.185000X0*%
%ADD35RoundRect,0.225000X0.250000X-0.225000X0.250000X0.225000X-0.250000X0.225000X-0.250000X-0.225000X0*%
%ADD36RoundRect,0.135000X0.185000X-0.135000X0.185000X0.135000X-0.185000X0.135000X-0.185000X-0.135000X0*%
%ADD37RoundRect,0.200000X-0.275000X0.200000X-0.275000X-0.200000X0.275000X-0.200000X0.275000X0.200000X0*%
G04 APERTURE END LIST*
D10*
%TO.C,J503*%
X191750000Y60210000D03*
D11*
X189210000Y60210000D03*
X191750000Y62750000D03*
X189210000Y62750000D03*
X191750000Y65290000D03*
X189210000Y65290000D03*
X191750000Y67830000D03*
X189210000Y67830000D03*
X191750000Y70370000D03*
X189210000Y70370000D03*
X191750000Y72910000D03*
X189210000Y72910000D03*
X191750000Y75450000D03*
X189210000Y75450000D03*
X191750000Y77990000D03*
X189210000Y77990000D03*
X191750000Y80530000D03*
X189210000Y80530000D03*
X191750000Y83070000D03*
X189210000Y83070000D03*
%TD*%
D12*
%TO.C,H203*%
X195000000Y5000000D03*
%TD*%
D13*
%TO.C,J801*%
X156540000Y104890000D03*
X145110000Y104890000D03*
D14*
X155270000Y98540000D03*
X154000000Y96000000D03*
X152730000Y98540000D03*
X151460000Y96000000D03*
X150190000Y98540000D03*
X148920000Y96000000D03*
X147650000Y98540000D03*
X146380000Y96000000D03*
D15*
X157555000Y101840000D03*
X144095000Y101840000D03*
D16*
X157450000Y108950000D03*
X154910000Y108950000D03*
X146740000Y108950000D03*
X144200000Y108950000D03*
%TD*%
D17*
%TO.C,J602*%
X5500000Y61000000D03*
D18*
X5500000Y55920000D03*
%TD*%
D12*
%TO.C,H201*%
X5000000Y110000000D03*
%TD*%
D17*
%TO.C,J604*%
X49920000Y5600000D03*
D18*
X55000000Y5600000D03*
%TD*%
D19*
%TO.C,J401*%
X158000000Y31170000D03*
X156730000Y31170000D03*
X158000000Y32440000D03*
X156730000Y32440000D03*
X158000000Y33710000D03*
X156730000Y33710000D03*
X158000000Y34980000D03*
X156730000Y34980000D03*
X158000000Y36250000D03*
X156730000Y36250000D03*
%TD*%
D12*
%TO.C,H204*%
X5000000Y5000000D03*
%TD*%
D20*
%TO.C,R601*%
X22000000Y98500000D03*
D21*
X20000000Y88500000D03*
%TD*%
D17*
%TO.C,J606*%
X83920000Y5600000D03*
D18*
X89000000Y5600000D03*
%TD*%
D12*
%TO.C,H202*%
X195000000Y110000000D03*
%TD*%
D17*
%TO.C,J701*%
X195000000Y25500000D03*
D18*
X195000000Y30580000D03*
X195000000Y35660000D03*
%TD*%
D20*
%TO.C,R603*%
X22000000Y42000000D03*
D21*
X20000000Y32000000D03*
%TD*%
D17*
%TO.C,J605*%
X66920000Y5600000D03*
D18*
X72000000Y5600000D03*
%TD*%
D17*
%TO.C,J601*%
X5500000Y93580000D03*
D18*
X5500000Y88500000D03*
%TD*%
D17*
%TO.C,J202*%
X79412500Y109725000D03*
D18*
X74332500Y109725000D03*
%TD*%
D20*
%TO.C,R602*%
X22000000Y70500000D03*
D21*
X20000000Y60500000D03*
%TD*%
D19*
%TO.C,J502*%
X114430000Y20800000D03*
X114430000Y22070000D03*
X115700000Y20800000D03*
X115700000Y22070000D03*
X116970000Y20800000D03*
X116970000Y22070000D03*
X118240000Y20800000D03*
X118240000Y22070000D03*
X119510000Y20800000D03*
X119510000Y22070000D03*
%TD*%
D22*
%TO.C,J201*%
X64802500Y107900000D03*
X59022500Y107900000D03*
D23*
X66232500Y107400000D03*
D24*
X66232500Y111580000D03*
D23*
X57592500Y107400000D03*
D24*
X57592500Y111580000D03*
%TD*%
D17*
%TO.C,J603*%
X5500000Y26000000D03*
D18*
X5500000Y20920000D03*
%TD*%
D25*
%TO.C,R816*%
X161010000Y109000000D03*
X159990000Y109000000D03*
%TD*%
D26*
%TO.C,C434*%
X151000000Y38040000D03*
X151000000Y39000000D03*
%TD*%
D27*
%TO.C,C906*%
X92500000Y51480000D03*
X92500000Y50520000D03*
%TD*%
D28*
%TO.C,D403*%
X163000000Y32250000D03*
X163000000Y29950000D03*
%TD*%
D29*
%TO.C,C804*%
X117480000Y100000000D03*
X116520000Y100000000D03*
%TD*%
D30*
%TO.C,C803*%
X124500000Y102000000D03*
X125460000Y102000000D03*
%TD*%
D31*
%TO.C,FM205*%
X188750000Y110000000D03*
%TD*%
D27*
%TO.C,C905*%
X94000000Y51980000D03*
X94000000Y51020000D03*
%TD*%
D32*
%TO.C,R909*%
X104500000Y46685000D03*
X104500000Y45665000D03*
%TD*%
D27*
%TO.C,C808*%
X125500000Y96210000D03*
X125500000Y95250000D03*
%TD*%
D33*
%TO.C,R818*%
X142000000Y103850000D03*
X142000000Y105500000D03*
%TD*%
D29*
%TO.C,C810*%
X148980000Y101000000D03*
X148020000Y101000000D03*
%TD*%
D27*
%TO.C,C902*%
X88750000Y46960000D03*
X88750000Y46000000D03*
%TD*%
D33*
%TO.C,R922*%
X106000000Y45100000D03*
X106000000Y46750000D03*
%TD*%
D34*
%TO.C,R409*%
X150990000Y32250000D03*
X152010000Y32250000D03*
%TD*%
D35*
%TO.C,C805*%
X121000000Y102450000D03*
X121000000Y104000000D03*
%TD*%
D31*
%TO.C,FM206*%
X11250000Y5000000D03*
%TD*%
D29*
%TO.C,C903*%
X94480000Y46000000D03*
X93520000Y46000000D03*
%TD*%
D28*
%TO.C,D404*%
X153750000Y25950000D03*
X153750000Y28250000D03*
%TD*%
D36*
%TO.C,R817*%
X148500000Y105990000D03*
X148500000Y107010000D03*
%TD*%
D26*
%TO.C,C807*%
X117000000Y97020000D03*
X117000000Y97980000D03*
%TD*%
D27*
%TO.C,C812*%
X142980000Y98980000D03*
X142980000Y98020000D03*
%TD*%
D26*
%TO.C,C505*%
X195500000Y91000000D03*
X195500000Y91960000D03*
%TD*%
D28*
%TO.C,D408*%
X153750000Y40550000D03*
X153750000Y38250000D03*
%TD*%
D27*
%TO.C,C901*%
X87250000Y46940000D03*
X87250000Y45980000D03*
%TD*%
D34*
%TO.C,R411*%
X150990000Y36250000D03*
X152010000Y36250000D03*
%TD*%
D28*
%TO.C,D406*%
X157000000Y40550000D03*
X157000000Y38250000D03*
%TD*%
D29*
%TO.C,C904*%
X94480000Y44500000D03*
X93520000Y44500000D03*
%TD*%
D28*
%TO.C,D405*%
X157000000Y25950000D03*
X157000000Y28250000D03*
%TD*%
D34*
%TO.C,R408*%
X150990000Y31000000D03*
X152010000Y31000000D03*
%TD*%
D37*
%TO.C,R819*%
X154750000Y112575000D03*
X154750000Y110925000D03*
%TD*%
D26*
%TO.C,C506*%
X184750000Y63020000D03*
X184750000Y63980000D03*
%TD*%
%TO.C,C809*%
X156500000Y95500000D03*
X156500000Y96460000D03*
%TD*%
D34*
%TO.C,R410*%
X150990000Y33750000D03*
X152010000Y33750000D03*
%TD*%
D26*
%TO.C,C806*%
X116000000Y97020000D03*
X116000000Y97980000D03*
%TD*%
D37*
%TO.C,R403*%
X126000000Y68650000D03*
X126000000Y67000000D03*
%TD*%
D29*
%TO.C,C504*%
X184750000Y58750000D03*
X183790000Y58750000D03*
%TD*%
D31*
%TO.C,FM204*%
X11250000Y110000000D03*
%TD*%
M02*
