%TF.GenerationSoftware,KiCad,Pcbnew,8.0.7*%
%TF.CreationDate,2025-11-12T22:50:05-06:00*%
%TF.ProjectId,EnergyMonitoringSystem,456e6572-6779-44d6-9f6e-69746f72696e,rev?*%
%TF.SameCoordinates,PX1c9c380PY91e9840*%
%TF.FileFunction,Paste,Bot*%
%TF.FilePolarity,Positive*%
%FSLAX46Y46*%
G04 Gerber Fmt 4.6, Leading zero omitted, Abs format (unit mm)*
G04 Created by KiCad (PCBNEW 8.0.7) date 2025-11-12 22:50:05*
%MOMM*%
%LPD*%
G01*
G04 APERTURE LIST*
G04 Aperture macros list*
%AMRoundRect*
0 Rectangle with rounded corners*
0 $1 Rounding radius*
0 $2 $3 $4 $5 $6 $7 $8 $9 X,Y pos of 4 corners*
0 Add a 4 corners polygon primitive as box body*
4,1,4,$2,$3,$4,$5,$6,$7,$8,$9,$2,$3,0*
0 Add four circle primitives for the rounded corners*
1,1,$1+$1,$2,$3*
1,1,$1+$1,$4,$5*
1,1,$1+$1,$6,$7*
1,1,$1+$1,$8,$9*
0 Add four rect primitives between the rounded corners*
20,1,$1+$1,$2,$3,$4,$5,0*
20,1,$1+$1,$4,$5,$6,$7,0*
20,1,$1+$1,$6,$7,$8,$9,0*
20,1,$1+$1,$8,$9,$2,$3,0*%
G04 Aperture macros list end*
%ADD10RoundRect,0.135000X0.135000X0.185000X-0.135000X0.185000X-0.135000X-0.185000X0.135000X-0.185000X0*%
%ADD11RoundRect,0.140000X0.170000X-0.140000X0.170000X0.140000X-0.170000X0.140000X-0.170000X-0.140000X0*%
%ADD12RoundRect,0.140000X-0.170000X0.140000X-0.170000X-0.140000X0.170000X-0.140000X0.170000X0.140000X0*%
%ADD13R,0.500000X1.100000*%
%ADD14RoundRect,0.140000X0.140000X0.170000X-0.140000X0.170000X-0.140000X-0.170000X0.140000X-0.170000X0*%
%ADD15RoundRect,0.140000X-0.140000X-0.170000X0.140000X-0.170000X0.140000X0.170000X-0.140000X0.170000X0*%
%ADD16RoundRect,0.135000X-0.185000X0.135000X-0.185000X-0.135000X0.185000X-0.135000X0.185000X0.135000X0*%
%ADD17RoundRect,0.200000X0.275000X-0.200000X0.275000X0.200000X-0.275000X0.200000X-0.275000X-0.200000X0*%
%ADD18RoundRect,0.135000X-0.135000X-0.185000X0.135000X-0.185000X0.135000X0.185000X-0.135000X0.185000X0*%
%ADD19RoundRect,0.225000X0.250000X-0.225000X0.250000X0.225000X-0.250000X0.225000X-0.250000X-0.225000X0*%
%ADD20RoundRect,0.135000X0.185000X-0.135000X0.185000X0.135000X-0.185000X0.135000X-0.185000X-0.135000X0*%
%ADD21RoundRect,0.200000X-0.275000X0.200000X-0.275000X-0.200000X0.275000X-0.200000X0.275000X0.200000X0*%
G04 APERTURE END LIST*
D10*
%TO.C,R816*%
X161010000Y109000000D03*
X159990000Y109000000D03*
%TD*%
D11*
%TO.C,C434*%
X151000000Y38040000D03*
X151000000Y39000000D03*
%TD*%
D12*
%TO.C,C906*%
X92500000Y51480000D03*
X92500000Y50520000D03*
%TD*%
D13*
%TO.C,D403*%
X163000000Y32250000D03*
X163000000Y29950000D03*
%TD*%
D14*
%TO.C,C804*%
X117480000Y100000000D03*
X116520000Y100000000D03*
%TD*%
D15*
%TO.C,C803*%
X124500000Y102000000D03*
X125460000Y102000000D03*
%TD*%
D12*
%TO.C,C905*%
X94000000Y51980000D03*
X94000000Y51020000D03*
%TD*%
D16*
%TO.C,R909*%
X104500000Y46685000D03*
X104500000Y45665000D03*
%TD*%
D12*
%TO.C,C808*%
X125500000Y96210000D03*
X125500000Y95250000D03*
%TD*%
D17*
%TO.C,R818*%
X142000000Y103850000D03*
X142000000Y105500000D03*
%TD*%
D14*
%TO.C,C810*%
X148980000Y101000000D03*
X148020000Y101000000D03*
%TD*%
D12*
%TO.C,C902*%
X88750000Y46960000D03*
X88750000Y46000000D03*
%TD*%
D17*
%TO.C,R922*%
X106000000Y45100000D03*
X106000000Y46750000D03*
%TD*%
D18*
%TO.C,R409*%
X150990000Y32250000D03*
X152010000Y32250000D03*
%TD*%
D19*
%TO.C,C805*%
X121000000Y102450000D03*
X121000000Y104000000D03*
%TD*%
D14*
%TO.C,C903*%
X94480000Y46000000D03*
X93520000Y46000000D03*
%TD*%
D13*
%TO.C,D404*%
X153750000Y25950000D03*
X153750000Y28250000D03*
%TD*%
D20*
%TO.C,R817*%
X148500000Y105990000D03*
X148500000Y107010000D03*
%TD*%
D11*
%TO.C,C807*%
X117000000Y97020000D03*
X117000000Y97980000D03*
%TD*%
D12*
%TO.C,C812*%
X142980000Y98980000D03*
X142980000Y98020000D03*
%TD*%
D11*
%TO.C,C505*%
X195500000Y91000000D03*
X195500000Y91960000D03*
%TD*%
D13*
%TO.C,D408*%
X153750000Y40550000D03*
X153750000Y38250000D03*
%TD*%
D12*
%TO.C,C901*%
X87250000Y46940000D03*
X87250000Y45980000D03*
%TD*%
D18*
%TO.C,R411*%
X150990000Y36250000D03*
X152010000Y36250000D03*
%TD*%
D13*
%TO.C,D406*%
X157000000Y40550000D03*
X157000000Y38250000D03*
%TD*%
D14*
%TO.C,C904*%
X94480000Y44500000D03*
X93520000Y44500000D03*
%TD*%
D13*
%TO.C,D405*%
X157000000Y25950000D03*
X157000000Y28250000D03*
%TD*%
D18*
%TO.C,R408*%
X150990000Y31000000D03*
X152010000Y31000000D03*
%TD*%
D21*
%TO.C,R819*%
X154750000Y112575000D03*
X154750000Y110925000D03*
%TD*%
D11*
%TO.C,C506*%
X184750000Y63020000D03*
X184750000Y63980000D03*
%TD*%
%TO.C,C809*%
X156500000Y95500000D03*
X156500000Y96460000D03*
%TD*%
D18*
%TO.C,R410*%
X150990000Y33750000D03*
X152010000Y33750000D03*
%TD*%
D11*
%TO.C,C806*%
X116000000Y97020000D03*
X116000000Y97980000D03*
%TD*%
D21*
%TO.C,R403*%
X126000000Y68650000D03*
X126000000Y67000000D03*
%TD*%
D14*
%TO.C,C504*%
X184750000Y58750000D03*
X183790000Y58750000D03*
%TD*%
M02*
