M48
INCH
T1C0.0079
T2C0.0098
T3C0.0118
T4C0.0236
T5C0.0280
T6C0.0382
T7C0.0394
T8C0.0433
T9C0.0472
T10C0.0512
T11C0.0650
T12C0.1260
%
G90
G05
T1
X3.7402Y2.0866
X3.7598Y2.0472
X3.7795Y2.0866
X3.7795Y2.0079
X3.8109Y1.9999
X3.8189Y2.0472
T2
X0.0984Y4.1339
X0.0984Y4.0354
X0.0984Y3.937
X0.0984Y3.8386
X0.0984Y3.7402
X0.0984Y3.6417
X0.0984Y3.5433
X0.0984Y3.4449
X0.0984Y3.3465
X0.0984Y3.248
X0.0984Y3.1496
X0.0984Y3.0512
X0.0984Y2.9528
X0.0984Y2.8543
X0.0984Y2.7559
X0.0984Y2.6575
X0.0984Y2.5591
X0.0984Y2.4606
X0.0984Y2.3622
X0.0984Y2.2638
X0.0984Y2.1654
X0.0984Y2.0669
X0.0984Y1.9685
X0.0984Y1.8701
X0.0984Y1.7717
X0.0984Y1.6732
X0.0984Y1.5748
X0.0984Y1.4764
X0.0984Y1.378
X0.0984Y1.2795
X0.0984Y1.1811
X0.0984Y1.0827
X0.0984Y0.9843
X0.0984Y0.8858
X0.0984Y0.7874
X0.0984Y0.689
X0.0984Y0.5906
X0.0984Y0.4921
X0.0984Y0.3937
X0.3937Y4.4291
X0.3937Y4.1339
X0.3937Y3.937
X0.3937Y3.7402
X0.3937Y3.5433
X0.3937Y3.1496
X0.3937Y2.9528
X0.3937Y2.7559
X0.3937Y2.3622
X0.3937Y1.9685
X0.3937Y1.7717
X0.3937Y1.5748
X0.3937Y1.378
X0.3937Y0.9843
X0.3937Y0.5906
X0.3937Y0.3937
X0.3937Y0.0984
X0.4921Y4.4291
X0.4921Y0.0984
X0.5906Y4.4291
X0.5906Y4.1339
X0.5906Y3.937
X0.5906Y3.7402
X0.5906Y3.5433
X0.5906Y3.1496
X0.5906Y2.9528
X0.5906Y2.5591
X0.5906Y2.3622
X0.5906Y1.9685
X0.5906Y1.7717
X0.5906Y1.5748
X0.5906Y1.378
X0.5906Y1.1811
X0.5906Y0.9843
X0.5906Y0.5906
X0.5906Y0.3937
X0.5906Y0.0984
X0.689Y4.4291
X0.689Y0.0984
X0.7874Y4.4291
X0.7874Y3.1496
X0.7874Y2.9528
X0.7874Y0.7874
X0.7874Y0.5906
X0.7874Y0.3937
X0.7874Y0.0984
X0.8858Y4.4291
X0.8858Y0.0984
X0.9843Y4.4291
X0.9843Y3.937
X0.9843Y3.5433
X0.9843Y3.3465
X0.9843Y3.1496
X0.9843Y2.9528
X0.9843Y2.1654
X0.9843Y1.9685
X0.9843Y1.7717
X0.9843Y1.378
X0.9843Y0.9843
X0.9843Y0.3937
X0.9843Y0.0984
X1.0039Y0.8071
X1.0827Y4.4291
X1.0827Y0.0984
X1.1811Y4.4291
X1.1811Y4.1339
X1.1811Y3.937
X1.1811Y3.7402
X1.1811Y3.3465
X1.1811Y2.9528
X1.1811Y2.3622
X1.1811Y2.1654
X1.1811Y1.9685
X1.1811Y1.7717
X1.1811Y1.1811
X1.1811Y0.9843
X1.1811Y0.0984
X1.2047Y0.6575
X1.2553Y4.2717
X1.2598Y4.3937
X1.2795Y0.0984
X1.378Y4.1339
X1.378Y3.937
X1.378Y3.5433
X1.378Y3.3465
X1.378Y3.1496
X1.378Y2.9528
X1.378Y2.3622
X1.378Y2.1654
X1.378Y1.9685
X1.378Y1.7717
X1.378Y1.1811
X1.378Y0.7874
X1.378Y0.0984
X1.3878Y3.6417
X1.3878Y2.5197
X1.3878Y1.3976
X1.437Y0.5315
X1.4567Y0.5512
X1.4764Y0.0984
X1.5033Y4.2717
X1.5073Y4.3937
X1.5748Y4.4291
X1.5748Y4.1339
X1.5748Y3.937
X1.5748Y3.5433
X1.5748Y3.3465
X1.5748Y3.1496
X1.5748Y2.9528
X1.5748Y2.3622
X1.5748Y2.1654
X1.5748Y1.9685
X1.5748Y1.7717
X1.5748Y0.9843
X1.5748Y0.7874
X1.5748Y0.0984
X1.5945Y2.6476
X1.6043Y3.7795
X1.6043Y1.5256
X1.6732Y4.4291
X1.6732Y0.0984
X1.7717Y4.4291
X1.7717Y4.1339
X1.7717Y3.937
X1.7717Y3.5433
X1.7717Y3.3465
X1.7717Y3.1496
X1.7717Y2.9528
X1.7717Y2.7559
X1.7717Y2.3622
X1.7717Y2.1654
X1.7717Y1.9685
X1.7717Y1.7717
X1.7717Y0.5906
X1.7717Y0.3937
X1.7717Y0.0984
X1.8465Y2.685
X1.8701Y4.4291
X1.8701Y0.0984
X1.9685Y4.4291
X1.9685Y4.1339
X1.9685Y3.937
X1.9685Y2.7559
X1.9685Y2.3622
X1.9685Y2.1654
X1.9685Y1.9685
X1.9685Y1.7717
X1.9685Y1.378
X1.9685Y0.7874
X1.9685Y0.5906
X1.9685Y0.0984
X2.0039Y1.4724
X2.0197Y1.126
X2.0669Y4.4291
X2.0669Y0.0984
X2.1029Y4.0679
X2.1063Y3.0748
X2.1159Y4.2896
X2.1457Y3.9173
X2.1457Y3.878
X2.1654Y4.4291
X2.1654Y3.5433
X2.1654Y3.1496
X2.1654Y2.9528
X2.1654Y2.7559
X2.1654Y2.1654
X2.1654Y1.7717
X2.1654Y0.5118
X2.1654Y0.0984
X2.2052Y4.1348
X2.2244Y3.7795
X2.2402Y3.2559
X2.2446Y3.8967
X2.248Y4.0669
X2.2638Y3.7795
X2.2638Y0.9252
X2.2638Y0.0984
X2.28Y3.4252
X2.284Y4.0994
X2.2844Y4.0276
X2.2958Y3.2451
X2.3327Y2.3622
X2.343Y4.1348
X2.3509Y3.9695
X2.3622Y4.4291
X2.3622Y3.5433
X2.3622Y2.9528
X2.3622Y2.7559
X2.3622Y1.9685
X2.3622Y1.7717
X2.3622Y1.2205
X2.3622Y0.9843
X2.3622Y0.7874
X2.3622Y0.5906
X2.3622Y0.3937
X2.3622Y0.0984
X2.4055Y2.5079
X2.4099Y4.0876
X2.4158Y3.2077
X2.4252Y2.6772
X2.4296Y3.7293
X2.4409Y1.2205
X2.4511Y2.5978
X2.4567Y2.4606
X2.4606Y4.4291
X2.4606Y0.0984
X2.4803Y3.4154
X2.4847Y3.3632
X2.4926Y3.9892
X2.4966Y4.1467
X2.5Y2.6181
X2.5005Y3.1191
X2.5241Y3.9301
X2.5591Y3.5433
X2.5591Y2.9528
X2.5591Y0.7874
X2.5591Y0.5906
X2.5591Y0.3937
X2.5591Y0.0984
X2.5635Y4.123
X2.5748Y2.2677
X2.622Y2.4321
X2.6346Y3.796
X2.6535Y2.2283
X2.6575Y4.4291
X2.6575Y0.0984
X2.6969Y3.4941
X2.7165Y4.1427
X2.7362Y2.2736
X2.7362Y1.7323
X2.7441Y3.0276
X2.7559Y4.4291
X2.7559Y4.2323
X2.7559Y2.4606
X2.7559Y2.1654
X2.7559Y1.9685
X2.7559Y1.378
X2.7559Y0.3937
X2.7559Y0.0984
X2.7795Y1.1339
X2.78Y4.3199
X2.7844Y4.001
X2.7879Y3.2687
X2.8012Y2.3976
X2.815Y2.5
X2.8346Y2.4606
X2.8346Y0.5197
X2.8445Y3.4941
X2.8543Y4.4291
X2.8543Y4.2323
X2.8543Y4.1339
X2.8543Y0.0984
X2.8799Y0.8445
X2.8848Y2.6732
X2.8927Y3.2111
X2.9414Y3.5364
X2.9528Y4.4291
X2.9528Y4.2323
X2.9528Y4.1339
X2.9528Y3.3947
X2.9528Y2.6772
X2.9528Y2.4606
X2.9528Y2.2638
X2.9528Y1.378
X2.9528Y0.5906
X2.9528Y0.3937
X2.9528Y0.0984
X2.9744Y2.9547
X2.9847Y3.375
X2.9926Y3.127
X3.0005Y3.8396
X3.0005Y3.6152
X3.0118Y2.7362
X3.0118Y2.6575
X3.0236Y3.0315
X3.0276Y0.9331
X3.0315Y1.9685
X3.0472Y3.7835
X3.0512Y4.4291
X3.0512Y4.2323
X3.0512Y4.1339
X3.0512Y0.0984
X3.061Y2.0571
X3.0669Y3.0984
X3.1299Y1.2008
X3.1496Y4.4291
X3.1496Y0.9843
X3.1496Y0.7874
X3.1496Y0.5906
X3.1496Y0.3937
X3.1496Y0.0984
X3.1791Y2.1752
X3.1791Y1.8307
X3.1811Y3.1496
X3.189Y3.248
X3.2087Y1.2008
X3.2283Y2.9528
X3.248Y4.4291
X3.248Y1.6732
X3.248Y0.0984
X3.2874Y2.9528
X3.2958Y4.186
X3.3071Y3.0118
X3.3268Y2.7756
X3.3465Y4.4291
X3.3465Y4.1339
X3.3465Y3.937
X3.3465Y3.3465
X3.3465Y3.1496
X3.3465Y1.5748
X3.3465Y0.9843
X3.3465Y0.7874
X3.3465Y0.5906
X3.3465Y0.0984
X3.3957Y2.2343
X3.3957Y2.1161
X3.435Y1.7701
X3.4449Y4.4291
X3.4449Y1.4764
X3.4449Y0.0984
X3.4843Y1.8898
X3.4941Y1.7701
X3.5039Y0.5197
X3.5138Y2.7756
X3.5433Y4.4291
X3.5433Y4.1339
X3.5433Y3.937
X3.5433Y3.7402
X3.5433Y3.3465
X3.5433Y3.1496
X3.5433Y0.5906
X3.5433Y0.0984
X3.5551Y1.1378
X3.563Y2.7756
X3.5728Y2.185
X3.5827Y2.0472
X3.5827Y1.8701
X3.5925Y2.6969
X3.5925Y1.998
X3.6024Y1.9488
X3.6122Y2.9626
X3.6122Y2.9134
X3.6122Y2.7362
X3.622Y2.185
X3.622Y2.126
X3.622Y2.0669
X3.622Y0.8189
X3.6319Y2.2933
X3.6417Y4.4291
X3.6417Y1.811
X3.6417Y1.752
X3.6819Y2.4319
X3.7106Y2.8642
X3.7303Y2.4311
X3.7402Y4.4291
X3.7402Y4.1339
X3.7402Y3.937
X3.7402Y3.7402
X3.7402Y3.5433
X3.7402Y3.1496
X3.7402Y2.8937
X3.7402Y2.8346
X3.7402Y2.3031
X3.7402Y0.7874
X3.7402Y0.5906
X3.7402Y0.3937
X3.7598Y1.811
X3.7598Y1.752
X3.7795Y2.8642
X3.7992Y0.9528
X3.8287Y2.185
X3.8292Y2.2929
X3.8386Y4.4291
X3.8583Y1.752
X3.8704Y2.291
X3.8898Y0.3189
X3.8976Y2.2557
X3.8976Y1.2008
X3.9075Y1.752
X3.937Y4.4291
X3.937Y4.1339
X3.937Y3.937
X3.937Y3.7402
X3.937Y3.5433
X3.937Y3.3465
X3.937Y0.9843
X3.937Y0.7874
X3.937Y0.5906
X3.9567Y2.4506
X3.9567Y1.9783
X3.9567Y1.9291
X3.9665Y2.8839
X3.9665Y2.3425
X3.9764Y1.2008
X3.9803Y0.3189
X3.9961Y2.8543
X4.0157Y2.4213
X4.0157Y0.3543
X4.0256Y1.6929
X4.0354Y4.4291
X4.0453Y3.0906
X4.0453Y2.3917
X4.065Y2.874
X4.0827Y0.437
X4.0846Y1.7323
X4.0846Y1.4469
X4.1142Y2.8642
X4.1142Y2.4705
X4.1142Y1.2697
X4.1142Y0.4724
X4.1339Y4.4291
X4.1339Y4.1339
X4.1339Y3.937
X4.1339Y3.7402
X4.1339Y3.5433
X4.1339Y1.1811
X4.1437Y2.6969
X4.1634Y3.1171
X4.1634Y2.8346
X4.1732Y0.374
X4.1929Y2.7264
X4.1929Y2.687
X4.2028Y1.4567
X4.2028Y0.5118
X4.2028Y0.4035
X4.2224Y3.1171
X4.2274Y2.19
X4.2323Y4.4291
X4.2323Y2.372
X4.2323Y0.5413
X4.2421Y2.3031
X4.2618Y2.589
X4.2618Y2.4016
X4.2717Y2.185
X4.2815Y3.1171
X4.2931Y2.7368
X4.318Y2.3494
X4.3209Y2.1949
X4.3289Y2.7368
X4.3307Y4.4291
X4.3307Y4.1339
X4.3307Y3.5433
X4.3307Y0.3821
X4.3406Y3.3533
X4.3406Y3.2283
X4.3434Y2.3748
X4.3484Y3.8957
X4.3504Y2.628
X4.3602Y2.1654
X4.3602Y1.4469
X4.3681Y3.7972
X4.3701Y3.0315
X4.3727Y2.687
X4.4094Y0.4724
X4.4193Y3.0315
X4.4291Y4.4291
X4.4291Y1.4469
X4.437Y0.8346
X4.4398Y3.0906
X4.4537Y2.9478
X4.4587Y2.0472
X4.4685Y2.0079
X4.4882Y3.2077
X4.4882Y2.4213
X4.4882Y2.2047
X4.498Y1.9783
X4.498Y0.6398
X4.498Y0.6004
X4.4988Y3.1398
X4.5177Y2.1752
X4.5197Y0.4646
X4.5256Y3.6791
X4.5276Y4.4291
X4.5276Y4.1339
X4.5276Y3.8878
X4.5276Y2.5394
X4.5276Y2.0079
X4.5276Y1.5748
X4.5374Y2.7165
X4.5413Y0.7579
X4.5571Y3.8976
X4.5669Y1.5748
X4.5768Y1.3583
X4.5945Y0.6181
X4.5965Y2.5886
X4.6063Y2.628
X4.6161Y3.8976
X4.624Y3.7185
X4.626Y4.4291
X4.626Y2.2047
X4.6299Y0.7559
X4.6358Y2.5
X4.6358Y2.2835
X4.6358Y1.9882
X4.6457Y4.2126
X4.6457Y2.5984
X4.6555Y3.1496
X4.6654Y3.6122
X4.6654Y2.8248
X4.6752Y3.2382
X4.6752Y1.9094
X4.685Y2.3228
X4.685Y2.1752
X4.6949Y3.1496
X4.7047Y4.1634
X4.7047Y4.0945
X4.7047Y3.1004
X4.7047Y3.0512
X4.7087Y0.7638
X4.7244Y4.4291
X4.7244Y3.2386
X4.7244Y2.8526
X4.7244Y2.0177
X4.7343Y3.0118
X4.7343Y2.4016
X4.7343Y2.3228
X4.7441Y3.6122
X4.749Y1.9783
X4.7539Y0.3789
X4.7539Y0.3248
X4.7638Y2.7953
X4.7638Y2.4508
X4.7638Y2.2047
X4.7717Y0.8504
X4.7736Y3.0315
X4.7736Y1.3583
X4.776Y2.0374
X4.7913Y3.8937
X4.7933Y3.75
X4.8008Y1.998
X4.8031Y3.2283
X4.8228Y4.4291
X4.8228Y3.5039
X4.8278Y1.3829
X4.8327Y3.0709
X4.8425Y4.2028
X4.8425Y1.2598
X4.8425Y0.6181
X4.8474Y1.8258
X4.8524Y4.3406
X4.8524Y1.8996
X4.8622Y3.6122
X4.8819Y2.6969
X4.8819Y0.6969
X4.8823Y4.1217
X4.9016Y2.7559
X4.9016Y2.185
X4.9114Y4.3406
X4.9114Y1.9882
X4.9213Y4.4291
X4.9213Y1.25
X4.9331Y0.6969
X4.9409Y4.065
X4.9409Y2.0472
X4.9606Y4.3406
X4.9606Y3.937
X4.9606Y3.6122
X4.9606Y2.5787
X4.9606Y1.2008
X4.9656Y2.2096
X4.9705Y2.8445
X4.9803Y3.9961
X4.9803Y3.75
X4.9803Y2.5394
X4.9902Y0.6004
X4.9961Y0.4213
X5.0Y3.9167
X5.0Y2.3425
X5.0Y1.4075
X5.0Y1.25
X5.0098Y3.9654
X5.0098Y2.1949
X5.0098Y2.0374
X5.0197Y4.4291
X5.0197Y2.5098
X5.0197Y0.3504
X5.0236Y0.7638
X5.0295Y1.3287
X5.0492Y2.1654
X5.05Y1.7118
X5.0502Y1.3987
X5.0591Y3.8976
X5.0591Y3.0413
X5.0591Y1.8209
X5.0689Y3.2185
X5.0689Y3.0906
X5.0689Y2.5098
X5.0984Y2.8839
X5.0984Y1.8701
X5.0984Y1.4075
X5.1083Y4.4685
X5.1181Y3.2087
X5.128Y2.8346
X5.1329Y2.2884
X5.1476Y2.628
X5.1575Y3.7402
X5.1673Y3.9173
X5.1768Y1.4465
X5.1772Y2.2146
X5.1772Y2.0374
X5.187Y2.4114
X5.187Y2.2835
X5.1969Y3.7205
X5.1969Y3.0709
X5.1969Y2.628
X5.1969Y1.8209
X5.1969Y1.3583
X5.2067Y3.1012
X5.2067Y2.7461
X5.2067Y2.687
X5.2067Y2.4606
X5.2067Y2.3228
X5.2108Y3.0274
X5.2264Y1.9488
X5.2461Y2.1242
X5.2461Y1.8209
X5.2461Y1.7224
X5.2461Y1.6732
X5.2638Y1.25
X5.2657Y3.2087
X5.2756Y1.9488
X5.2835Y0.8622
X5.2953Y3.1594
X5.2953Y2.1161
X5.315Y4.4291
X5.315Y3.2185
X5.315Y0.5906
X5.315Y0.3543
X5.3248Y1.8996
X5.3297Y1.4518
X5.3307Y1.1575
X5.3346Y2.628
X5.3379Y2.5721
X5.3445Y2.2146
X5.3642Y3.7303
X5.3642Y3.2185
X5.3642Y2.1063
X5.3642Y1.437
X5.3789Y2.623
X5.3937Y2.9134
X5.3937Y2.8642
X5.3937Y2.815
X5.3937Y2.7756
X5.4016Y2.5413
X5.4134Y4.4291
X5.4142Y1.1575
X5.4331Y1.5748
X5.4429Y2.5098
X5.4429Y2.4311
X5.4528Y2.3228
X5.4528Y2.2835
X5.4626Y2.628
X5.4823Y1.378
X5.502Y1.6339
X5.5118Y0.5906
X5.5118Y0.3543
X5.563Y0.8661
X5.5709Y3.2185
X5.5709Y3.1791
X5.5709Y2.3031
X5.5807Y3.061
X5.5906Y4.0354
X5.6004Y2.0866
X5.6102Y2.2835
X5.6102Y0.7992
X5.6299Y3.8189
X5.6299Y2.9921
X5.6693Y2.9429
X5.6693Y2.6083
X5.689Y2.5492
X5.6988Y3.3465
X5.6988Y3.3071
X5.7087Y3.4843
X5.7185Y2.5984
X5.7382Y3.4449
X5.7382Y3.3957
X5.748Y0.3642
X5.7677Y2.4311
X5.7776Y3.9469
X5.7874Y4.2028
X5.7972Y2.7165
X5.7972Y2.4803
X5.7972Y2.3819
X5.7972Y2.2539
X5.7972Y2.0866
X5.7972Y1.6142
X5.7972Y1.5059
X5.8169Y2.7953
X5.8563Y2.9921
X5.876Y2.3622
X5.8858Y1.8701
X5.8858Y1.8209
X5.9055Y0.9843
X5.9055Y0.7874
X5.9055Y0.5906
X5.9449Y1.5748
X5.9646Y2.0866
X5.9646Y2.0374
X6.0039Y2.4606
X6.0236Y1.4272
X6.0236Y1.2205
X6.0433Y4.4321
X6.0531Y0.9646
X6.0728Y2.5098
X6.0728Y1.6535
X6.0827Y1.3272
X6.0827Y1.2697
X6.1024Y0.7874
X6.1024Y0.5906
X6.1024Y0.3937
X6.1024Y0.0984
X6.1122Y2.5492
X6.122Y3.7992
X6.1811Y1.6535
X6.1811Y0.9646
X6.1909Y3.0709
X6.1909Y2.6378
X6.2008Y0.0984
X6.2992Y1.9685
X6.2992Y0.7874
X6.2992Y0.5906
X6.2992Y0.3937
X6.2992Y0.0984
X6.3878Y1.3386
X6.3976Y4.4291
X6.3976Y4.2913
X6.3976Y0.0984
X6.4075Y2.7165
X6.4173Y1.1024
X6.437Y1.9685
X6.437Y1.3386
X6.4961Y4.4291
X6.4961Y4.1339
X6.4961Y3.937
X6.4961Y0.9843
X6.4961Y0.7874
X6.4961Y0.5906
X6.4961Y0.3937
X6.4961Y0.0984
X6.5354Y1.7937
X6.5945Y4.4291
X6.5945Y0.0984
X6.6043Y1.7579
X6.6437Y1.9587
X6.6535Y2.1358
X6.6535Y1.7205
X6.6929Y4.4291
X6.6929Y4.1339
X6.6929Y3.937
X6.6929Y2.9528
X6.6929Y2.7559
X6.6929Y1.378
X6.6929Y1.1811
X6.6929Y0.9843
X6.6929Y0.7874
X6.6929Y0.5906
X6.6929Y0.0984
X6.7028Y1.6929
X6.7036Y2.1448
X6.7244Y2.0138
X6.7283Y1.8839
X6.7913Y4.4291
X6.7913Y0.0984
X6.8307Y2.1358
X6.8602Y2.1063
X6.8622Y1.624
X6.8898Y4.4291
X6.8898Y4.1339
X6.8898Y3.1496
X6.8898Y2.9528
X6.8898Y1.5748
X6.8898Y1.378
X6.8898Y1.1811
X6.8898Y0.9843
X6.8898Y0.7874
X6.8898Y0.5906
X6.8898Y0.3937
X6.8898Y0.0984
X6.8996Y3.4055
X6.9094Y2.3425
X6.9094Y2.3031
X6.9193Y3.7205
X6.9783Y4.0059
X6.9882Y4.4291
X6.998Y3.622
X7.0079Y0.1969
X7.0374Y4.0059
X7.0472Y3.622
X7.0472Y3.435
X7.0866Y4.4291
X7.0866Y3.9173
X7.0866Y3.1496
X7.0965Y2.2244
X7.126Y2.2539
X7.1555Y4.0453
X7.1555Y3.8189
X7.185Y4.4291
X7.185Y2.313
X7.2047Y3.7205
X7.2096Y3.9222
X7.2441Y3.6909
X7.2441Y1.3189
X7.2736Y2.5689
X7.2835Y4.4291
X7.2835Y0.7874
X7.2835Y0.5906
X7.313Y3.9173
X7.3228Y2.313
X7.3327Y2.5
X7.374Y2.0531
X7.3819Y4.4291
X7.3937Y1.7657
X7.3937Y1.6142
X7.4488Y1.8327
X7.4705Y2.2244
X7.4764Y1.9193
X7.4803Y4.4291
X7.4803Y0.7874
X7.4803Y0.5906
X7.5Y2.2539
X7.5787Y1.9094
X7.5984Y1.0925
X7.5984Y0.9252
X7.6378Y1.811
X7.6476Y3.6614
X7.6969Y3.6614
X7.7461Y3.6811
X7.7559Y1.0925
X7.7559Y0.9252
X7.7756Y3.8386
X7.7756Y3.7402
X7.7756Y3.3465
X7.7756Y3.248
X7.7756Y3.1496
X7.7756Y3.0512
X7.7756Y2.9528
X7.7756Y2.8543
X7.7756Y2.7559
X7.7756Y2.6575
X7.7756Y2.5591
X7.7756Y2.4606
X7.7756Y2.3622
X7.7756Y2.2638
X7.7756Y2.0669
X7.7756Y1.9685
X7.7756Y1.8701
X7.7756Y1.7717
X7.7756Y1.6732
X7.7756Y1.5748
X7.7756Y0.7874
X7.7756Y0.689
X7.7756Y0.5906
T3
X4.5276Y4.0551
X4.5866Y4.0354
X4.6457Y3.9961
X4.6654Y3.8189
X4.685Y4.3307
X4.8917Y3.9764
X5.4331Y4.4882
X7.2441Y0.9646
T5
X4.5051Y0.8689
X4.5051Y0.8189
X4.5551Y0.8689
X4.5551Y0.8189
X4.6051Y0.8689
X4.6051Y0.8189
X4.6551Y0.8689
X4.6551Y0.8189
X4.7051Y0.8689
X4.7051Y0.8189
X6.1705Y1.4272
X6.1705Y1.3772
X6.1705Y1.3272
X6.1705Y1.2772
X6.1705Y1.2272
X6.2205Y1.4272
X6.2205Y1.3772
X6.2205Y1.3272
X6.2205Y1.2772
X6.2205Y1.2272
T6
X5.763Y3.7795
X5.813Y3.8795
X5.863Y3.7795
X5.913Y3.8795
X5.963Y3.7795
X6.013Y3.8795
X6.063Y3.7795
X6.113Y3.8795
T7
X7.4492Y3.2705
X7.4492Y3.1705
X7.4492Y3.0705
X7.4492Y2.9705
X7.4492Y2.8705
X7.4492Y2.7705
X7.4492Y2.6705
X7.4492Y2.5705
X7.4492Y2.4705
X7.4492Y2.3705
X7.5492Y3.2705
X7.5492Y3.1705
X7.5492Y3.0705
X7.5492Y2.9705
X7.5492Y2.8705
X7.5492Y2.7705
X7.5492Y2.6705
X7.5492Y2.5705
X7.5492Y2.4705
X7.5492Y2.3705
T8
X5.6772Y4.2894
X5.7772Y4.2894
X6.0988Y4.2894
X6.1988Y4.2894
T9
X0.7874Y3.4843
X0.7874Y2.3819
X0.7874Y1.2598
X0.8661Y3.878
X0.8661Y2.7756
X0.8661Y1.6535
T10
X0.2165Y3.6843
X0.2165Y3.4843
X0.2165Y2.4016
X0.2165Y2.2016
X0.2165Y1.0236
X0.2165Y0.8236
X1.9654Y0.2205
X2.1654Y0.2205
X2.6346Y0.2205
X2.8346Y0.2205
X2.9265Y4.3199
X3.1265Y4.3199
X3.3039Y0.2205
X3.5039Y0.2205
X7.6772Y1.4039
X7.6772Y1.2039
X7.6772Y1.0039
T11
X5.673Y4.0094
X6.203Y4.0094
T12
X0.1969Y4.3307
X0.1969Y0.1969
X7.6772Y4.3307
X7.6772Y0.1969
T4
G00X2.2674Y4.3772
M15
G01X2.2674Y4.4087
M16
G05
G00X2.2674Y4.2067
M15
G01X2.2674Y4.25
M16
G05
G00X2.6076Y4.3772
M15
G01X2.6076Y4.4087
M16
G05
G00X2.6076Y4.2067
M15
G01X2.6076Y4.25
M16
G05
M30
