%TF.GenerationSoftware,KiCad,Pcbnew,8.0.7*%
%TF.CreationDate,2025-11-12T22:50:05-06:00*%
%TF.ProjectId,EnergyMonitoringSystem,456e6572-6779-44d6-9f6e-69746f72696e,rev?*%
%TF.SameCoordinates,PX1c9c380PY91e9840*%
%TF.FileFunction,Paste,Top*%
%TF.FilePolarity,Positive*%
%FSLAX46Y46*%
G04 Gerber Fmt 4.6, Leading zero omitted, Abs format (unit mm)*
G04 Created by KiCad (PCBNEW 8.0.7) date 2025-11-12 22:50:05*
%MOMM*%
%LPD*%
G01*
G04 APERTURE LIST*
G04 Aperture macros list*
%AMRoundRect*
0 Rectangle with rounded corners*
0 $1 Rounding radius*
0 $2 $3 $4 $5 $6 $7 $8 $9 X,Y pos of 4 corners*
0 Add a 4 corners polygon primitive as box body*
4,1,4,$2,$3,$4,$5,$6,$7,$8,$9,$2,$3,0*
0 Add four circle primitives for the rounded corners*
1,1,$1+$1,$2,$3*
1,1,$1+$1,$4,$5*
1,1,$1+$1,$6,$7*
1,1,$1+$1,$8,$9*
0 Add four rect primitives between the rounded corners*
20,1,$1+$1,$2,$3,$4,$5,0*
20,1,$1+$1,$4,$5,$6,$7,0*
20,1,$1+$1,$6,$7,$8,$9,0*
20,1,$1+$1,$8,$9,$2,$3,0*%
G04 Aperture macros list end*
%ADD10RoundRect,0.200000X0.200000X0.275000X-0.200000X0.275000X-0.200000X-0.275000X0.200000X-0.275000X0*%
%ADD11RoundRect,0.135000X-0.185000X0.135000X-0.185000X-0.135000X0.185000X-0.135000X0.185000X0.135000X0*%
%ADD12R,0.420000X0.700000*%
%ADD13R,0.508000X0.977900*%
%ADD14RoundRect,0.140000X0.170000X-0.140000X0.170000X0.140000X-0.170000X0.140000X-0.170000X-0.140000X0*%
%ADD15RoundRect,0.140000X-0.170000X0.140000X-0.170000X-0.140000X0.170000X-0.140000X0.170000X0.140000X0*%
%ADD16RoundRect,0.225000X0.250000X-0.225000X0.250000X0.225000X-0.250000X0.225000X-0.250000X-0.225000X0*%
%ADD17RoundRect,0.135000X0.135000X0.185000X-0.135000X0.185000X-0.135000X-0.185000X0.135000X-0.185000X0*%
%ADD18RoundRect,0.250000X0.262500X0.450000X-0.262500X0.450000X-0.262500X-0.450000X0.262500X-0.450000X0*%
%ADD19RoundRect,0.140000X-0.140000X-0.170000X0.140000X-0.170000X0.140000X0.170000X-0.140000X0.170000X0*%
%ADD20R,0.550000X0.500000*%
%ADD21R,0.300000X0.850000*%
%ADD22R,0.850000X0.300000*%
%ADD23R,1.550000X1.550000*%
%ADD24RoundRect,0.200000X-0.275000X0.200000X-0.275000X-0.200000X0.275000X-0.200000X0.275000X0.200000X0*%
%ADD25RoundRect,0.135000X0.185000X-0.135000X0.185000X0.135000X-0.185000X0.135000X-0.185000X-0.135000X0*%
%ADD26RoundRect,0.225000X0.225000X0.250000X-0.225000X0.250000X-0.225000X-0.250000X0.225000X-0.250000X0*%
%ADD27RoundRect,0.135000X-0.135000X-0.185000X0.135000X-0.185000X0.135000X0.185000X-0.135000X0.185000X0*%
%ADD28RoundRect,0.225000X-0.225000X-0.250000X0.225000X-0.250000X0.225000X0.250000X-0.225000X0.250000X0*%
%ADD29RoundRect,0.140000X0.140000X0.170000X-0.140000X0.170000X-0.140000X-0.170000X0.140000X-0.170000X0*%
%ADD30R,1.050000X0.450000*%
%ADD31R,0.300000X0.350000*%
%ADD32R,1.125000X1.050000*%
%ADD33R,0.950000X0.350000*%
%ADD34RoundRect,0.147500X0.147500X0.172500X-0.147500X0.172500X-0.147500X-0.172500X0.147500X-0.172500X0*%
%ADD35R,1.981200X0.457200*%
%ADD36RoundRect,0.225000X-0.250000X0.225000X-0.250000X-0.225000X0.250000X-0.225000X0.250000X0.225000X0*%
%ADD37RoundRect,0.200000X0.275000X-0.200000X0.275000X0.200000X-0.275000X0.200000X-0.275000X-0.200000X0*%
%ADD38RoundRect,0.200000X-0.200000X-0.275000X0.200000X-0.275000X0.200000X0.275000X-0.200000X0.275000X0*%
%ADD39RoundRect,0.250000X0.450000X-0.262500X0.450000X0.262500X-0.450000X0.262500X-0.450000X-0.262500X0*%
%ADD40R,0.200000X0.450000*%
%ADD41R,2.800000X0.300000*%
%ADD42R,0.200000X0.900000*%
%ADD43R,0.900000X0.200000*%
%ADD44RoundRect,0.218750X-0.218750X-0.256250X0.218750X-0.256250X0.218750X0.256250X-0.218750X0.256250X0*%
%ADD45R,2.600000X2.600000*%
%ADD46R,1.000000X0.900000*%
%ADD47R,0.400000X0.800000*%
%ADD48R,1.500000X1.500000*%
%ADD49RoundRect,0.218750X-0.256250X0.218750X-0.256250X-0.218750X0.256250X-0.218750X0.256250X0.218750X0*%
%ADD50R,1.800000X1.000000*%
%ADD51R,0.200000X0.750000*%
%ADD52R,0.750000X0.200000*%
%ADD53R,2.900000X2.900000*%
%ADD54R,1.470000X0.740000*%
%ADD55C,0.290000*%
%ADD56R,1.200000X1.000000*%
%ADD57R,1.000000X1.200000*%
%ADD58R,1.200000X0.600000*%
%ADD59R,0.400000X0.500000*%
%ADD60R,0.700000X1.200000*%
%ADD61R,1.000000X0.800000*%
%ADD62R,1.000000X2.800000*%
%ADD63R,1.300000X1.900000*%
%ADD64R,0.990000X0.300000*%
%ADD65R,1.600000X2.600000*%
%ADD66RoundRect,0.218750X-0.218750X-0.381250X0.218750X-0.381250X0.218750X0.381250X-0.218750X0.381250X0*%
%ADD67R,1.475000X0.300000*%
%ADD68R,0.300000X1.475000*%
%ADD69R,1.400000X1.200000*%
%ADD70R,0.800000X0.550000*%
%ADD71R,1.150000X0.600000*%
%ADD72RoundRect,0.218750X0.218750X0.256250X-0.218750X0.256250X-0.218750X-0.256250X0.218750X-0.256250X0*%
%ADD73RoundRect,0.150000X0.150000X0.425000X-0.150000X0.425000X-0.150000X-0.425000X0.150000X-0.425000X0*%
%ADD74RoundRect,0.075000X0.075000X0.500000X-0.075000X0.500000X-0.075000X-0.500000X0.075000X-0.500000X0*%
%ADD75O,1.000000X2.100000*%
%ADD76O,1.000000X1.800000*%
%ADD77R,2.600000X1.600000*%
G04 APERTURE END LIST*
D10*
%TO.C,R623*%
X40000000Y94000000D03*
X38350000Y94000000D03*
%TD*%
D11*
%TO.C,R809*%
X125500000Y93750000D03*
X125500000Y92730000D03*
%TD*%
D12*
%TO.C,D202*%
X56012500Y102425000D03*
X56012500Y103875000D03*
%TD*%
D13*
%TO.C,U603*%
X92000000Y24400000D03*
X92950001Y24400000D03*
X93900002Y24400000D03*
X93900002Y27130500D03*
X92000000Y27130500D03*
%TD*%
D11*
%TO.C,R911*%
X90250000Y60510000D03*
X90250000Y59490000D03*
%TD*%
D14*
%TO.C,C202*%
X63112500Y98525000D03*
X63112500Y99485000D03*
%TD*%
D15*
%TO.C,C709*%
X135400000Y31400000D03*
X135400000Y30440000D03*
%TD*%
D16*
%TO.C,C405*%
X150250000Y60975000D03*
X150250000Y62525000D03*
%TD*%
D17*
%TO.C,R919*%
X104760000Y49000000D03*
X103740000Y49000000D03*
%TD*%
D18*
%TO.C,R604*%
X28325000Y98500000D03*
X26500000Y98500000D03*
%TD*%
D19*
%TO.C,C201*%
X59232500Y102825000D03*
X60192500Y102825000D03*
%TD*%
D20*
%TO.C,D401*%
X77800000Y54250000D03*
X78750000Y54250000D03*
%TD*%
D17*
%TO.C,R907*%
X99270000Y62000000D03*
X98250000Y62000000D03*
%TD*%
D21*
%TO.C,U201*%
X56512500Y97525000D03*
X57012500Y97525000D03*
X57512500Y97525000D03*
D22*
X58462500Y98475000D03*
X58462500Y98975000D03*
X58462500Y99475000D03*
D21*
X57512500Y100425000D03*
X57012500Y100425000D03*
X56512500Y100425000D03*
D22*
X55562500Y99475000D03*
X55562500Y98975000D03*
X55562500Y98475000D03*
D23*
X57012500Y98975000D03*
%TD*%
D24*
%TO.C,R412*%
X124500000Y49075000D03*
X124500000Y47425000D03*
%TD*%
D25*
%TO.C,R811*%
X121750000Y105250000D03*
X121750000Y106270000D03*
%TD*%
D26*
%TO.C,C305*%
X77425000Y84425000D03*
X75875000Y84425000D03*
%TD*%
D18*
%TO.C,R611*%
X32000000Y70500000D03*
X30175000Y70500000D03*
%TD*%
D25*
%TO.C,R803*%
X122500000Y90490000D03*
X122500000Y91510000D03*
%TD*%
D27*
%TO.C,R910*%
X100240000Y43000000D03*
X101260000Y43000000D03*
%TD*%
D28*
%TO.C,C204*%
X73362500Y97525000D03*
X74912500Y97525000D03*
%TD*%
D29*
%TO.C,C618*%
X64460001Y65439999D03*
X63500001Y65439999D03*
%TD*%
D14*
%TO.C,C501*%
X124000000Y15700000D03*
X124000000Y16660000D03*
%TD*%
D11*
%TO.C,R913*%
X96250000Y60510000D03*
X96250000Y59490000D03*
%TD*%
D30*
%TO.C,U202*%
X75912500Y93525000D03*
X75912500Y94175000D03*
X75912500Y94825000D03*
X75912500Y95475000D03*
X73312500Y95475000D03*
X73312500Y94825000D03*
X73312500Y94175000D03*
X73312500Y93525000D03*
%TD*%
D31*
%TO.C,Q201*%
X65212500Y96125000D03*
X65212500Y96775000D03*
X65212500Y97425000D03*
X63437500Y97425000D03*
X63437500Y96775000D03*
X63437500Y96125000D03*
D32*
X64325000Y96475000D03*
D33*
X64237500Y97425000D03*
%TD*%
D16*
%TO.C,C701*%
X172300000Y49649999D03*
X172300000Y51199999D03*
%TD*%
D34*
%TO.C,D301*%
X33985000Y111600000D03*
X33015000Y111600000D03*
%TD*%
D11*
%TO.C,R807*%
X118500000Y93750000D03*
X118500000Y92730000D03*
%TD*%
D35*
%TO.C,U701*%
X176500000Y50199999D03*
X176500000Y49549998D03*
X176500000Y48899999D03*
X176500000Y48249998D03*
X176500000Y47600000D03*
X176500000Y46949998D03*
X176500000Y46300000D03*
X176500000Y45650001D03*
X176500000Y45000000D03*
X176500000Y44350001D03*
X176500000Y43700000D03*
X176500000Y43050001D03*
X176500000Y42400000D03*
X176500000Y41750001D03*
X185771000Y41749999D03*
X185771000Y42400000D03*
X185771000Y43049999D03*
X185771000Y43700000D03*
X185771000Y44349998D03*
X185771000Y45000000D03*
X185771000Y45649998D03*
X185771000Y46300000D03*
X185771000Y46949998D03*
X185771000Y47600000D03*
X185771000Y48249998D03*
X185771000Y48899999D03*
X185771000Y49549998D03*
X185771000Y50199999D03*
%TD*%
D36*
%TO.C,C615*%
X101200000Y33050000D03*
X101200000Y31500000D03*
%TD*%
D37*
%TO.C,R503*%
X103700000Y7800000D03*
X103700000Y9450000D03*
%TD*%
D10*
%TO.C,R624*%
X39750000Y70500000D03*
X38100000Y70500000D03*
%TD*%
D17*
%TO.C,R203*%
X78612500Y93525000D03*
X77592500Y93525000D03*
%TD*%
D27*
%TO.C,R908*%
X99740000Y60750000D03*
X100760000Y60750000D03*
%TD*%
D17*
%TO.C,R920*%
X99010000Y43000000D03*
X97990000Y43000000D03*
%TD*%
D15*
%TO.C,C616*%
X62257775Y64760000D03*
X62257775Y63800000D03*
%TD*%
D38*
%TO.C,R402*%
X131425000Y47750000D03*
X133075000Y47750000D03*
%TD*%
D14*
%TO.C,C802*%
X117450000Y95470000D03*
X117450000Y96430000D03*
%TD*%
D15*
%TO.C,C428*%
X112750000Y80480000D03*
X112750000Y79520000D03*
%TD*%
D29*
%TO.C,C414*%
X110250000Y65750000D03*
X109290000Y65750000D03*
%TD*%
D36*
%TO.C,C601*%
X42500000Y98500000D03*
X42500000Y96950000D03*
%TD*%
D18*
%TO.C,R612*%
X31912500Y42000000D03*
X30087500Y42000000D03*
%TD*%
D38*
%TO.C,R637*%
X73275000Y69500000D03*
X74925000Y69500000D03*
%TD*%
D39*
%TO.C,R619*%
X35250000Y94000000D03*
X35250000Y95825000D03*
%TD*%
D10*
%TO.C,R627*%
X39825000Y37000000D03*
X38175000Y37000000D03*
%TD*%
D19*
%TO.C,C409*%
X144770000Y76000000D03*
X145730000Y76000000D03*
%TD*%
D11*
%TO.C,R806*%
X120500000Y93750000D03*
X120500000Y92730000D03*
%TD*%
D10*
%TO.C,R630*%
X96500000Y33000000D03*
X94850000Y33000000D03*
%TD*%
D27*
%TO.C,R303*%
X36085000Y111600000D03*
X37105000Y111600000D03*
%TD*%
D40*
%TO.C,U702*%
X131750000Y31150000D03*
X131350000Y31150000D03*
X130950000Y31150000D03*
X130550000Y31150000D03*
X130150000Y31150000D03*
X129750000Y31150000D03*
X129350000Y31150000D03*
X128950000Y31150000D03*
X128950000Y30000000D03*
X129350000Y30000000D03*
X129750000Y30000000D03*
X130150000Y30000000D03*
X130550000Y30000000D03*
X130950000Y30000000D03*
X131350000Y30000000D03*
X131750000Y30000000D03*
D41*
X130350000Y30575000D03*
%TD*%
D13*
%TO.C,U602*%
X72599998Y24400000D03*
X73549999Y24400000D03*
X74500000Y24400000D03*
X74500000Y27130500D03*
X72599998Y27130500D03*
%TD*%
D15*
%TO.C,C433*%
X110250000Y83980000D03*
X110250000Y83020000D03*
%TD*%
D42*
%TO.C,U301*%
X72275000Y83025000D03*
X72675000Y83025000D03*
X73075000Y83025000D03*
X73475000Y83025000D03*
X73875000Y83025000D03*
D43*
X73975000Y83825000D03*
D42*
X73875000Y84625000D03*
X73475000Y84625000D03*
X73075000Y84625000D03*
X72675000Y84625000D03*
X72275000Y84625000D03*
D43*
X72175000Y83825000D03*
%TD*%
D15*
%TO.C,C401*%
X75750000Y54230000D03*
X75750000Y53270000D03*
%TD*%
D27*
%TO.C,R903*%
X95730000Y61750000D03*
X96750000Y61750000D03*
%TD*%
D13*
%TO.C,U601*%
X52999998Y24369500D03*
X53949999Y24369500D03*
X54900000Y24369500D03*
X54900000Y27100000D03*
X52999998Y27100000D03*
%TD*%
D25*
%TO.C,R915*%
X88750000Y51990000D03*
X88750000Y53010000D03*
%TD*%
D44*
%TO.C,L302*%
X60037500Y80025000D03*
X61612500Y80025000D03*
%TD*%
D36*
%TO.C,C603*%
X42250000Y70550000D03*
X42250000Y69000000D03*
%TD*%
D24*
%TO.C,R405*%
X105750000Y82500000D03*
X105750000Y80850000D03*
%TD*%
D15*
%TO.C,C705*%
X187800000Y46849999D03*
X187800000Y45889999D03*
%TD*%
D14*
%TO.C,C429*%
X136750000Y79000000D03*
X136750000Y79960000D03*
%TD*%
D15*
%TO.C,C421*%
X132750000Y51460000D03*
X132750000Y50500000D03*
%TD*%
D14*
%TO.C,C308*%
X85000000Y75020000D03*
X85000000Y75980000D03*
%TD*%
D44*
%TO.C,L301*%
X72400000Y80025000D03*
X73975000Y80025000D03*
%TD*%
D36*
%TO.C,C702*%
X172400000Y47859999D03*
X172400000Y46309999D03*
%TD*%
D22*
%TO.C,U801*%
X119750000Y100150000D03*
X119750000Y99650000D03*
X119750000Y99150000D03*
X119750000Y98650000D03*
X119750000Y98150000D03*
X119750000Y97650000D03*
D21*
X120450000Y96950000D03*
X120950000Y96950000D03*
X121450000Y96950000D03*
X121950000Y96950000D03*
X122450000Y96950000D03*
X122950000Y96950000D03*
D22*
X123650000Y97650000D03*
X123650000Y98150000D03*
X123650000Y98650000D03*
X123650000Y99150000D03*
X123650000Y99650000D03*
X123650000Y100150000D03*
D21*
X122950000Y100850000D03*
X122450000Y100850000D03*
X121950000Y100850000D03*
X121450000Y100850000D03*
X120950000Y100850000D03*
X120450000Y100850000D03*
D45*
X121700000Y98900000D03*
%TD*%
D36*
%TO.C,C602*%
X42500000Y95000000D03*
X42500000Y93450000D03*
%TD*%
D19*
%TO.C,C424*%
X145270000Y63000000D03*
X146230000Y63000000D03*
%TD*%
D36*
%TO.C,C304*%
X63512500Y81975000D03*
X63512500Y80425000D03*
%TD*%
D46*
%TO.C,D407*%
X105845000Y85125000D03*
X108845000Y85125000D03*
D47*
X107745000Y84675000D03*
X106945000Y84675000D03*
%TD*%
D14*
%TO.C,C435*%
X134000000Y50540000D03*
X134000000Y51500000D03*
%TD*%
D10*
%TO.C,R625*%
X39750000Y65500000D03*
X38100000Y65500000D03*
%TD*%
D14*
%TO.C,C502*%
X125300000Y15700000D03*
X125300000Y16660000D03*
%TD*%
D48*
%TO.C,SW402*%
X79150000Y44000000D03*
X71350000Y44000000D03*
%TD*%
D18*
%TO.C,R605*%
X28000000Y70500000D03*
X26175000Y70500000D03*
%TD*%
D37*
%TO.C,R301*%
X57912500Y84075000D03*
X57912500Y85725000D03*
%TD*%
D19*
%TO.C,C427*%
X107040000Y66750000D03*
X108000000Y66750000D03*
%TD*%
D11*
%TO.C,R914*%
X88750000Y55510000D03*
X88750000Y54490000D03*
%TD*%
D24*
%TO.C,R401*%
X136250000Y52150000D03*
X136250000Y50500000D03*
%TD*%
D36*
%TO.C,C607*%
X45500000Y96550000D03*
X45500000Y95000000D03*
%TD*%
D24*
%TO.C,R631*%
X66400000Y68650000D03*
X66400000Y67000000D03*
%TD*%
%TO.C,R406*%
X108750000Y82500000D03*
X108750000Y80850000D03*
%TD*%
D28*
%TO.C,C431*%
X133500000Y83500000D03*
X135050000Y83500000D03*
%TD*%
D25*
%TO.C,R801*%
X121500000Y92730000D03*
X121500000Y93750000D03*
%TD*%
D26*
%TO.C,C619*%
X64374999Y68075551D03*
X62824999Y68075551D03*
%TD*%
D24*
%TO.C,R404*%
X75250000Y48575000D03*
X75250000Y46925000D03*
%TD*%
%TO.C,R608*%
X76900000Y26650000D03*
X76900000Y25000000D03*
%TD*%
D36*
%TO.C,C303*%
X75975000Y82200000D03*
X75975000Y80650000D03*
%TD*%
D14*
%TO.C,C310*%
X76800000Y75020000D03*
X76800000Y75980000D03*
%TD*%
D36*
%TO.C,C613*%
X60000000Y33750000D03*
X60000000Y32200000D03*
%TD*%
D11*
%TO.C,R916*%
X88750000Y58685000D03*
X88750000Y57665000D03*
%TD*%
D36*
%TO.C,C604*%
X42250000Y65550000D03*
X42250000Y64000000D03*
%TD*%
D28*
%TO.C,C301*%
X72325000Y86225000D03*
X73875000Y86225000D03*
%TD*%
D14*
%TO.C,C617*%
X71149999Y61800000D03*
X71149999Y62760000D03*
%TD*%
D36*
%TO.C,C609*%
X45500000Y39050000D03*
X45500000Y37500000D03*
%TD*%
D25*
%TO.C,R812*%
X120500000Y106250000D03*
X120500000Y107270000D03*
%TD*%
D19*
%TO.C,C407*%
X136270000Y61750000D03*
X137230000Y61750000D03*
%TD*%
D15*
%TO.C,C706*%
X189800000Y52709999D03*
X189800000Y51749999D03*
%TD*%
D24*
%TO.C,R407*%
X107250000Y82500000D03*
X107250000Y80850000D03*
%TD*%
D10*
%TO.C,R617*%
X76850000Y29900000D03*
X75200000Y29900000D03*
%TD*%
D19*
%TO.C,C417*%
X122250000Y77000000D03*
X123210000Y77000000D03*
%TD*%
D49*
%TO.C,FB402*%
X139750000Y63575000D03*
X139750000Y62000000D03*
%TD*%
D14*
%TO.C,C430*%
X135500000Y79020000D03*
X135500000Y79980000D03*
%TD*%
D34*
%TO.C,D302*%
X33985000Y108500000D03*
X33015000Y108500000D03*
%TD*%
D24*
%TO.C,R633*%
X69650000Y68650000D03*
X69650000Y67000000D03*
%TD*%
D50*
%TO.C,Y402*%
X143500000Y60500000D03*
X143500000Y63000000D03*
%TD*%
D36*
%TO.C,C707*%
X194000000Y49050000D03*
X194000000Y47500000D03*
%TD*%
D18*
%TO.C,R614*%
X36000000Y70500000D03*
X34175000Y70500000D03*
%TD*%
D36*
%TO.C,C605*%
X42250000Y42050000D03*
X42250000Y40500000D03*
%TD*%
D24*
%TO.C,R201*%
X61712500Y101275000D03*
X61712500Y99625000D03*
%TD*%
D51*
%TO.C,U604*%
X65199999Y59775551D03*
X65599999Y59775551D03*
X65999999Y59775551D03*
X66399999Y59775551D03*
X66799999Y59775551D03*
X67199999Y59775551D03*
X67599999Y59775551D03*
X67999999Y59775551D03*
D52*
X68599999Y60375551D03*
X68599999Y60775551D03*
X68599999Y61175551D03*
X68599999Y61575551D03*
X68599999Y61975551D03*
X68599999Y62375551D03*
X68599999Y62775551D03*
X68599999Y63175551D03*
D51*
X67999999Y63775551D03*
X67599999Y63775551D03*
X67199999Y63775551D03*
X66799999Y63775551D03*
X66399999Y63775551D03*
X65999999Y63775551D03*
X65599999Y63775551D03*
X65199999Y63775551D03*
D52*
X64599999Y63175551D03*
X64599999Y62775551D03*
X64599999Y62375551D03*
X64599999Y61975551D03*
X64599999Y61575551D03*
X64599999Y61175551D03*
X64599999Y60775551D03*
X64599999Y60375551D03*
D53*
X66599999Y61775551D03*
%TD*%
D36*
%TO.C,C611*%
X79400000Y33100000D03*
X79400000Y31550000D03*
%TD*%
D24*
%TO.C,R636*%
X64399999Y71675551D03*
X64399999Y70025551D03*
%TD*%
D36*
%TO.C,C612*%
X99100000Y33050000D03*
X99100000Y31500000D03*
%TD*%
D28*
%TO.C,C302*%
X59962500Y86025000D03*
X61512500Y86025000D03*
%TD*%
D54*
%TO.C,J501*%
X188750000Y89250000D03*
X191980000Y89250000D03*
X188750000Y90520000D03*
X191980000Y90520000D03*
X188750000Y91790000D03*
X191980000Y91790000D03*
X188750000Y93060000D03*
X191980000Y93060000D03*
X188750000Y94330000D03*
X191980000Y94330000D03*
X188750000Y95600000D03*
X191980000Y95600000D03*
X188750000Y96870000D03*
X191980000Y96870000D03*
X188750000Y98140000D03*
X191980000Y98140000D03*
X188750000Y99410000D03*
X191980000Y99410000D03*
X188750000Y100680000D03*
X191980000Y100680000D03*
%TD*%
D55*
%TO.C,U901*%
X93000000Y54500000D03*
X93500000Y54500000D03*
X94000000Y54500000D03*
X94500000Y54500000D03*
X95000000Y54500000D03*
X95500000Y54500000D03*
X96000000Y54500000D03*
X96500000Y54500000D03*
X97000000Y54500000D03*
X97500000Y54500000D03*
X98000000Y54500000D03*
X98500000Y54500000D03*
X99000000Y54500000D03*
X99500000Y54500000D03*
X93000000Y54000000D03*
X93500000Y54000000D03*
X94000000Y54000000D03*
X94500000Y54000000D03*
X95000000Y54000000D03*
X95500000Y54000000D03*
X96000000Y54000000D03*
X96500000Y54000000D03*
X97000000Y54000000D03*
X97500000Y54000000D03*
X98000000Y54000000D03*
X98500000Y54000000D03*
X99000000Y54000000D03*
X99500000Y54000000D03*
X93000000Y53500000D03*
X93500000Y53500000D03*
X94000000Y53500000D03*
X94500000Y53500000D03*
X95000000Y53500000D03*
X95500000Y53500000D03*
X96000000Y53500000D03*
X96500000Y53500000D03*
X97000000Y53500000D03*
X97500000Y53500000D03*
X98000000Y53500000D03*
X98500000Y53500000D03*
X99000000Y53500000D03*
X99500000Y53500000D03*
X93000000Y53000000D03*
X93500000Y53000000D03*
X94000000Y53000000D03*
X94500000Y53000000D03*
X98500000Y53000000D03*
X99000000Y53000000D03*
X99500000Y53000000D03*
X93000000Y52500000D03*
X93500000Y52500000D03*
X94000000Y52500000D03*
X95000000Y52500000D03*
X95500000Y52500000D03*
X96000000Y52500000D03*
X96500000Y52500000D03*
X97000000Y52500000D03*
X97500000Y52500000D03*
X98500000Y52500000D03*
X99000000Y52500000D03*
X99500000Y52500000D03*
X93000000Y52000000D03*
X93500000Y52000000D03*
X94000000Y52000000D03*
X95000000Y52000000D03*
X97500000Y52000000D03*
X98500000Y52000000D03*
X99000000Y52000000D03*
X99500000Y52000000D03*
X93000000Y51500000D03*
X93500000Y51500000D03*
X94000000Y51500000D03*
X95000000Y51500000D03*
X97500000Y51500000D03*
X98500000Y51500000D03*
X99000000Y51500000D03*
X99500000Y51500000D03*
X93000000Y51000000D03*
X93500000Y51000000D03*
X94000000Y51000000D03*
X95000000Y51000000D03*
X97500000Y51000000D03*
X98500000Y51000000D03*
X99000000Y51000000D03*
X99500000Y51000000D03*
X93000000Y50500000D03*
X93500000Y50500000D03*
X94000000Y50500000D03*
X95000000Y50500000D03*
X97500000Y50500000D03*
X98500000Y50500000D03*
X99000000Y50500000D03*
X99500000Y50500000D03*
X93000000Y50000000D03*
X93500000Y50000000D03*
X94000000Y50000000D03*
X95000000Y50000000D03*
X95500000Y50000000D03*
X96000000Y50000000D03*
X96500000Y50000000D03*
X97000000Y50000000D03*
X97500000Y50000000D03*
X98500000Y50000000D03*
X99000000Y50000000D03*
X99500000Y50000000D03*
X93000000Y49500000D03*
X93500000Y49500000D03*
X94000000Y49500000D03*
X98500000Y49500000D03*
X99000000Y49500000D03*
X99500000Y49500000D03*
X93000000Y49000000D03*
X93500000Y49000000D03*
X94000000Y49000000D03*
X94500000Y49000000D03*
X95000000Y49000000D03*
X95500000Y49000000D03*
X96000000Y49000000D03*
X96500000Y49000000D03*
X97000000Y49000000D03*
X97500000Y49000000D03*
X98000000Y49000000D03*
X98500000Y49000000D03*
X99000000Y49000000D03*
X99500000Y49000000D03*
X93000000Y48500000D03*
X93500000Y48500000D03*
X94000000Y48500000D03*
X94500000Y48500000D03*
X95000000Y48500000D03*
X95500000Y48500000D03*
X96000000Y48500000D03*
X96500000Y48500000D03*
X97000000Y48500000D03*
X97500000Y48500000D03*
X98000000Y48500000D03*
X98500000Y48500000D03*
X99000000Y48500000D03*
X99500000Y48500000D03*
X93000000Y48000000D03*
X93500000Y48000000D03*
X94000000Y48000000D03*
X94500000Y48000000D03*
X95000000Y48000000D03*
X95500000Y48000000D03*
X96000000Y48000000D03*
X96500000Y48000000D03*
X97000000Y48000000D03*
X97500000Y48000000D03*
X98000000Y48000000D03*
X98500000Y48000000D03*
X99000000Y48000000D03*
X99500000Y48000000D03*
%TD*%
D56*
%TO.C,U501*%
X122110000Y7085000D03*
X122110000Y8355000D03*
X122110000Y9625000D03*
X122110000Y10895000D03*
X122110000Y12165000D03*
D57*
X120650000Y13165000D03*
X119380000Y13165000D03*
X118110000Y13165000D03*
X116840000Y13165000D03*
X115570000Y13165000D03*
X114300000Y13165000D03*
X113030000Y13165000D03*
X111760000Y13165000D03*
X110490000Y13165000D03*
D56*
X108610000Y12165000D03*
X108610000Y10895000D03*
X108610000Y9625000D03*
X108610000Y8355000D03*
X108610000Y7085000D03*
X108610000Y5750000D03*
D57*
X110490000Y1665000D03*
X111760000Y1665000D03*
X113030000Y1665000D03*
%TD*%
D58*
%TO.C,U304*%
X32550000Y15250000D03*
X32550000Y14300000D03*
X32550000Y13350000D03*
X35050000Y13350000D03*
X35050000Y14300000D03*
X35050000Y15250000D03*
%TD*%
D24*
%TO.C,R607*%
X57400000Y26500000D03*
X57400000Y24850000D03*
%TD*%
D59*
%TO.C,FB701*%
X193400000Y53149999D03*
X194200000Y53149999D03*
%TD*%
D18*
%TO.C,R606*%
X27825000Y42000000D03*
X26000000Y42000000D03*
%TD*%
D10*
%TO.C,R622*%
X40075000Y98500000D03*
X38425000Y98500000D03*
%TD*%
D25*
%TO.C,R802*%
X119500000Y92730000D03*
X119500000Y93750000D03*
%TD*%
D60*
%TO.C,J702*%
X139700000Y23700000D03*
X138600000Y23700000D03*
X137500000Y23700000D03*
X136400000Y23700000D03*
X135300000Y23700000D03*
X134200000Y23700000D03*
X133100000Y23700000D03*
X132000000Y23700000D03*
X131050000Y23700000D03*
D57*
X141250000Y23700000D03*
X130100000Y19400000D03*
D61*
X130100000Y13200000D03*
D62*
X130100000Y9050000D03*
D63*
X143600000Y8600000D03*
%TD*%
D24*
%TO.C,R609*%
X96500000Y27050000D03*
X96500000Y25400000D03*
%TD*%
D59*
%TO.C,FB702*%
X193400000Y51349999D03*
X194200000Y51349999D03*
%TD*%
D18*
%TO.C,R610*%
X32325000Y98500000D03*
X30500000Y98500000D03*
%TD*%
D15*
%TO.C,C419*%
X143000000Y65460000D03*
X143000000Y64500000D03*
%TD*%
D11*
%TO.C,R901*%
X91500000Y60510000D03*
X91500000Y59490000D03*
%TD*%
D14*
%TO.C,C703*%
X174100000Y46249999D03*
X174100000Y47209999D03*
%TD*%
D25*
%TO.C,R921*%
X104500000Y34165000D03*
X104500000Y35185000D03*
%TD*%
D37*
%TO.C,R814*%
X118000000Y104000000D03*
X118000000Y105650000D03*
%TD*%
%TO.C,R639*%
X76600000Y64675000D03*
X76600000Y66325000D03*
%TD*%
D11*
%TO.C,R906*%
X87500000Y58685000D03*
X87500000Y57665000D03*
%TD*%
D17*
%TO.C,R805*%
X129510000Y96750000D03*
X128490000Y96750000D03*
%TD*%
D15*
%TO.C,C704*%
X173700000Y50649999D03*
X173700000Y49689999D03*
%TD*%
D11*
%TO.C,R912*%
X93250000Y60520000D03*
X93250000Y59500000D03*
%TD*%
D24*
%TO.C,R634*%
X71250000Y68650000D03*
X71250000Y67000000D03*
%TD*%
D38*
%TO.C,R820*%
X113850000Y100500000D03*
X115500000Y100500000D03*
%TD*%
D18*
%TO.C,R613*%
X36250000Y98500000D03*
X34425000Y98500000D03*
%TD*%
D19*
%TO.C,C801*%
X111490000Y98950000D03*
X112450000Y98950000D03*
%TD*%
D15*
%TO.C,C420*%
X126500000Y50750000D03*
X126500000Y49790000D03*
%TD*%
D10*
%TO.C,R618*%
X96500000Y30200000D03*
X94850000Y30200000D03*
%TD*%
D27*
%TO.C,R810*%
X128490000Y97750000D03*
X129510000Y97750000D03*
%TD*%
D29*
%TO.C,C708*%
X139000000Y28000000D03*
X138040000Y28000000D03*
%TD*%
%TO.C,C406*%
X110750000Y64500000D03*
X109790000Y64500000D03*
%TD*%
D37*
%TO.C,R501*%
X126900000Y12100000D03*
X126900000Y13750000D03*
%TD*%
D15*
%TO.C,C426*%
X107500000Y69250000D03*
X107500000Y68290000D03*
%TD*%
D64*
%TO.C,U203*%
X73202500Y102125000D03*
X73202500Y101625000D03*
X73202500Y101125000D03*
X74812500Y101125000D03*
X74812500Y101625000D03*
X74812500Y102125000D03*
%TD*%
D11*
%TO.C,R917*%
X97500000Y60510000D03*
X97500000Y59490000D03*
%TD*%
D25*
%TO.C,R804*%
X124250000Y92730000D03*
X124250000Y93750000D03*
%TD*%
D24*
%TO.C,R202*%
X61712500Y97775000D03*
X61712500Y96125000D03*
%TD*%
D65*
%TO.C,C309*%
X25500000Y17000000D03*
X25500000Y13400000D03*
%TD*%
D29*
%TO.C,C413*%
X148460000Y46250000D03*
X147500000Y46250000D03*
%TD*%
D39*
%TO.C,R620*%
X35250000Y65500000D03*
X35250000Y67325000D03*
%TD*%
D11*
%TO.C,R808*%
X123250000Y93750000D03*
X123250000Y92730000D03*
%TD*%
D38*
%TO.C,R638*%
X73275000Y66300000D03*
X74925000Y66300000D03*
%TD*%
D36*
%TO.C,C606*%
X42250000Y37050000D03*
X42250000Y35500000D03*
%TD*%
D66*
%TO.C,L304*%
X65250000Y82025000D03*
X67375000Y82025000D03*
%TD*%
D25*
%TO.C,R701*%
X190000000Y42829999D03*
X190000000Y43849999D03*
%TD*%
D66*
%TO.C,L303*%
X77712500Y82225000D03*
X79837500Y82225000D03*
%TD*%
D11*
%TO.C,R902*%
X94500000Y60520000D03*
X94500000Y59500000D03*
%TD*%
D67*
%TO.C,U401*%
X133988000Y55512000D03*
X133988000Y56012000D03*
X133988000Y56512000D03*
X133988000Y57012000D03*
X133988000Y57512000D03*
X133988000Y58012000D03*
X133988000Y58512000D03*
X133988000Y59012000D03*
X133988000Y59512000D03*
X133988000Y60012000D03*
X133988000Y60512000D03*
X133988000Y61012000D03*
X133988000Y61512000D03*
X133988000Y62012000D03*
X133988000Y62512000D03*
X133988000Y63012000D03*
X133988000Y63512000D03*
X133988000Y64012000D03*
X133988000Y64512000D03*
X133988000Y65012000D03*
X133988000Y65512000D03*
X133988000Y66012000D03*
X133988000Y66512000D03*
X133988000Y67012000D03*
X133988000Y67512000D03*
X133988000Y68012000D03*
X133988000Y68512000D03*
X133988000Y69012000D03*
X133988000Y69512000D03*
X133988000Y70012000D03*
X133988000Y70512000D03*
X133988000Y71012000D03*
X133988000Y71512000D03*
X133988000Y72012000D03*
X133988000Y72512000D03*
X133988000Y73012000D03*
D68*
X132000000Y75000000D03*
X131500000Y75000000D03*
X131000000Y75000000D03*
X130500000Y75000000D03*
X130000000Y75000000D03*
X129500000Y75000000D03*
X129000000Y75000000D03*
X128500000Y75000000D03*
X128000000Y75000000D03*
X127500000Y75000000D03*
X127000000Y75000000D03*
X126500000Y75000000D03*
X126000000Y75000000D03*
X125500000Y75000000D03*
X125000000Y75000000D03*
X124500000Y75000000D03*
X124000000Y75000000D03*
X123500000Y75000000D03*
X123000000Y75000000D03*
X122500000Y75000000D03*
X122000000Y75000000D03*
X121500000Y75000000D03*
X121000000Y75000000D03*
X120500000Y75000000D03*
X120000000Y75000000D03*
X119500000Y75000000D03*
X119000000Y75000000D03*
X118500000Y75000000D03*
X118000000Y75000000D03*
X117500000Y75000000D03*
X117000000Y75000000D03*
X116500000Y75000000D03*
X116000000Y75000000D03*
X115500000Y75000000D03*
X115000000Y75000000D03*
X114500000Y75000000D03*
D67*
X112512000Y73012000D03*
X112512000Y72512000D03*
X112512000Y72012000D03*
X112512000Y71512000D03*
X112512000Y71012000D03*
X112512000Y70512000D03*
X112512000Y70012000D03*
X112512000Y69512000D03*
X112512000Y69012000D03*
X112512000Y68512000D03*
X112512000Y68012000D03*
X112512000Y67512000D03*
X112512000Y67012000D03*
X112512000Y66512000D03*
X112512000Y66012000D03*
X112512000Y65512000D03*
X112512000Y65012000D03*
X112512000Y64512000D03*
X112512000Y64012000D03*
X112512000Y63512000D03*
X112512000Y63012000D03*
X112512000Y62512000D03*
X112512000Y62012000D03*
X112512000Y61512000D03*
X112512000Y61012000D03*
X112512000Y60512000D03*
X112512000Y60012000D03*
X112512000Y59512000D03*
X112512000Y59012000D03*
X112512000Y58512000D03*
X112512000Y58012000D03*
X112512000Y57512000D03*
X112512000Y57012000D03*
X112512000Y56512000D03*
X112512000Y56012000D03*
X112512000Y55512000D03*
D68*
X114500000Y53524000D03*
X115000000Y53524000D03*
X115500000Y53524000D03*
X116000000Y53524000D03*
X116500000Y53524000D03*
X117000000Y53524000D03*
X117500000Y53524000D03*
X118000000Y53524000D03*
X118500000Y53524000D03*
X119000000Y53524000D03*
X119500000Y53524000D03*
X120000000Y53524000D03*
X120500000Y53524000D03*
X121000000Y53524000D03*
X121500000Y53524000D03*
X122000000Y53524000D03*
X122500000Y53524000D03*
X123000000Y53524000D03*
X123500000Y53524000D03*
X124000000Y53524000D03*
X124500000Y53524000D03*
X125000000Y53524000D03*
X125500000Y53524000D03*
X126000000Y53524000D03*
X126500000Y53524000D03*
X127000000Y53524000D03*
X127500000Y53524000D03*
X128000000Y53524000D03*
X128500000Y53524000D03*
X129000000Y53524000D03*
X129500000Y53524000D03*
X130000000Y53524000D03*
X130500000Y53524000D03*
X131000000Y53524000D03*
X131500000Y53524000D03*
X132000000Y53524000D03*
%TD*%
D29*
%TO.C,C412*%
X148480000Y47500000D03*
X147520000Y47500000D03*
%TD*%
D10*
%TO.C,R626*%
X39825000Y42000000D03*
X38175000Y42000000D03*
%TD*%
D19*
%TO.C,C402*%
X136520000Y58000000D03*
X137480000Y58000000D03*
%TD*%
D69*
%TO.C,Y401*%
X146200000Y73100000D03*
X144000000Y73100000D03*
X144000000Y71500000D03*
X146200000Y71500000D03*
%TD*%
D39*
%TO.C,R621*%
X35250000Y37000000D03*
X35250000Y38825000D03*
%TD*%
D25*
%TO.C,R813*%
X124500000Y102250000D03*
X124500000Y103270000D03*
%TD*%
D48*
%TO.C,SW401*%
X79150000Y57750000D03*
X71350000Y57750000D03*
%TD*%
D42*
%TO.C,U302*%
X59912500Y82825000D03*
X60312500Y82825000D03*
X60712500Y82825000D03*
X61112500Y82825000D03*
X61512500Y82825000D03*
D43*
X61612500Y83625000D03*
D42*
X61512500Y84425000D03*
X61112500Y84425000D03*
X60712500Y84425000D03*
X60312500Y84425000D03*
X59912500Y84425000D03*
D43*
X59812500Y83625000D03*
%TD*%
D70*
%TO.C,D201*%
X53412500Y106275000D03*
X53412500Y105025000D03*
%TD*%
D10*
%TO.C,R629*%
X76800000Y33100000D03*
X75150000Y33100000D03*
%TD*%
D24*
%TO.C,R413*%
X121750000Y49000000D03*
X121750000Y47350000D03*
%TD*%
D27*
%TO.C,R304*%
X35965000Y108500000D03*
X36985000Y108500000D03*
%TD*%
D69*
%TO.C,Y801*%
X112750000Y94950000D03*
X114950000Y94950000D03*
X114950000Y96550000D03*
X112750000Y96550000D03*
%TD*%
D36*
%TO.C,C614*%
X81700000Y33100000D03*
X81700000Y31550000D03*
%TD*%
D18*
%TO.C,R615*%
X35912500Y42000000D03*
X34087500Y42000000D03*
%TD*%
D14*
%TO.C,C416*%
X128750000Y79520000D03*
X128750000Y80480000D03*
%TD*%
D36*
%TO.C,C608*%
X45500000Y67800000D03*
X45500000Y66250000D03*
%TD*%
D44*
%TO.C,FB801*%
X131212500Y113500000D03*
X132787500Y113500000D03*
%TD*%
D28*
%TO.C,C203*%
X73237500Y91875000D03*
X74787500Y91875000D03*
%TD*%
D10*
%TO.C,R616*%
X57325000Y30200000D03*
X55675000Y30200000D03*
%TD*%
D19*
%TO.C,C418*%
X113790000Y78500000D03*
X114750000Y78500000D03*
%TD*%
%TO.C,C423*%
X145290000Y60500000D03*
X146250000Y60500000D03*
%TD*%
D10*
%TO.C,R628*%
X57325000Y33700000D03*
X55675000Y33700000D03*
%TD*%
D15*
%TO.C,C503*%
X106000000Y6200000D03*
X106000000Y5240000D03*
%TD*%
D14*
%TO.C,C422*%
X118750000Y49500000D03*
X118750000Y50460000D03*
%TD*%
D25*
%TO.C,R905*%
X87500000Y51990000D03*
X87500000Y53010000D03*
%TD*%
D15*
%TO.C,C403*%
X137750000Y66750000D03*
X137750000Y65790000D03*
%TD*%
D25*
%TO.C,R815*%
X123000000Y103490000D03*
X123000000Y104510000D03*
%TD*%
D29*
%TO.C,C432*%
X137500000Y83500000D03*
X136540000Y83500000D03*
%TD*%
D14*
%TO.C,C404*%
X136000000Y70520000D03*
X136000000Y71480000D03*
%TD*%
D29*
%TO.C,C408*%
X145750000Y69000000D03*
X144790000Y69000000D03*
%TD*%
D71*
%TO.C,U303*%
X80800000Y75000000D03*
X80800000Y75950000D03*
X80800000Y76900000D03*
X78300000Y76900000D03*
X78300000Y75000000D03*
%TD*%
D26*
%TO.C,C306*%
X64787500Y84125000D03*
X63237500Y84125000D03*
%TD*%
D20*
%TO.C,D402*%
X77800000Y47500000D03*
X78750000Y47500000D03*
%TD*%
D72*
%TO.C,L401*%
X147575000Y64750000D03*
X146000000Y64750000D03*
%TD*%
D36*
%TO.C,C415*%
X141500000Y65800000D03*
X141500000Y64250000D03*
%TD*%
D73*
%TO.C,J201*%
X65112500Y106825000D03*
X64312500Y106825000D03*
D74*
X63162500Y106825000D03*
X62162500Y106825000D03*
X61662500Y106825000D03*
X60662500Y106825000D03*
D73*
X59512500Y106825000D03*
X58712500Y106825000D03*
X58712500Y106825000D03*
X59512500Y106825000D03*
D74*
X60162500Y106825000D03*
X61162500Y106825000D03*
X62662500Y106825000D03*
X63662500Y106825000D03*
D73*
X64312500Y106825000D03*
X65112500Y106825000D03*
D75*
X66232500Y107400000D03*
D76*
X66232500Y111580000D03*
D75*
X57592500Y107400000D03*
D76*
X57592500Y111580000D03*
%TD*%
D29*
%TO.C,C411*%
X150480000Y51750000D03*
X149520000Y51750000D03*
%TD*%
D77*
%TO.C,C307*%
X40000000Y8600000D03*
X36400000Y8600000D03*
%TD*%
D49*
%TO.C,FB401*%
X134000000Y78500000D03*
X134000000Y76925000D03*
%TD*%
D24*
%TO.C,R502*%
X105500000Y17750000D03*
X105500000Y16100000D03*
%TD*%
D14*
%TO.C,C425*%
X108500000Y56500000D03*
X108500000Y57460000D03*
%TD*%
D38*
%TO.C,R302*%
X79350000Y78700000D03*
X81000000Y78700000D03*
%TD*%
D10*
%TO.C,R635*%
X74925000Y64700000D03*
X73275000Y64700000D03*
%TD*%
D17*
%TO.C,R918*%
X99770000Y59500000D03*
X98750000Y59500000D03*
%TD*%
D29*
%TO.C,C410*%
X150460000Y53000000D03*
X149500000Y53000000D03*
%TD*%
D36*
%TO.C,C610*%
X62100000Y33750000D03*
X62100000Y32200000D03*
%TD*%
D24*
%TO.C,R632*%
X68050000Y68675000D03*
X68050000Y67025000D03*
%TD*%
D11*
%TO.C,R904*%
X87500000Y55520000D03*
X87500000Y54500000D03*
%TD*%
D24*
%TO.C,R414*%
X117000000Y80500000D03*
X117000000Y78850000D03*
%TD*%
M02*
