%TF.GenerationSoftware,KiCad,Pcbnew,8.0.7*%
%TF.CreationDate,2025-11-12T22:50:05-06:00*%
%TF.ProjectId,EnergyMonitoringSystem,456e6572-6779-44d6-9f6e-69746f72696e,rev?*%
%TF.SameCoordinates,PX1c9c380PY91e9840*%
%TF.FileFunction,Copper,L3,Inr*%
%TF.FilePolarity,Positive*%
%FSLAX46Y46*%
G04 Gerber Fmt 4.6, Leading zero omitted, Abs format (unit mm)*
G04 Created by KiCad (PCBNEW 8.0.7) date 2025-11-12 22:50:05*
%MOMM*%
%LPD*%
G01*
G04 APERTURE LIST*
%TA.AperFunction,ComponentPad*%
%ADD10R,1.700000X1.700000*%
%TD*%
%TA.AperFunction,ComponentPad*%
%ADD11O,1.700000X1.700000*%
%TD*%
%TA.AperFunction,ComponentPad*%
%ADD12C,6.400000*%
%TD*%
%TA.AperFunction,ComponentPad*%
%ADD13C,1.500000*%
%TD*%
%TA.AperFunction,ComponentPad*%
%ADD14C,2.500000*%
%TD*%
%TA.AperFunction,ComponentPad*%
%ADD15C,1.650000*%
%TD*%
%TA.AperFunction,ComponentPad*%
%ADD16R,2.600000X2.600000*%
%TD*%
%TA.AperFunction,ComponentPad*%
%ADD17C,2.600000*%
%TD*%
%TA.AperFunction,ComponentPad*%
%ADD18C,1.143000*%
%TD*%
%TA.AperFunction,ComponentPad*%
%ADD19R,1.800000X1.800000*%
%TD*%
%TA.AperFunction,ComponentPad*%
%ADD20C,1.800000*%
%TD*%
%TA.AperFunction,ComponentPad*%
%ADD21O,1.000000X2.100000*%
%TD*%
%TA.AperFunction,ComponentPad*%
%ADD22O,1.000000X1.800000*%
%TD*%
%TA.AperFunction,ViaPad*%
%ADD23C,0.650000*%
%TD*%
%TA.AperFunction,ViaPad*%
%ADD24C,0.280000*%
%TD*%
%TA.AperFunction,ViaPad*%
%ADD25C,0.400000*%
%TD*%
%TA.AperFunction,ViaPad*%
%ADD26C,0.600000*%
%TD*%
%TA.AperFunction,Conductor*%
%ADD27C,0.500000*%
%TD*%
%TA.AperFunction,Conductor*%
%ADD28C,0.200000*%
%TD*%
%TA.AperFunction,Conductor*%
%ADD29C,0.230000*%
%TD*%
G04 APERTURE END LIST*
D10*
%TO.N,SPI5_SCK*%
%TO.C,J503*%
X191750000Y60210000D03*
D11*
%TO.N,+DCDC_1*%
X189210000Y60210000D03*
%TO.N,SPI5_MISO*%
X191750000Y62750000D03*
%TO.N,+DCDC_2*%
X189210000Y62750000D03*
%TO.N,SPI5_MOSI*%
X191750000Y65290000D03*
%TO.N,GND*%
X189210000Y65290000D03*
%TO.N,SPI5_CS*%
X191750000Y67830000D03*
%TO.N,unconnected-(J503-Pin_8-Pad8)*%
X189210000Y67830000D03*
%TO.N,unconnected-(J503-Pin_9-Pad9)*%
X191750000Y70370000D03*
%TO.N,unconnected-(J503-Pin_10-Pad10)*%
X189210000Y70370000D03*
%TO.N,unconnected-(J503-Pin_11-Pad11)*%
X191750000Y72910000D03*
%TO.N,ADS_SPI_SCK*%
X189210000Y72910000D03*
%TO.N,unconnected-(J503-Pin_13-Pad13)*%
X191750000Y75450000D03*
%TO.N,ADS_DOUT_uC_DIN*%
X189210000Y75450000D03*
%TO.N,unconnected-(J503-Pin_15-Pad15)*%
X191750000Y77990000D03*
%TO.N,ADS_DIN_uC_DOUT*%
X189210000Y77990000D03*
%TO.N,unconnected-(J503-Pin_17-Pad17)*%
X191750000Y80530000D03*
%TO.N,ADS_CS*%
X189210000Y80530000D03*
%TO.N,unconnected-(J503-Pin_19-Pad19)*%
X191750000Y83070000D03*
%TO.N,ADS_DRDY*%
X189210000Y83070000D03*
%TD*%
D12*
%TO.N,GND*%
%TO.C,H203*%
X195000000Y5000000D03*
%TD*%
D13*
%TO.N,/ETHERNET/RMII_TXP*%
%TO.C,J801*%
X155270000Y98540000D03*
%TO.N,/ETHERNET/ETH_DCDC2_FR*%
X154000000Y96000000D03*
%TO.N,/ETHERNET/RMII_TXN*%
X152730000Y98540000D03*
%TO.N,/ETHERNET/RMII_RXP*%
X151460000Y96000000D03*
%TO.N,/ETHERNET/ETH_DCDC2_FR*%
X150190000Y98540000D03*
%TO.N,/ETHERNET/RMII_RXN*%
X148920000Y96000000D03*
%TO.N,unconnected-(J801-Pad7)*%
X147650000Y98540000D03*
%TO.N,GND*%
X146380000Y96000000D03*
D14*
%TO.N,Net-(C812-Pad1)*%
X157555000Y101840000D03*
X144095000Y101840000D03*
D15*
%TO.N,Net-(J801-YEL_+)*%
X157450000Y108950000D03*
%TO.N,Net-(J801-YEL_-)*%
X154910000Y108950000D03*
%TO.N,Net-(J801-GRN_+)*%
X146740000Y108950000D03*
%TO.N,Net-(J801-GRN_-)*%
X144200000Y108950000D03*
%TD*%
D16*
%TO.N,Net-(J602-Pin_1)*%
%TO.C,J602*%
X5500000Y61000000D03*
D17*
%TO.N,GND*%
X5500000Y55920000D03*
%TD*%
D12*
%TO.N,GND*%
%TO.C,H201*%
X5000000Y110000000D03*
%TD*%
D16*
%TO.N,/ADC/CT_PhaseA_IN*%
%TO.C,J604*%
X49920000Y5600000D03*
D17*
%TO.N,GND*%
X55000000Y5600000D03*
%TD*%
D18*
%TO.N,+DCDC_1*%
%TO.C,J401*%
X158000000Y31170000D03*
%TO.N,/uCMain/DEBUG_JTMS-SWDIO-H*%
X156730000Y31170000D03*
%TO.N,GND*%
X158000000Y32440000D03*
%TO.N,/uCMain/DEBUG_JTCK-SWCLK-H*%
X156730000Y32440000D03*
%TO.N,GND*%
X158000000Y33710000D03*
%TO.N,/uCMain/DEBUG_JTDO-SWO-H*%
X156730000Y33710000D03*
%TO.N,unconnected-(J401-Pin_7-Pad7)*%
X158000000Y34980000D03*
%TO.N,unconnected-(J401-Pin_8-Pad8)*%
X156730000Y34980000D03*
%TO.N,GND*%
X158000000Y36250000D03*
%TO.N,/uCMain/NRST-H*%
X156730000Y36250000D03*
%TD*%
D12*
%TO.N,GND*%
%TO.C,H204*%
X5000000Y5000000D03*
%TD*%
D19*
%TO.N,Net-(J601-Pin_1)*%
%TO.C,R601*%
X22000000Y98500000D03*
D20*
%TO.N,GND*%
X20000000Y88500000D03*
%TD*%
D16*
%TO.N,/ADC/CT_PhaseC_IN*%
%TO.C,J606*%
X83920000Y5600000D03*
D17*
%TO.N,GND*%
X89000000Y5600000D03*
%TD*%
D12*
%TO.N,GND*%
%TO.C,H202*%
X195000000Y110000000D03*
%TD*%
D16*
%TO.N,GND2*%
%TO.C,J701*%
X195000000Y25500000D03*
D17*
%TO.N,Net-(J701-Pin_2)*%
X195000000Y30580000D03*
%TO.N,Net-(J701-Pin_3)*%
X195000000Y35660000D03*
%TD*%
D19*
%TO.N,Net-(J603-Pin_1)*%
%TO.C,R603*%
X22000000Y42000000D03*
D20*
%TO.N,GND*%
X20000000Y32000000D03*
%TD*%
D16*
%TO.N,/ADC/CT_PhaseB_IN*%
%TO.C,J605*%
X66920000Y5600000D03*
D17*
%TO.N,GND*%
X72000000Y5600000D03*
%TD*%
D16*
%TO.N,Net-(J601-Pin_1)*%
%TO.C,J601*%
X5500000Y93580000D03*
D17*
%TO.N,GND*%
X5500000Y88500000D03*
%TD*%
D16*
%TO.N,+5V_EXT*%
%TO.C,J202*%
X79412500Y109725000D03*
D17*
%TO.N,GND*%
X74332500Y109725000D03*
%TD*%
D19*
%TO.N,Net-(J602-Pin_1)*%
%TO.C,R602*%
X22000000Y70500000D03*
D20*
%TO.N,GND*%
X20000000Y60500000D03*
%TD*%
D18*
%TO.N,+DCDC_1*%
%TO.C,J502*%
X114430000Y20800000D03*
%TO.N,/BLE/BLE_SWDIO*%
X114430000Y22070000D03*
%TO.N,GND*%
X115700000Y20800000D03*
%TO.N,/BLE/BLE_SWDCLK*%
X115700000Y22070000D03*
%TO.N,GND*%
X116970000Y20800000D03*
%TO.N,unconnected-(J502-Pin_6-Pad6)*%
X116970000Y22070000D03*
%TO.N,unconnected-(J502-Pin_7-Pad7)*%
X118240000Y20800000D03*
%TO.N,unconnected-(J502-Pin_8-Pad8)*%
X118240000Y22070000D03*
%TO.N,GND*%
X119510000Y20800000D03*
%TO.N,BLE_RST*%
X119510000Y22070000D03*
%TD*%
D21*
%TO.N,GND*%
%TO.C,J201*%
X66232500Y107400000D03*
D22*
X66232500Y111580000D03*
D21*
X57592500Y107400000D03*
D22*
X57592500Y111580000D03*
%TD*%
D16*
%TO.N,Net-(J603-Pin_1)*%
%TO.C,J603*%
X5500000Y26000000D03*
D17*
%TO.N,GND*%
X5500000Y20920000D03*
%TD*%
D23*
%TO.N,GND*%
X173500000Y54250000D03*
%TO.N,SPI5_MOSI*%
X110000000Y9705000D03*
X174250000Y53500000D03*
%TO.N,SPI5_SCK*%
X112000000Y12000000D03*
%TO.N,GND*%
X169000000Y54250000D03*
%TO.N,SPI5_SCK*%
X170270980Y54479020D03*
%TO.N,+5V_EXT*%
X74712500Y89825000D03*
X83712500Y106325000D03*
%TO.N,GND*%
X50000000Y60000000D03*
X127000000Y31750000D03*
X12500000Y2500000D03*
X132750000Y49500000D03*
X15000000Y40000000D03*
X30000000Y85000000D03*
X2500000Y85000000D03*
X35250000Y92500000D03*
X85000000Y40000000D03*
X2500000Y80000000D03*
X95000000Y10000000D03*
X100000000Y15000000D03*
X10000000Y100000000D03*
X65000000Y75000000D03*
X40000000Y112500000D03*
X195500000Y93000000D03*
X71149999Y60900000D03*
X60000000Y25000000D03*
X82500000Y42500000D03*
X142000000Y102500000D03*
X25500000Y20500000D03*
X100000000Y90000000D03*
X197500000Y97500000D03*
X100000000Y95000000D03*
X197500000Y80000000D03*
X70000000Y35000000D03*
X45000000Y85000000D03*
X30000000Y112500000D03*
X92500000Y112500000D03*
X35250000Y64000000D03*
X115000000Y105000000D03*
X45000000Y90000000D03*
X119250000Y80000000D03*
X2500000Y102500000D03*
X98800000Y8100000D03*
X90000000Y100000000D03*
X91000000Y52000000D03*
X100000000Y100000000D03*
X52500000Y2500000D03*
X160000000Y2500000D03*
X95000000Y100000000D03*
X10000000Y75000000D03*
X25000000Y75000000D03*
X61712500Y94725000D03*
X112500000Y112500000D03*
X20000000Y10000000D03*
X90750000Y55500000D03*
X30000000Y55000000D03*
X157000000Y42000000D03*
D24*
X94500000Y53500000D03*
D23*
X194250000Y93000000D03*
X122500000Y112500000D03*
D25*
X96000000Y51000000D03*
D23*
X107750000Y58500000D03*
X147750000Y71000000D03*
X175000000Y30000000D03*
X126500000Y64500000D03*
X99000000Y30500000D03*
X2500000Y45000000D03*
X65000000Y15000000D03*
X197500000Y77500000D03*
X187500000Y112500000D03*
X146000000Y9250000D03*
X62000000Y31000000D03*
X55000000Y75000000D03*
X45000000Y60000000D03*
D25*
X97000000Y52000000D03*
D23*
X126900000Y10700000D03*
X57500000Y23500000D03*
X55000000Y45000000D03*
X35000000Y75000000D03*
X165000000Y10000000D03*
X25000000Y85000000D03*
X182500000Y112500000D03*
X197500000Y85000000D03*
X25000000Y50000000D03*
X77750000Y52250000D03*
X117250000Y99000000D03*
X185000000Y112500000D03*
X35000000Y30000000D03*
X85000000Y85000000D03*
X160000000Y50000000D03*
X30000000Y100000000D03*
X145750000Y87500000D03*
X40000000Y80000000D03*
X70612500Y109725000D03*
X131000000Y95000000D03*
X82500000Y2500000D03*
X119600000Y19400000D03*
X170900000Y47849999D03*
X170000000Y35000000D03*
X80000000Y20000000D03*
X61212500Y103825000D03*
X180000000Y112500000D03*
X141500000Y80750000D03*
X2500000Y57500000D03*
X2500000Y52500000D03*
X197500000Y75000000D03*
D24*
X93500000Y48500000D03*
D23*
X96500000Y24200000D03*
X100000000Y25000000D03*
X175000000Y40000000D03*
X175000000Y105000000D03*
X132250000Y59000000D03*
X2500000Y65000000D03*
X197500000Y70000000D03*
X2500000Y17500000D03*
X157500000Y2500000D03*
X57500000Y2500000D03*
X73475000Y81562500D03*
X10000000Y25000000D03*
X35000000Y60000000D03*
X75000000Y86225000D03*
X184750000Y65250000D03*
X45000000Y10000000D03*
X2500000Y67500000D03*
X2500000Y47500000D03*
X17500000Y112500000D03*
X2500000Y87500000D03*
X67500000Y2500000D03*
X140000000Y15000000D03*
X40000000Y75000000D03*
X105000000Y95000000D03*
X175000000Y2500000D03*
X57500000Y96000000D03*
X77900000Y78700000D03*
X40000000Y25000000D03*
X170000000Y75000000D03*
X102500000Y112500000D03*
X137200420Y64549580D03*
X93520980Y61770980D03*
X45000000Y70000000D03*
X69000000Y105225000D03*
X110450000Y98950000D03*
X104500000Y32250000D03*
X162500000Y109000000D03*
X95000000Y73500000D03*
X45000000Y112500000D03*
X10000000Y50000000D03*
X2500000Y32500000D03*
X121700000Y98900000D03*
X60000000Y50000000D03*
X35000000Y20000000D03*
X90000000Y105000000D03*
X117600000Y19200000D03*
X76800000Y77000000D03*
X147250000Y69000000D03*
X40000000Y100000000D03*
X25000000Y10000000D03*
X165000000Y25000000D03*
X22500000Y2500000D03*
X63512500Y79225000D03*
D25*
X95000000Y53000000D03*
D23*
X47500000Y112500000D03*
X2500000Y50000000D03*
X40000000Y2500000D03*
X190500000Y57250000D03*
X38185000Y108500000D03*
X80000000Y10000000D03*
X75000000Y57500000D03*
X95000000Y15000000D03*
X77500000Y107500000D03*
X63000000Y86750000D03*
X91500000Y49500000D03*
X151500000Y51750000D03*
X151500000Y53000000D03*
X45000000Y15000000D03*
X162500000Y2500000D03*
X160000000Y20000000D03*
X175000000Y10000000D03*
X190000000Y112500000D03*
X67500000Y112500000D03*
X60000000Y15000000D03*
X146500000Y61750000D03*
X50000000Y2500000D03*
X85000000Y25000000D03*
X135000000Y81750000D03*
X10000000Y10000000D03*
X90000000Y80000000D03*
X45000000Y50000000D03*
X2500000Y40000000D03*
X170000000Y25000000D03*
X87500000Y112500000D03*
X95000000Y95000000D03*
X2500000Y92500000D03*
X174300000Y41249999D03*
X10000000Y60000000D03*
X113250000Y52000000D03*
X60000000Y2500000D03*
X101500000Y72500000D03*
X175000000Y25000000D03*
X40500000Y67250000D03*
X149500000Y47500000D03*
X175000000Y80000000D03*
X30000000Y45000000D03*
X170000000Y105000000D03*
X40000000Y50000000D03*
X35000000Y2500000D03*
X50000000Y35000000D03*
X62400000Y62500000D03*
X40000000Y105000000D03*
X153500000Y112575000D03*
X45000000Y100000000D03*
X197500000Y72500000D03*
X178000000Y5000000D03*
X50000000Y70000000D03*
X89250000Y70500000D03*
X105000000Y30000000D03*
X62500000Y112500000D03*
X105000000Y90000000D03*
X87500000Y37500000D03*
X2500000Y70000000D03*
X25000000Y90000000D03*
X2500000Y82500000D03*
X100000000Y105000000D03*
X10000000Y2500000D03*
X170800000Y51149999D03*
X99250000Y44500000D03*
X163500000Y50000000D03*
X117500000Y112500000D03*
X167500000Y112500000D03*
X90000000Y85000000D03*
X100000000Y85000000D03*
X70000000Y107500000D03*
X197500000Y60000000D03*
X2500000Y35000000D03*
X45000000Y105000000D03*
X87250000Y44960000D03*
X10000000Y40000000D03*
X72000000Y13200000D03*
X2500000Y25000000D03*
X15000000Y30000000D03*
X95000000Y90000000D03*
X126500000Y101500000D03*
X85000000Y112500000D03*
X55000000Y112500000D03*
X62257776Y65984449D03*
X75000000Y105000000D03*
X137000000Y71500000D03*
X40000000Y45000000D03*
X175000000Y112500000D03*
X85000000Y2500000D03*
X30000000Y95000000D03*
X170000000Y30000000D03*
X124750000Y50500000D03*
X165000000Y105000000D03*
X119500000Y105750000D03*
X2500000Y20000000D03*
X35000000Y50000000D03*
X40000000Y20000000D03*
X75000000Y2500000D03*
X2500000Y60000000D03*
X2500000Y75000000D03*
X150000000Y20000000D03*
X87500000Y2500000D03*
X30000000Y60000000D03*
X163500000Y34000000D03*
X15000000Y25000000D03*
X70000000Y112500000D03*
X175000000Y75000000D03*
X15000000Y2500000D03*
X40750000Y96000000D03*
X75000000Y15000000D03*
X60000000Y90000000D03*
X110250000Y82000000D03*
X25000000Y55000000D03*
X144000000Y66250000D03*
X143000000Y97000000D03*
X15000000Y60000000D03*
X172500000Y112500000D03*
X56500000Y96000000D03*
X115000000Y112500000D03*
X143000000Y76000000D03*
X60000000Y45000000D03*
X125300000Y17700000D03*
X25000000Y112500000D03*
X15000000Y80000000D03*
X10000000Y80000000D03*
X114250000Y16250000D03*
X15000000Y50000000D03*
X114270000Y79750000D03*
X95000000Y80000000D03*
X110000000Y105000000D03*
X50000000Y105000000D03*
X72500000Y107500000D03*
X2500000Y12500000D03*
X75000000Y112500000D03*
X30000000Y30000000D03*
X35000000Y55000000D03*
X134000000Y49500000D03*
X92500000Y44500000D03*
X153750000Y24500000D03*
X97250000Y55500000D03*
X2500000Y37500000D03*
X102750000Y60750000D03*
X90000000Y95000000D03*
X157000000Y24500000D03*
X95000000Y105000000D03*
X35000000Y90000000D03*
X80000000Y15000000D03*
X70812500Y83025000D03*
X50000000Y50000000D03*
X117450000Y94450000D03*
X106500000Y69250000D03*
X2500000Y55000000D03*
X186250000Y63500000D03*
X105000000Y112500000D03*
X135000000Y9000000D03*
X128750000Y63750000D03*
X10000000Y105000000D03*
X2500000Y10000000D03*
X197500000Y57500000D03*
X114950000Y93450000D03*
X127500000Y8900000D03*
X95000000Y112500000D03*
X70725000Y101625000D03*
X2500000Y30000000D03*
X15000000Y75000000D03*
X57012500Y98975000D03*
X15000000Y45000000D03*
X38285000Y111600000D03*
X128750000Y81750000D03*
X80000000Y112500000D03*
X69500000Y57750000D03*
X146750000Y100250000D03*
X106000000Y9500000D03*
X138000000Y40000000D03*
X55000000Y80000000D03*
X76900000Y23700000D03*
X53412500Y103325000D03*
X40000000Y85000000D03*
X175000000Y20000000D03*
X106500000Y68250000D03*
X60000000Y112500000D03*
X165000000Y100000000D03*
X175000000Y35000000D03*
X79500000Y30500000D03*
X25000000Y2500000D03*
X50000000Y20000000D03*
X105000000Y105000000D03*
X110000000Y112500000D03*
X124000000Y17700000D03*
X30000000Y50000000D03*
X85000000Y105000000D03*
X149500000Y46250000D03*
X20000000Y75000000D03*
X20000000Y15000000D03*
X2500000Y97500000D03*
X141500000Y58500000D03*
X47500000Y2500000D03*
X114000000Y81475000D03*
X84000000Y76500000D03*
X10000000Y95000000D03*
X138500000Y58000000D03*
X197500000Y67500000D03*
X63500001Y66500000D03*
X77400000Y96100000D03*
X75000000Y10000000D03*
X66599999Y61775551D03*
X15000000Y105000000D03*
X141300000Y22000000D03*
X20000000Y2500000D03*
X145250000Y66000000D03*
X144000000Y74750000D03*
X20000000Y80000000D03*
X10000000Y112500000D03*
X175500000Y58500000D03*
X127600000Y19400000D03*
X160000000Y15000000D03*
X60000000Y75000000D03*
X72500000Y2500000D03*
X170000000Y70000000D03*
X85000000Y100000000D03*
X61362500Y81475000D03*
X107500000Y13750000D03*
X40000000Y60000000D03*
X170000000Y112500000D03*
X65000000Y10000000D03*
X150000000Y25000000D03*
X89000000Y13200000D03*
X122500000Y89000000D03*
X107500000Y60250000D03*
X115750000Y99000000D03*
X25000000Y80000000D03*
X101100000Y8100000D03*
X15000000Y100000000D03*
X80000000Y2500000D03*
X15000000Y95000000D03*
X35000000Y100000000D03*
X25000000Y25000000D03*
X60000000Y70000000D03*
X76212500Y97525000D03*
X172500000Y2500000D03*
X136250000Y81750000D03*
X170000000Y100000000D03*
X75000000Y35000000D03*
X155000000Y15000000D03*
X2500000Y42500000D03*
X149250000Y60000000D03*
X165000000Y2500000D03*
X126500000Y95250000D03*
X137000000Y72750000D03*
X147250000Y60500000D03*
X137500000Y112500000D03*
X45000000Y80000000D03*
X155000000Y10000000D03*
X162500000Y112500000D03*
X77500000Y112500000D03*
X20000000Y112500000D03*
X135000000Y112500000D03*
X10000000Y15000000D03*
X75000000Y62500000D03*
X155500000Y96500000D03*
X58012500Y104125000D03*
X135400000Y29400000D03*
X115000000Y98750000D03*
X2500000Y27500000D03*
X67400000Y56600000D03*
X15000000Y15000000D03*
X60000000Y31000000D03*
X165000000Y20000000D03*
X35000000Y85000000D03*
X165000000Y15000000D03*
X134500000Y80250000D03*
X2500000Y90000000D03*
X50000000Y55000000D03*
X45000000Y45000000D03*
X12500000Y112500000D03*
X133700000Y31750000D03*
X63112500Y85425000D03*
X35000000Y80000000D03*
X2500000Y22500000D03*
X180000000Y80000000D03*
X137520000Y29400000D03*
X101000000Y30500000D03*
X154250000Y42000000D03*
X70000000Y10000000D03*
D25*
X96000000Y53000000D03*
D23*
X133250000Y42500000D03*
X147250000Y63000000D03*
X40750000Y38750000D03*
X100000000Y112500000D03*
X165000000Y112500000D03*
X55000000Y70000000D03*
X108250000Y65760374D03*
X30000000Y75000000D03*
X119500000Y104000000D03*
X147000000Y106750000D03*
X127500000Y112500000D03*
X30600000Y16700000D03*
X177500000Y112500000D03*
X61600000Y68000000D03*
X167500000Y2500000D03*
X2500000Y15000000D03*
X50000000Y15000000D03*
X140000000Y9000000D03*
X17500000Y2500000D03*
X155000000Y2500000D03*
X160000000Y10000000D03*
X138250000Y61750000D03*
X60000000Y10000000D03*
X42500000Y112500000D03*
X162250000Y34000000D03*
X76012500Y79425000D03*
X104500000Y72750000D03*
X197500000Y82500000D03*
X55000000Y2500000D03*
X10000000Y90000000D03*
X45000000Y2500000D03*
X114250000Y50250000D03*
X115350000Y19250000D03*
X175000000Y15000000D03*
X118000000Y107000000D03*
X75000000Y107500000D03*
X15000000Y10000000D03*
X105000000Y100000000D03*
X64112500Y99825000D03*
X70000000Y50000000D03*
X81500000Y30500000D03*
X25000000Y35000000D03*
X120000000Y112500000D03*
X35250000Y35500000D03*
X25000000Y100000000D03*
X60000000Y20000000D03*
X15000000Y90000000D03*
X117000000Y66750000D03*
X42500000Y2500000D03*
X91750000Y69500000D03*
X58312500Y82425000D03*
X100500000Y50250000D03*
X15000000Y65000000D03*
X116000000Y40000000D03*
X52500000Y112500000D03*
X181000000Y57250000D03*
X125000000Y112500000D03*
X37500000Y2500000D03*
X182500000Y58750000D03*
X90000000Y2500000D03*
X10000000Y35000000D03*
X151000000Y40000000D03*
X88750000Y44960000D03*
X50000000Y112500000D03*
X117750000Y50500000D03*
X2500000Y62500000D03*
X95000000Y20000000D03*
X27500000Y2500000D03*
X62500000Y2500000D03*
X2500000Y72500000D03*
X35000000Y45000000D03*
X22500000Y112500000D03*
X80000000Y25000000D03*
X85000000Y80000000D03*
X132000000Y46250000D03*
X99000000Y57295000D03*
X27500000Y112500000D03*
X132250000Y78770003D03*
X92500000Y46000000D03*
X134200000Y21900000D03*
X116700000Y15700000D03*
X155000000Y20000000D03*
X50000000Y100000000D03*
X10000000Y45000000D03*
X50000000Y45000000D03*
X90000000Y15000000D03*
X65000000Y20000000D03*
X30000000Y25000000D03*
X77000000Y50000000D03*
X91750000Y75250000D03*
X77500000Y105000000D03*
X72500000Y105000000D03*
X25000000Y45000000D03*
X40000000Y55000000D03*
X97500000Y112500000D03*
X197500000Y62500000D03*
X10000000Y70000000D03*
X170000000Y2500000D03*
X2500000Y105000000D03*
X144750000Y85000000D03*
X110000000Y90000000D03*
X20000000Y20000000D03*
X85000000Y15000000D03*
X15000000Y35000000D03*
X45000000Y55000000D03*
X70000000Y2500000D03*
X90000000Y112500000D03*
X30000000Y105000000D03*
X30000000Y2500000D03*
X45000000Y75000000D03*
X122750000Y78000000D03*
X15000000Y112500000D03*
X65400000Y57600000D03*
X55000000Y55000000D03*
X75812500Y85725000D03*
X82500000Y112500000D03*
X135000000Y15000000D03*
X96000000Y72750000D03*
X54500000Y98500000D03*
X100000000Y20000000D03*
X40000000Y90000000D03*
X150000000Y15000000D03*
X107500000Y112500000D03*
X65000000Y90000000D03*
X110950000Y96450000D03*
X170000000Y20000000D03*
X55000000Y90000000D03*
X2500000Y100000000D03*
X77500000Y2500000D03*
X32500000Y2500000D03*
X170000000Y15000000D03*
X55000000Y13000000D03*
X65000000Y2500000D03*
X85000000Y20000000D03*
X2500000Y77500000D03*
X72500000Y112500000D03*
X54500000Y99500000D03*
X2500000Y95000000D03*
X197500000Y95000000D03*
X57912500Y87000000D03*
X197500000Y65000000D03*
X70000000Y55000000D03*
X35000000Y105000000D03*
X76212500Y91825000D03*
%TO.N,/USB/PD_IN_GD*%
X58022549Y102300735D03*
X57100000Y103300000D03*
D25*
%TO.N,+DCDC_1*%
X96796985Y50796985D03*
D23*
X32000000Y111600000D03*
X131750000Y61250000D03*
X123500000Y91750000D03*
X81000000Y82500000D03*
X104500000Y62750000D03*
X138500000Y59000000D03*
X118500000Y91750000D03*
X138750000Y66750000D03*
X121250000Y77000000D03*
X108500000Y55500000D03*
X110250000Y85175000D03*
X75000000Y68000000D03*
X95500000Y46000000D03*
X51300000Y28600000D03*
X112700000Y21200000D03*
D25*
X95500000Y52000000D03*
D23*
X95500000Y44500000D03*
X128750000Y78500000D03*
X186000000Y58750000D03*
X123000000Y15700000D03*
X110500000Y66750000D03*
X103700000Y11100000D03*
X70600000Y28800000D03*
X105250000Y68500000D03*
X76500000Y67500000D03*
X86250000Y53750000D03*
X86250000Y56750000D03*
X137000000Y70500000D03*
X72000000Y62500000D03*
X131250000Y99500000D03*
X90300000Y28900000D03*
X102250000Y43000000D03*
X37000000Y14000000D03*
X126000000Y91750000D03*
X127250000Y51750000D03*
X92250000Y58250000D03*
X83500000Y75000000D03*
X147250000Y57250000D03*
X112770000Y78500000D03*
X133250000Y53955000D03*
X118750000Y48500000D03*
X82000000Y75000000D03*
X95000000Y58500000D03*
X129750000Y113500000D03*
X100750000Y59500000D03*
X133750000Y81500000D03*
X71500000Y63500000D03*
X76500000Y69500000D03*
X121750000Y95250000D03*
X103750000Y44000000D03*
X69500000Y44000000D03*
X163000000Y28000000D03*
X53500000Y78100000D03*
X120500000Y91750000D03*
X147250000Y41000000D03*
X61100000Y63700000D03*
X138250000Y63750000D03*
X105750000Y72000000D03*
X36500000Y13500000D03*
%TO.N,+1V2*%
X75550000Y75050000D03*
X70000000Y62500000D03*
%TO.N,+DCDC_2*%
X31885000Y108500000D03*
X196750000Y93500000D03*
X142500000Y20300000D03*
X69700000Y76900000D03*
X168750000Y49750000D03*
%TO.N,-DCDC_1*%
X73150000Y21450000D03*
X92000000Y20800000D03*
X50900000Y37400000D03*
%TO.N,/uCMain/NRST*%
X132250000Y68250000D03*
X80750000Y55250000D03*
X134500000Y53750000D03*
%TO.N,+VDD_SDC*%
X155250000Y64750000D03*
X147250000Y53000000D03*
X147250000Y38250000D03*
%TO.N,/ADC/V_Phase_B_P*%
X46900000Y68200000D03*
X59250000Y60000000D03*
%TO.N,Net-(U401B-VLXSMPS)*%
X144500000Y64750000D03*
X132250000Y62500000D03*
%TO.N,+V_ISO*%
X194000000Y46000000D03*
D26*
X184000000Y24500000D03*
D23*
%TO.N,GND2*%
X197500000Y40000000D03*
X197500000Y42500000D03*
X197000000Y27750000D03*
X197500000Y52500000D03*
X197500000Y20000000D03*
X197500000Y15000000D03*
X192500000Y48500000D03*
X193000000Y23500000D03*
X187800000Y41000000D03*
X190000000Y20000000D03*
X197500000Y17500000D03*
X185000000Y15000000D03*
X197500000Y47500000D03*
X185000000Y20000000D03*
X197500000Y45000000D03*
X197000000Y23500000D03*
X187800000Y44849999D03*
X193000000Y27750000D03*
X197500000Y50000000D03*
X184000000Y33500000D03*
X190000000Y15000000D03*
%TO.N,+VBUSc*%
X65112500Y104725000D03*
X56012500Y105025000D03*
X59512500Y105025000D03*
X53743750Y108956250D03*
X66918750Y96418750D03*
X63312500Y101325000D03*
%TO.N,/uCMain/DEBUG_JTMS-SWDIO-H*%
X153000000Y31000000D03*
%TO.N,/uCMain/DEBUG_JTCK-SWCLK-H*%
X154500000Y32250000D03*
%TO.N,/uCMain/DEBUG_JTDO-SWO-H*%
X154500000Y33710000D03*
%TO.N,BLE_RST*%
X114800000Y11800000D03*
X102000000Y9000000D03*
X121200000Y21600000D03*
X102750000Y78500000D03*
%TO.N,Net-(U701-VSEL)*%
X187300000Y52149999D03*
X189900000Y48749999D03*
%TO.N,/USB/USB_CC1c*%
X63412500Y105325000D03*
X59712500Y100825000D03*
%TO.N,/ETHERNET/ETH_DCDC2_FR*%
X124010374Y104690000D03*
X125500000Y103250000D03*
X124750000Y110250000D03*
X123000000Y106750000D03*
D26*
X118000000Y101500000D03*
X138000000Y114000000D03*
X124250000Y101000000D03*
D23*
X123250000Y110250000D03*
D26*
X119000000Y110000000D03*
D23*
X126000000Y110250000D03*
D26*
%TO.N,Net-(U801-VDDCR)*%
X118500000Y97000000D03*
D23*
%TO.N,ADS_CS*%
X73275000Y67900000D03*
X130750000Y66750000D03*
X152500000Y62500000D03*
%TO.N,/eMMC/VDDI*%
X88500000Y48000000D03*
D24*
X93500000Y53500000D03*
D23*
%TO.N,/uCMain/BOOT0*%
X128250000Y55000000D03*
X80750000Y46500000D03*
%TO.N,ADS_DIN_uC_DOUT*%
X142500000Y58000000D03*
X103250000Y73000000D03*
X131750000Y58000000D03*
%TO.N,ADS_DOUT_uC_DIN*%
X130375000Y58125000D03*
X100750000Y73250000D03*
%TO.N,I2C1_SDA*%
X124000000Y68500000D03*
X179000000Y92000000D03*
X127250000Y55750000D03*
X121000000Y62250000D03*
%TO.N,/uCMain/NRST-H*%
X153000000Y36250000D03*
%TO.N,SPI1_SCK*%
X145750000Y86250000D03*
X130250000Y72000000D03*
%TO.N,UART4_TX*%
X137000000Y74000000D03*
X141750000Y77750000D03*
X132354020Y76895980D03*
%TO.N,UART4_RX*%
X121250000Y34500000D03*
X114750000Y55250000D03*
X179000000Y87250000D03*
%TO.N,GPIO_OUT_1*%
X120250000Y76500000D03*
X181750000Y97000000D03*
%TO.N,I2C1_SCL*%
X124500000Y70000000D03*
X126125000Y56125000D03*
X177750000Y92000000D03*
X120250000Y61000000D03*
%TO.N,GPIO_IN_1*%
X183125000Y99625000D03*
X119500000Y77500000D03*
%TO.N,GPIO_IN_2*%
X119500000Y78750000D03*
X185750000Y99500000D03*
%TO.N,ADC1_INP9*%
X175750000Y94500000D03*
X183000000Y94500000D03*
X122000000Y82000000D03*
%TO.N,SD_DETECT*%
X139250000Y35000000D03*
X121310000Y51750000D03*
X132000000Y34500000D03*
%TO.N,TIM4_CH1*%
X178750000Y101750000D03*
X111065745Y68250000D03*
%TO.N,SPI1_NSS*%
X129500000Y73250000D03*
X145000000Y88500000D03*
%TO.N,LDO_EN*%
X80800000Y80000000D03*
X120000000Y82260374D03*
%TO.N,DCDC_2_EN*%
X56900000Y82700000D03*
X118750000Y82250000D03*
X72250000Y88750000D03*
X68500000Y88750000D03*
%TO.N,ADC3_INP1*%
X132250000Y69750000D03*
X184000000Y93750000D03*
%TO.N,SPI1_MISO*%
X141500000Y81750000D03*
%TO.N,SPI1_MOSI*%
X127500000Y63750000D03*
X144750000Y84000000D03*
%TO.N,FDCAN2_TX*%
X181750000Y102750000D03*
X111000000Y77000000D03*
%TO.N,TIM4_CH2*%
X136250000Y94750000D03*
X114000000Y61500000D03*
X177250000Y101750000D03*
%TO.N,UART4_DE*%
X110750000Y55000000D03*
X162750000Y69000000D03*
X175250000Y86500000D03*
X122625000Y35125000D03*
%TO.N,FDCAN2_RX*%
X112250000Y77000000D03*
X180000000Y99500000D03*
%TO.N,SPI5_MISO*%
X189750000Y56500000D03*
X133250000Y46250000D03*
X133250000Y43750000D03*
X128270980Y43479020D03*
%TO.N,SPI5_CS*%
X114250000Y15250000D03*
X148750000Y76000000D03*
X132000000Y66750000D03*
%TO.N,ADS_STM32_CLKOUT*%
X108250000Y61000000D03*
X91750000Y74000000D03*
%TO.N,ADS_DRDY*%
X154250000Y63750000D03*
X127000000Y59500000D03*
X95000000Y72000000D03*
%TO.N,ADS_SYNC_RESET*%
X84500000Y70500000D03*
X126250000Y72250000D03*
%TO.N,ADS_SPI_SCK*%
X94250000Y72750000D03*
X131500000Y56250000D03*
%TO.N,uC_OTG_D+*%
X109678266Y59675266D03*
X109045000Y69515000D03*
%TO.N,uC_OTG_D-*%
X109955000Y69515000D03*
X110321734Y60318734D03*
%TO.N,SPI5_MOSI*%
X135375000Y36875000D03*
X106750000Y10250000D03*
%TO.N,SPI5_SCK*%
X136250000Y36500000D03*
X106750000Y13000000D03*
D26*
%TO.N,Net-(J801-YEL_+)*%
X115000000Y103000000D03*
%TO.N,Net-(J801-GRN_+)*%
X116500000Y102500000D03*
D23*
%TO.N,Net-(JP402-B)*%
X118000000Y66000000D03*
X142250000Y53000000D03*
X117750000Y58000000D03*
%TO.N,Net-(JP406-B)*%
X139750000Y41500000D03*
X113125000Y74875000D03*
X119000000Y59000000D03*
X120250000Y59000000D03*
X131500000Y51750000D03*
X121000000Y56000000D03*
%TO.N,eMMC_RSTn*%
X129500000Y47500000D03*
X116250000Y34500000D03*
D24*
%TO.N,/eMMC/SDMMC1_eMMC_RSTn_JP*%
X95000000Y50000000D03*
D23*
X91000000Y47500000D03*
%TO.N,Net-(U401A-PG9)*%
X126000000Y65500000D03*
%TO.N,/uCMain/TIM1_CH1*%
X105750000Y79175000D03*
X121000000Y71000000D03*
%TO.N,/uCMain/TIM1_CH2*%
X108750000Y79175000D03*
X120000000Y72455000D03*
%TO.N,/uCMain/TIM1_CH3*%
X118500000Y71750000D03*
X107250000Y79175000D03*
%TO.N,/uCMain/DEBUG_JTMS-SWDIO*%
X106750000Y37000000D03*
X107375000Y55625000D03*
%TO.N,/uCMain/DEBUG_JTCK-SWCLK*%
X109750000Y55750000D03*
X110750000Y36750000D03*
%TO.N,/uCMain/DEBUG_JTDO-SWO*%
X124500000Y55500000D03*
%TO.N,BLE_INT*%
X126750000Y15250000D03*
X135750000Y56250000D03*
%TO.N,RMII_REF_CLK*%
X132000000Y78000000D03*
X132000000Y94500000D03*
%TO.N,SDMMC1_D2*%
X94750000Y61750000D03*
X113500000Y51000000D03*
%TO.N,SDMMC1_D3*%
X115000000Y40000000D03*
X115000000Y51000000D03*
%TO.N,SDMMC1_D6*%
X100500000Y62245000D03*
X90500000Y70500000D03*
%TO.N,SDMMC1_D7*%
X102000000Y61500000D03*
X91250000Y68500000D03*
%TO.N,/eMMC/SDMMC1_D3_R*%
X92000000Y54000000D03*
D24*
X93500000Y54000000D03*
D23*
%TO.N,/eMMC/SDMMC1_D4_R*%
X92000000Y52500000D03*
D24*
X94000000Y54000000D03*
D23*
%TO.N,/eMMC/SDMMC1_D5_R*%
X92000000Y55500000D03*
D24*
X94500000Y54000000D03*
%TO.N,/eMMC/SDMMC1_D6_R*%
X95000000Y54000000D03*
D23*
X97261250Y58238750D03*
D24*
%TO.N,/eMMC/SDMMC1_D7_R*%
X95500000Y54000000D03*
D23*
X98309308Y58190692D03*
%TO.N,/eMMC/SDMMC1_CMD_R*%
X98000000Y44500000D03*
D24*
X95000000Y49000000D03*
%TO.N,/eMMC/SDMMC1_CK_R*%
X95500000Y49000000D03*
D23*
X100500000Y49000000D03*
%TO.N,Net-(U901-DATA_STROBE)*%
X103750000Y36750000D03*
D24*
X95000000Y51000000D03*
D23*
X91250000Y50750000D03*
%TO.N,USART2_INV_485*%
X114000000Y56000000D03*
X123000000Y32000000D03*
X112500000Y36750000D03*
X170250000Y43000000D03*
%TO.N,SDMMC2_D1*%
X127750000Y33750000D03*
X115250000Y69000000D03*
%TO.N,USART2_RX*%
X157250000Y67000000D03*
X166000000Y45559999D03*
X157250000Y78000000D03*
X130000000Y81500000D03*
%TO.N,SDMMC2_CMD*%
X120625000Y50250000D03*
X129500000Y35750000D03*
%TO.N,BLE_TEST9*%
X120750000Y9625000D03*
X115000000Y64500000D03*
X104500000Y12000000D03*
%TO.N,SDMMC2_CK*%
X128275980Y35525980D03*
X120000000Y51250000D03*
%TO.N,SDMMC2_D2*%
X121940000Y50750000D03*
X131490000Y36740000D03*
%TO.N,RMII_TXD0*%
X126000000Y100000000D03*
X123250000Y48250000D03*
%TO.N,RMII_TXD1*%
X123125000Y46375000D03*
X127250000Y100720003D03*
%TO.N,ETH_NRST*%
X128500000Y77250000D03*
X128500000Y99000000D03*
%TO.N,USART2_TX*%
X119000000Y55250000D03*
X169000000Y43700000D03*
X125000000Y31750000D03*
%TO.N,USART2_DE*%
X167750000Y44649999D03*
X117500000Y56000000D03*
X126000000Y30500000D03*
%TO.N,BLE_TEST8*%
X120750000Y8250000D03*
X117750000Y63500000D03*
%TO.N,SDMMC2_D0*%
X116750000Y65750000D03*
X127000000Y35750000D03*
%TO.N,SDMMC2_D3*%
X128500000Y46250000D03*
X125500000Y52000000D03*
%TO.N,RMII_TX_EN*%
X118250000Y80000000D03*
X127000000Y99485000D03*
%TO.N,/uCMain/SPI5_SCK_R*%
X135581937Y65331937D03*
X136250000Y53500000D03*
%TO.N,/uCMain/SPI5_MOSI_R*%
X135500000Y66750000D03*
X135250000Y48250000D03*
%TO.N,SPI5_MISO*%
X136625000Y66625000D03*
X180250000Y56500000D03*
X175500000Y59500000D03*
%TD*%
D27*
%TO.N,+DCDC_2*%
X27500000Y105500000D02*
X27500000Y82000000D01*
X30500000Y108500000D02*
X27500000Y105500000D01*
X31885000Y108500000D02*
X30500000Y108500000D01*
X68800000Y76000000D02*
X69700000Y76900000D01*
X33500000Y76000000D02*
X68800000Y76000000D01*
X27500000Y82000000D02*
X33500000Y76000000D01*
D28*
%TO.N,/uCMain/NRST*%
X134000000Y54250000D02*
X134000000Y66500000D01*
X134500000Y53750000D02*
X134000000Y54250000D01*
X134000000Y66500000D02*
X132250000Y68250000D01*
X80750000Y55250000D02*
X80750000Y62000000D01*
X131455000Y67455000D02*
X132250000Y68250000D01*
X86205000Y67455000D02*
X131455000Y67455000D01*
X80750000Y62000000D02*
X86205000Y67455000D01*
%TO.N,BLE_RST*%
X87750000Y23250000D02*
X102000000Y9000000D01*
X86500000Y73750000D02*
X76455000Y63705000D01*
X86500000Y76500000D02*
X86500000Y73750000D01*
X102750000Y78500000D02*
X88500000Y78500000D01*
X88500000Y78500000D02*
X86500000Y76500000D01*
X76455000Y39045000D02*
X87750000Y27750000D01*
X87750000Y27750000D02*
X87750000Y23250000D01*
X76455000Y63705000D02*
X76455000Y39045000D01*
%TO.N,Net-(C812-Pad1)*%
X157555000Y101840000D02*
X144095000Y101840000D01*
%TO.N,/uCMain/BOOT0*%
X88000000Y56500000D02*
X80750000Y49250000D01*
X80750000Y49250000D02*
X80750000Y46500000D01*
X127000000Y57000000D02*
X107229253Y57000000D01*
X128250000Y55750000D02*
X127000000Y57000000D01*
X106729253Y56500000D02*
X88000000Y56500000D01*
X107229253Y57000000D02*
X106729253Y56500000D01*
X128250000Y55000000D02*
X128250000Y55750000D01*
%TO.N,I2C1_SDA*%
X124000000Y68500000D02*
X124750000Y69250000D01*
X139500000Y79000000D02*
X166000000Y79000000D01*
X124750000Y69250000D02*
X129750000Y69250000D01*
X129750000Y69250000D02*
X139500000Y79000000D01*
X166000000Y79000000D02*
X179000000Y92000000D01*
%TO.N,UART4_TX*%
X138000000Y74000000D02*
X137000000Y74000000D01*
X141750000Y77750000D02*
X138000000Y74000000D01*
%TO.N,UART4_RX*%
X153000000Y43000000D02*
X156500000Y46500000D01*
X156500000Y64750000D02*
X179000000Y87250000D01*
X121250000Y34500000D02*
X121250000Y35250000D01*
X121250000Y35250000D02*
X126750000Y40750000D01*
X126750000Y40750000D02*
X134500000Y40750000D01*
X136750000Y43000000D02*
X153000000Y43000000D01*
X156500000Y46500000D02*
X156500000Y64750000D01*
X134500000Y40750000D02*
X136750000Y43000000D01*
%TO.N,GPIO_OUT_1*%
X120250000Y77250000D02*
X125500000Y82500000D01*
X120250000Y76500000D02*
X120250000Y77250000D01*
X181250000Y97000000D02*
X181750000Y97000000D01*
X166750000Y82500000D02*
X181250000Y97000000D01*
X125500000Y82500000D02*
X166750000Y82500000D01*
%TO.N,I2C1_SCL*%
X124500000Y70000000D02*
X129250000Y70000000D01*
X129250000Y70000000D02*
X139250000Y80000000D01*
X165750000Y80000000D02*
X177750000Y92000000D01*
X139250000Y80000000D02*
X165750000Y80000000D01*
%TO.N,GPIO_IN_1*%
X166500000Y83000000D02*
X183125000Y99625000D01*
X125000000Y83000000D02*
X166500000Y83000000D01*
X119500000Y77500000D02*
X125000000Y83000000D01*
%TO.N,GPIO_IN_2*%
X120000000Y78750000D02*
X124705000Y83455000D01*
X124705000Y83455000D02*
X166205000Y83455000D01*
X184750000Y100500000D02*
X185750000Y99500000D01*
X166205000Y83455000D02*
X182000000Y99250000D01*
X182500000Y100500000D02*
X184750000Y100500000D01*
X182000000Y99250000D02*
X182000000Y100000000D01*
X182000000Y100000000D02*
X182500000Y100500000D01*
X119500000Y78750000D02*
X120000000Y78750000D01*
%TO.N,ADC1_INP9*%
X132250000Y92250000D02*
X122000000Y82000000D01*
X175750000Y94500000D02*
X173500000Y92250000D01*
X173500000Y92250000D02*
X132250000Y92250000D01*
%TO.N,TIM4_CH1*%
X120750000Y84250000D02*
X130455000Y93955000D01*
X112750000Y85500000D02*
X112750000Y84500000D01*
X105250000Y87250000D02*
X111000000Y87250000D01*
X111000000Y87250000D02*
X112750000Y85500000D01*
X130455000Y93955000D02*
X170955000Y93955000D01*
X111065745Y69684255D02*
X103750000Y77000000D01*
X112750000Y84500000D02*
X113000000Y84250000D01*
X170955000Y93955000D02*
X178750000Y101750000D01*
X111065745Y68250000D02*
X111065745Y69684255D01*
X103750000Y85750000D02*
X105250000Y87250000D01*
X113000000Y84250000D02*
X120750000Y84250000D01*
X103750000Y77000000D02*
X103750000Y85750000D01*
%TO.N,ADC3_INP1*%
X132250000Y69750000D02*
X160000000Y69750000D01*
X160000000Y69750000D02*
X184000000Y93750000D01*
%TO.N,FDCAN2_TX*%
X121250000Y83750000D02*
X131000000Y93500000D01*
X110250000Y77750000D02*
X110250000Y80500000D01*
X113500000Y83750000D02*
X121250000Y83750000D01*
X110250000Y80500000D02*
X113500000Y83750000D01*
X172500000Y93500000D02*
X181750000Y102750000D01*
X111000000Y77000000D02*
X110250000Y77750000D01*
X131000000Y93500000D02*
X172500000Y93500000D01*
%TO.N,TIM4_CH2*%
X177250000Y101750000D02*
X177250000Y101375000D01*
X170375000Y94500000D02*
X136500000Y94500000D01*
X177250000Y101375000D02*
X170375000Y94500000D01*
X136500000Y94500000D02*
X136250000Y94750000D01*
%TO.N,UART4_DE*%
X125000000Y37500000D02*
X137510374Y37500000D01*
X162000000Y69000000D02*
X162750000Y69000000D01*
X122625000Y35125000D02*
X125000000Y37500000D01*
X137510374Y37500000D02*
X142510374Y42500000D01*
X142510374Y42500000D02*
X153479253Y42500000D01*
X157250000Y64250000D02*
X162000000Y69000000D01*
X157250000Y46270747D02*
X157250000Y64250000D01*
X153479253Y42500000D02*
X157250000Y46270747D01*
%TO.N,FDCAN2_RX*%
X131750000Y93000000D02*
X121750000Y83000000D01*
X179500000Y99500000D02*
X173000000Y93000000D01*
X114000000Y83000000D02*
X111500000Y80500000D01*
X180000000Y99500000D02*
X179500000Y99500000D01*
X173000000Y93000000D02*
X131750000Y93000000D01*
X111500000Y80500000D02*
X111500000Y77750000D01*
X111500000Y77750000D02*
X112250000Y77000000D01*
X121750000Y83000000D02*
X114000000Y83000000D01*
D29*
%TO.N,SPI5_CS*%
X130250000Y56500000D02*
X130250000Y46250000D01*
X129500000Y57250000D02*
X130250000Y56500000D01*
X109500000Y17250000D02*
X111500000Y15250000D01*
X130250000Y46250000D02*
X109500000Y25500000D01*
X132000000Y66500000D02*
X129500000Y64000000D01*
X109500000Y25500000D02*
X109500000Y17250000D01*
X132000000Y66750000D02*
X132000000Y66500000D01*
X129500000Y64000000D02*
X129500000Y57250000D01*
X111500000Y15250000D02*
X114250000Y15250000D01*
D28*
%TO.N,Net-(J801-YEL_+)*%
X159500000Y111000000D02*
X157450000Y108950000D01*
X146500000Y113500000D02*
X159000000Y113500000D01*
X116980000Y104980000D02*
X122480000Y104980000D01*
X159500000Y113000000D02*
X159500000Y111000000D01*
X115000000Y103000000D02*
X116980000Y104980000D01*
X159000000Y113500000D02*
X159500000Y113000000D01*
X122480000Y104980000D02*
X124000000Y106500000D01*
X139500000Y106500000D02*
X146500000Y113500000D01*
X124000000Y106500000D02*
X139500000Y106500000D01*
%TO.N,Net-(J801-GRN_+)*%
X145500000Y107000000D02*
X146740000Y108240000D01*
X124000000Y105500000D02*
X141500000Y105500000D01*
X146740000Y108240000D02*
X146740000Y108950000D01*
X116500000Y102500000D02*
X116520000Y102520000D01*
X143000000Y107000000D02*
X145500000Y107000000D01*
X116520000Y102520000D02*
X121020000Y102520000D01*
X121020000Y102520000D02*
X124000000Y105500000D01*
X141500000Y105500000D02*
X143000000Y107000000D01*
%TO.N,eMMC_RSTn*%
X129500000Y46000000D02*
X118000000Y34500000D01*
X129500000Y47500000D02*
X129500000Y46000000D01*
X118000000Y34500000D02*
X116250000Y34500000D01*
%TO.N,/uCMain/TIM1_CH1*%
X105750000Y79000000D02*
X105750000Y79175000D01*
X113750000Y71000000D02*
X105750000Y79000000D01*
X121000000Y71000000D02*
X113750000Y71000000D01*
%TO.N,/uCMain/TIM1_CH2*%
X120000000Y72455000D02*
X119955000Y72500000D01*
X108750000Y77750000D02*
X108750000Y79175000D01*
X114000000Y72500000D02*
X108750000Y77750000D01*
X119955000Y72500000D02*
X114000000Y72500000D01*
%TO.N,/uCMain/TIM1_CH3*%
X118500000Y71750000D02*
X114000000Y71750000D01*
X114000000Y71750000D02*
X107250000Y78500000D01*
X107250000Y78500000D02*
X107250000Y79175000D01*
%TO.N,/uCMain/DEBUG_JTMS-SWDIO*%
X107750000Y38000000D02*
X106750000Y37000000D01*
X107375000Y55625000D02*
X107750000Y55250000D01*
X107750000Y55250000D02*
X107750000Y38000000D01*
%TO.N,/uCMain/DEBUG_JTCK-SWCLK*%
X109750000Y37750000D02*
X109750000Y55750000D01*
X110750000Y36750000D02*
X109750000Y37750000D01*
%TO.N,BLE_INT*%
X120750000Y25479253D02*
X126750000Y19479253D01*
X120250000Y26000000D02*
X120750000Y25500000D01*
X134320000Y41070000D02*
X126299253Y41070000D01*
X120750000Y25500000D02*
X120750000Y25479253D01*
X137750000Y44500000D02*
X134320000Y41070000D01*
X137750000Y54250000D02*
X137750000Y44500000D01*
X126750000Y19479253D02*
X126750000Y15250000D01*
X120250000Y35020747D02*
X120250000Y26000000D01*
X135750000Y56250000D02*
X137750000Y54250000D01*
X126299253Y41070000D02*
X120250000Y35020747D01*
%TO.N,Net-(U901-DATA_STROBE)*%
X90000000Y49500000D02*
X90000000Y39500000D01*
X103250000Y37250000D02*
X103750000Y36750000D01*
X92250000Y37250000D02*
X103250000Y37250000D01*
X90000000Y39500000D02*
X92250000Y37250000D01*
X91250000Y50750000D02*
X90000000Y49500000D01*
%TO.N,USART2_INV_485*%
X152000000Y37750000D02*
X140750000Y26500000D01*
X165250000Y43000000D02*
X160000000Y37750000D01*
X125500000Y26500000D02*
X123000000Y29000000D01*
X123000000Y29000000D02*
X123000000Y32000000D01*
X160000000Y37750000D02*
X152000000Y37750000D01*
X140750000Y26500000D02*
X125500000Y26500000D01*
X114000000Y56000000D02*
X112500000Y54500000D01*
X170250000Y43000000D02*
X165250000Y43000000D01*
X112500000Y54500000D02*
X112500000Y36750000D01*
%TO.N,BLE_TEST9*%
X126455000Y59274253D02*
X126774253Y58955000D01*
X121250000Y64500000D02*
X126455000Y59295000D01*
X126774253Y58955000D02*
X126795000Y58955000D01*
X129165000Y48915000D02*
X104500000Y24250000D01*
X129165000Y56585000D02*
X129165000Y48915000D01*
X126795000Y58955000D02*
X129165000Y56585000D01*
X115000000Y64500000D02*
X121250000Y64500000D01*
X104500000Y24250000D02*
X104500000Y12000000D01*
X126455000Y59295000D02*
X126455000Y59274253D01*
%TO.N,USART2_TX*%
X164950000Y43700000D02*
X169000000Y43700000D01*
X125000000Y28500000D02*
X126250000Y27250000D01*
X151750000Y38500000D02*
X159750000Y38500000D01*
X159750000Y38500000D02*
X164950000Y43700000D01*
X126250000Y27250000D02*
X140500000Y27250000D01*
X125000000Y31750000D02*
X125000000Y28500000D01*
X140500000Y27250000D02*
X151750000Y38500000D01*
%TO.N,USART2_DE*%
X126000000Y30500000D02*
X126000000Y29000000D01*
X140250000Y28000000D02*
X151705000Y39455000D01*
X151705000Y39455000D02*
X159705000Y39455000D01*
X159705000Y39455000D02*
X164899999Y44649999D01*
X164899999Y44649999D02*
X167750000Y44649999D01*
X126000000Y29000000D02*
X127000000Y28000000D01*
X127000000Y28000000D02*
X140250000Y28000000D01*
%TO.N,BLE_TEST8*%
X120750000Y64000000D02*
X128845000Y55905000D01*
X102750000Y22952548D02*
X102750000Y10000000D01*
X128845000Y55905000D02*
X128845000Y49047548D01*
X117750000Y63500000D02*
X118250000Y64000000D01*
X118250000Y64000000D02*
X120750000Y64000000D01*
X102750000Y10000000D02*
X104500000Y8250000D01*
X128845000Y49047548D02*
X102750000Y22952548D01*
X104500000Y8250000D02*
X120750000Y8250000D01*
%TD*%
M02*
